<svg xmlns="http://www.w3.org/2000/svg" xmlns:xlink="http://www.w3.org/1999/xlink" viewBox="0 0 157.36 57.17"><defs><style>.cls-1{fill:none;}.cls-2{clip-path:url(#clip-path);}.cls-3{fill:url(#linear-gradient);}</style><clipPath id="clip-path"><path class="cls-1" d="M47.57,46.26a2.06,2.06,0,0,1-.42-1.46,10,10,0,0,1,.7-3.66,9,9,0,0,1,1.89-3,4.94,4.94,0,0,1,2.59-1.51L51.09,43a6.76,6.76,0,0,1-1,2.47,2.31,2.31,0,0,1-1.4,1.12l-.32,0a1.11,1.11,0,0,1-.83-.33M149.24,10.32a33.56,33.56,0,0,1,1.42-4.89q.73-1.85,1.34-2,.43-.08.67.45a4.12,4.12,0,0,1,.23,1.59A14,14,0,0,1,151.54,11a30.16,30.16,0,0,1-3.42,5.91q.43-3.51,1.12-6.56M152.69.05q-2.87.51-4.92,4.66a37.58,37.58,0,0,0-3.1,9.91,60.83,60.83,0,0,0-1.05,10.9c0,.43,0,.84,0,1.23a14.48,14.48,0,0,1-2.5,2.5,7.09,7.09,0,0,1-3,1.44q-3.37.59-3.37-3.28a8.54,8.54,0,0,1,.4-2.64,6.07,6.07,0,0,1,1.07-2,2.46,2.46,0,0,1,1.44-.94.7.7,0,0,1,.62.12.81.81,0,0,1,.22.63,3.21,3.21,0,0,1-.17,1l-.1.45a2.68,2.68,0,0,0-.07.55.83.83,0,0,0,.38.77,1.45,1.45,0,0,0,1,.12,2.32,2.32,0,0,0,1.62-1.25,4.9,4.9,0,0,0,.62-2.48,3.31,3.31,0,0,0-1-2.61,3.25,3.25,0,0,0-2.85-.58,7.72,7.72,0,0,0-3.57,1.73,10.5,10.5,0,0,0-2.77,3.63,11.23,11.23,0,0,0-1.07,4.93,8.64,8.64,0,0,0,.07,1.11c-.43.55-.81,1-1.13,1.33a3.25,3.25,0,0,1-1.59,1.1q-1,.17-1-1.16a25.09,25.09,0,0,1,.63-4,29,29,0,0,0,.73-4.84q0-2.17-2.17-1.79a5.84,5.84,0,0,0-2.42,1.19,12.58,12.58,0,0,0-2.69,3,23.51,23.51,0,0,0-2.47,5.11,25.44,25.44,0,0,1,.33-2.53q.2-1,.53-2.43a14.07,14.07,0,0,0,.5-2.49q0-.47-.27-.59a1.79,1.79,0,0,0-.93,0,4,4,0,0,0-1.92.79,3.18,3.18,0,0,0-1,1.59,29.29,29.29,0,0,0-1.22,7.85q-1,1.31-1.66,2a3.25,3.25,0,0,1-1.59,1.1.71.71,0,0,1-.7-.23,1.39,1.39,0,0,1-.27-.94,40.37,40.37,0,0,1,.93-5.44,35.3,35.3,0,0,0,.83-4.72q0-.5-.3-.63a2.1,2.1,0,0,0-1.07,0,3.11,3.11,0,0,0-1.65.73,3.27,3.27,0,0,0-.82,1.58,47.45,47.45,0,0,1-1.65,5.3,18.25,18.25,0,0,1-1.6,3.32q-.75,1.13-1.25,1.22a.48.48,0,0,1-.53-.19,1.89,1.89,0,0,1-.17-1,33.75,33.75,0,0,1,.67-4.79q.2-1,.53-2.33a15.29,15.29,0,0,0,.37-1.87.72.72,0,0,0-.28-.65,1.53,1.53,0,0,0-1-.05,3.84,3.84,0,0,0-1.9.77,3.53,3.53,0,0,0-.93,1.6,32.5,32.5,0,0,0-1.1,4.62,28.62,28.62,0,0,0-.31,3.32c-.64.84-1.18,1.49-1.61,2A3.25,3.25,0,0,1,96,37.93q-1,.17-1-1.16a25.12,25.12,0,0,1,.63-3.95A29,29,0,0,0,96.35,28q0-2.17-2.17-1.79a7.28,7.28,0,0,0-3.81,2.54,20.78,20.78,0,0,0-3.71,6.63q.1-.62.37-1.87a23,23,0,0,0,.63-4A2.05,2.05,0,0,0,87.19,28a1.91,1.91,0,0,0-1.65-.24A5.45,5.45,0,0,0,83,29a13.15,13.15,0,0,0-2.57,3.14A22.14,22.14,0,0,0,78.33,37a24.43,24.43,0,0,1,.33-2.51q.2-1,.53-2.41a14,14,0,0,0,.5-2.49q0-.47-.27-.59a1.78,1.78,0,0,0-.93,0,4,4,0,0,0-1.92.79,3.18,3.18,0,0,0-1,1.59,29.16,29.16,0,0,0-1,4.8,3.15,3.15,0,0,1-1.43.87q-.84.15-.84-1a13.33,13.33,0,0,1,.27-1.72,18,18,0,0,0,.3-2.16q0-2.17-2.17-1.79a5.82,5.82,0,0,0-2.42,1.19,12.56,12.56,0,0,0-2.69,3,23.48,23.48,0,0,0-2.47,5.11q.13-1.49.33-2.53T64,34.71a14,14,0,0,0,.5-2.49c0-.31-.09-.51-.27-.59a1.77,1.77,0,0,0-.93,0,4,4,0,0,0-1.92.79,3.17,3.17,0,0,0-1,1.59,29.25,29.25,0,0,0-1.22,7.85c-.66.87-1.21,1.55-1.65,2A3.17,3.17,0,0,1,56,45a.69.69,0,0,1-.65-.19A1,1,0,0,1,55.1,44a34.71,34.71,0,0,1,.77-5.48,26.94,26.94,0,0,0,.5-3.43q0-1.17-1.64-.88a8.65,8.65,0,0,0-1.47.39,2,2,0,0,0-.42-.94q-.25-.24-1-.11a8.88,8.88,0,0,0-4.36,2.22,13.59,13.59,0,0,0-3.29,4.42,12.26,12.26,0,0,0-1.23,5,12.15,12.15,0,0,1-1.19,1.23,4.46,4.46,0,0,1-2.15,1.11,2,2,0,0,1-1.82-.38,2.57,2.57,0,0,1-.65-2,15.84,15.84,0,0,1,.33-2.93l2-9.9A19.31,19.31,0,0,0,40,28.7a5.52,5.52,0,0,0-1.25-4,3.8,3.8,0,0,0-3.59-.87A9.09,9.09,0,0,0,30,26.76a20.29,20.29,0,0,0-3.9,7.3,16.52,16.52,0,0,0,.3-2.79,5.81,5.81,0,0,0-1.25-4.12,3.57,3.57,0,0,0-3.42-.93,9.28,9.28,0,0,0-5.21,3.07q-2.37,2.57-4.27,8.35.07-.31.2-1.1t.3-2a16.71,16.71,0,0,0,.17-2.15,4.47,4.47,0,0,0-1-3.23,3,3,0,0,0-2.82-.67,8.86,8.86,0,0,0-3.94,1.91A19.17,19.17,0,0,0,1.59,34.9a10.47,10.47,0,0,0-.72,1.38c-.43,1-.88,3.57,0,3.69s1.51-1.42,2-2.59a18,18,0,0,1,2.69-3.29,4.65,4.65,0,0,1,2.09-1.25q1.1-.19,1.1,1.31a34.63,34.63,0,0,1-.3,4.06q-.5,3.93-1.37,9.32-.5,2.93-.72,4.58a21.63,21.63,0,0,0-.22,2.69,2.65,2.65,0,0,0,.53,2A2.13,2.13,0,0,0,8.43,57a2.4,2.4,0,0,0,1.75-1,6.91,6.91,0,0,0,.68-2.49,75.79,75.79,0,0,1,2.75-13.25A23.84,23.84,0,0,1,17,33.14a6,6,0,0,1,3.37-2.45,1.51,1.51,0,0,1,1.45.34,2.59,2.59,0,0,1,.48,1.78A80.65,80.65,0,0,1,20.79,43.5q-.57,3.1-.93,5.39a24.19,24.19,0,0,0-.37,3.65A2.54,2.54,0,0,0,20,54.46a2,2,0,0,0,1.65.24,2.85,2.85,0,0,0,1.89-1,6.21,6.21,0,0,0,.82-2.83,74.16,74.16,0,0,1,2.52-12.59A25.46,25.46,0,0,1,30.15,31q1.72-2.32,3.29-2.6a1.3,1.3,0,0,1,1.29.36,2.49,2.49,0,0,1,.45,1.67,9.69,9.69,0,0,1-.1,1.37q-.1.7-.27,1.5l-.23,1.11-1.33,6.34a31.72,31.72,0,0,0-.8,5.85A5.34,5.34,0,0,0,34,50.83a5.08,5.08,0,0,0,4.44.9A8.37,8.37,0,0,0,42,50.14a13,13,0,0,0,1.69-1.53,3.85,3.85,0,0,0,.48.62,3.46,3.46,0,0,0,3.3.92q2.64-.46,4.37-3.58a3.58,3.58,0,0,0,1.39,1.81,2.74,2.74,0,0,0,2,.4,6,6,0,0,0,3-1.69c.4-.38.79-.79,1.18-1.22a4.83,4.83,0,0,0,.24.8,1.49,1.49,0,0,0,1.78,1A2.33,2.33,0,0,0,63,46.86a6.24,6.24,0,0,0,.85-2.27,28,28,0,0,1,1.3-4.1,19.55,19.55,0,0,1,1.62-3.24q.82-1.26,1.32-1.35t.37.47q0,.23-.07.91a5.37,5.37,0,0,0-.1,1,2.75,2.75,0,0,0,.92,2.27,3.26,3.26,0,0,0,2.69.43,6.34,6.34,0,0,0,2.47-1,11.59,11.59,0,0,0,.52,4,1.49,1.49,0,0,0,1.79,1,2.32,2.32,0,0,0,1.52-.82A6.23,6.23,0,0,0,79,41.91,34.11,34.11,0,0,1,80.18,38a21.13,21.13,0,0,1,1.49-3.33q.77-1.34,1.27-1.43c.24,0,.37.11.37.47s-.09,1.4-.27,2.85a30.28,30.28,0,0,0-.33,3.73,4.87,4.87,0,0,0,.55,2.46,1.46,1.46,0,0,0,1.65.76,2.41,2.41,0,0,0,1.55-.81,6.1,6.1,0,0,0,.85-2.29,28,28,0,0,1,1.3-4.1,20.32,20.32,0,0,1,1.6-3.24q.8-1.26,1.23-1.34c.24,0,.37.11.37.47a18.61,18.61,0,0,1-.43,3,22.25,22.25,0,0,0-.47,3.42,3.61,3.61,0,0,0,.87,2.7,2.82,2.82,0,0,0,2.57.53,7.7,7.7,0,0,0,3.76-1.8,17.43,17.43,0,0,0,1.48-1.45,4,4,0,0,0,.49.85,2.39,2.39,0,0,0,2.45,1A4.12,4.12,0,0,0,105,38.79a9.56,9.56,0,0,0,1.7-3.79,6,6,0,0,0,.75,3.34,2.14,2.14,0,0,0,2.35.82,7.69,7.69,0,0,0,3.76-1.8A17.45,17.45,0,0,0,114.88,36a5,5,0,0,0,.25.84,1.49,1.49,0,0,0,1.79,1,2.33,2.33,0,0,0,1.52-.82,6.25,6.25,0,0,0,.85-2.27,26.83,26.83,0,0,1,1.32-4.1,22.25,22.25,0,0,1,1.6-3.24q.78-1.26,1.22-1.33t.37.47a18.62,18.62,0,0,1-.43,3,22.22,22.22,0,0,0-.47,3.42,3.6,3.6,0,0,0,.87,2.7,2.82,2.82,0,0,0,2.57.53,7.7,7.7,0,0,0,3.76-1.8,17.56,17.56,0,0,0,1.72-1.72,4.67,4.67,0,0,0,.58.6q1.82,1.53,5.09,1a11.36,11.36,0,0,0,4.22-1.8,13.8,13.8,0,0,0,2.17-1.78,3.9,3.9,0,0,0,.56,1.6,1.42,1.42,0,0,0,1.52.48,2.32,2.32,0,0,0,1.52-.82,6.24,6.24,0,0,0,.85-2.27,28,28,0,0,1,1.3-4.1,20.34,20.34,0,0,1,1.6-3.24q.8-1.26,1.24-1.34t.37.47a33.34,33.34,0,0,1-.4,3.48,35.21,35.21,0,0,0-.47,4.49,2.17,2.17,0,0,0,.5,1.61,1.79,1.79,0,0,0,1.6.28,2.67,2.67,0,0,0,1.69-.85,3,3,0,0,0,.52-1.91,38.32,38.32,0,0,1,.2-4.09q.2-1.85.53-3.95a28,28,0,0,0,.37-3.34,1.87,1.87,0,0,0-.55-1.52,1.94,1.94,0,0,0-1.62-.27,5.84,5.84,0,0,0-2.42,1.19,12.46,12.46,0,0,0-2.67,3,23.77,23.77,0,0,0-2.45,5.06q0-1.83.1-3.59a58,58,0,0,0,6.41-9.59,16.67,16.67,0,0,0,2-7.34,5,5,0,0,0-1-3.25A2.4,2.4,0,0,0,153.25,0a3.22,3.22,0,0,0-.56.05"/></clipPath><linearGradient id="linear-gradient" x1="-861.35" y1="165.05" x2="-860.76" y2="165.05" gradientTransform="matrix(263.53, 0, 0, -263.53, 226988.83, 43523.04)" gradientUnits="userSpaceOnUse"><stop offset="0" stop-color="#f46ca4"/><stop offset="0.94" stop-color="#6790f4"/><stop offset="1" stop-color="#6790f4"/></linearGradient></defs><title>Asset 6</title><g id="Layer_2" data-name="Layer 2"><g id="Layer_1-2" data-name="Layer 1"><g class="cls-2"><rect class="cls-3" width="157.36" height="57.17"/></g></g></g></svg>