<svg xmlns="http://www.w3.org/2000/svg" xmlns:xlink="http://www.w3.org/1999/xlink" viewBox="0 0 36.99 60.53"><defs><style>.cls-1{fill:#fdd479;}.cls-2{fill:#d69b5f;}.cls-3{fill:url(#linear-gradient);}.cls-4{fill:url(#linear-gradient-2);}.cls-5{fill:#39b54a;}.cls-6{fill:url(#linear-gradient-3);}.cls-7{fill:url(#linear-gradient-4);}.cls-8{fill:url(#linear-gradient-5);}.cls-9{fill:url(#linear-gradient-6);}.cls-10{fill:none;stroke:#000;stroke-miterlimit:10;stroke-width:1.05px;}.cls-11{fill:#563a19;}.cls-12{fill:#2b1a0a;}.cls-13{fill:#7a5830;}.cls-14{fill:#7d5330;}.cls-15{fill:#b3b3b3;}.cls-16{fill:#fff;}.cls-17{fill:#fee8b6;opacity:0.62;}.cls-18{fill:url(#linear-gradient-7);}.cls-19{fill:url(#linear-gradient-8);}</style><linearGradient id="linear-gradient" x1="18.33" y1="18.45" x2="25.27" y2="18.45" gradientUnits="userSpaceOnUse"><stop offset="0" stop-color="#d69b5f"/><stop offset="1" stop-color="#7d5330"/></linearGradient><linearGradient id="linear-gradient-2" x1="-2135.07" y1="635.53" x2="-2135.07" y2="641.57" gradientTransform="translate(-2114.05 -633.65) rotate(-146.16)" gradientUnits="userSpaceOnUse"><stop offset="0" stop-color="#8cc63f"/><stop offset="1" stop-color="#39b54a"/></linearGradient><linearGradient id="linear-gradient-3" x1="-153.84" y1="-693.11" x2="-153.84" y2="-687.08" gradientTransform="matrix(0.83, -0.56, -0.56, -0.83, -234.02, -633.65)" xlink:href="#linear-gradient-2"/><linearGradient id="linear-gradient-4" x1="-277.36" y1="-1283.13" x2="-277.36" y2="-1276.8" gradientTransform="matrix(0.61, -0.67, -0.52, -0.47, -470.44, -768.79)" xlink:href="#linear-gradient-2"/><linearGradient id="linear-gradient-5" x1="-2004.41" y1="1172.38" x2="-2004.41" y2="1178.71" gradientTransform="matrix(-0.61, -0.67, 0.52, -0.47, -1826.58, -768.79)" xlink:href="#linear-gradient-2"/><linearGradient id="linear-gradient-6" x1="-2307.91" y1="-39.55" x2="-2307.91" y2="-31.64" gradientTransform="translate(-2288.83 -9.75) rotate(180)" xlink:href="#linear-gradient-2"/><linearGradient id="linear-gradient-7" x1="19.28" y1="29.36" x2="33.55" y2="37.6" gradientUnits="userSpaceOnUse"><stop offset="0" stop-color="#7d5330"/><stop offset="1" stop-color="#d69b5f"/></linearGradient><linearGradient id="linear-gradient-8" x1="-2112.79" y1="31.85" x2="-2122.93" y2="37.7" gradientTransform="matrix(-1, 0, 0, 1, -2106.99, 0)" gradientUnits="userSpaceOnUse"><stop offset="0" stop-color="#fdd479"/><stop offset="1" stop-color="#d69b5f"/></linearGradient></defs><title>Asset 7</title><g id="Layer_2" data-name="Layer 2"><g id="Layer_1-2" data-name="Layer 1"><path class="cls-1" d="M33.56,37.56c0-.29,0-.58,0-.89,0-7-5.88-17-14.76-17S4.61,28.05,2.66,34.47C1.67,37.76,0,46,0,49.64c0,10,8.14,10.1,18.19,10.1s18.19-1.21,18.19-11.26A24.66,24.66,0,0,0,33.56,37.56Z"/><path class="cls-2" d="M18.61,19.5l.25,16.37L19,59.75c10,0,18-1.21,18-11.26,0-1.53-.05-10.19-2.83-16.16C30.6,24.65,23.67,19.5,18.61,19.5Z"/><ellipse class="cls-1" cx="7.04" cy="8.82" rx="4.85" ry="1.94" transform="translate(-3.93 11.5) rotate(-65.18)"/><ellipse class="cls-2" cx="30.58" cy="9.33" rx="1.94" ry="4.6" transform="translate(-1.18 13.06) rotate(-23.66)"/><path class="cls-1" d="M34.36,18.64a8.55,8.55,0,0,0-1.74-5.26C31,5.9,25,0,18.34,0S6.18,6.38,4.82,14.06A8.57,8.57,0,0,0,3.16,19.2c0,3.58,2.06,6.6,4.85,7.49,2.51,2,6.17,2.62,10.32,2.62,4.32,0,8.37-.84,11.11-3.17C32.28,25.28,34.36,22.25,34.36,18.64Z"/><path class="cls-2" d="M18.41,29.32c4.28,0,8.33-.84,11.08-3.17,2.82-.87,4.89-3.9,4.89-7.51a8.53,8.53,0,0,0-1.71-5.26C31.06,5.9,25.22,0,18.41,0Z"/><path class="cls-2" d="M23.37,18.47a5.84,5.84,0,0,1,1-3.31c-1.4-2.11-3.56-3.63-5.65-3.63-2.35,0-4.78,1.9-6.14,4.4a5.85,5.85,0,0,1-.19,7c1.31,1.8,3.86,2.43,6.32,2.43s5.24-.65,6.49-2.62A5.85,5.85,0,0,1,23.37,18.47Z"/><path class="cls-3" d="M18.53,25.37c2.53,0,5.49-.65,6.74-2.62a6,6,0,0,1-.85-7.59,7.74,7.74,0,0,0-6.08-3.63Z"/><path class="cls-4" d="M18.29,23.57l-3.57-1.51s-2.11.64-2.06,5C12.66,27.06,17.6,26.18,18.29,23.57Z"/><path class="cls-5" d="M16.26,22.41l-1.78-.31s-1.87.59-1.83,5Z"/><path class="cls-6" d="M19.1,23.86l3.44-2s2.24,1.1,2.19,5.45C24.73,27.35,19.78,26.47,19.1,23.86Z"/><path class="cls-5" d="M21.12,22.7l1.42-.81s2.24,1.1,2.19,5.45Z"/><path class="cls-7" d="M21.7,23.34,23,22l1.46-.33s1.7-.38,2.12,3C26.56,24.6,22.52,25.18,21.7,23.34Z"/><path class="cls-5" d="M23.19,21.95l1.45-.76s1.5.06,1.93,3.42Z"/><path class="cls-8" d="M15.71,23.63l-3.13-2.38s-1.31.28-1.73,3.64C10.84,24.89,14.88,25.46,15.71,23.63Z"/><path class="cls-5" d="M14.21,22.24l-1.64-.83s-1.31.13-1.73,3.49Z"/><path class="cls-9" d="M22,22l-3.29-.15L16.19,22s-1.59,2.75,2.43,7.76C18.61,29.8,23.54,25.4,22,22Z"/><path class="cls-5" d="M18.8,21.89,16.38,22s-1.66,2.75,2.43,7.76Z"/><path class="cls-10" d="M18.51,18.33v3.25m.08,0c-2,.62-4.64.87-6.34-.33m6.17.34a7.72,7.72,0,0,0,6.48-.6"/><path class="cls-11" d="M14.8,15h7.12a0,0,0,0,1,0,0v0a3.43,3.43,0,0,1-3.43,3.43h-.27A3.42,3.42,0,0,1,14.8,15v0a0,0,0,0,1,0,0Z"/><path class="cls-12" d="M18.41,18.45h2.07a1.35,1.35,0,0,0,1.45-1.22V15H18.41Z"/><polygon class="cls-13" points="14.79 15.02 18.36 12.99 21.93 15.02 14.79 15.02"/><polygon class="cls-14" points="18.41 12.99 21.93 15.02 18.41 15.02 18.41 12.99"/><circle cx="26.3" cy="10.99" r="2.91"/><circle class="cls-15" cx="26.09" cy="10.24" r="0.75"/><circle class="cls-12" cx="10.93" cy="10.99" r="2.91"/><circle class="cls-16" cx="11.31" cy="10.24" r="0.75"/><ellipse class="cls-17" cx="19.39" cy="43.41" rx="7" ry="11.28"/><path class="cls-18" d="M30.75,42.44S20,38.16,20.8,36s.19-4.08-1.36-4.08c0,0-.19-1.56,1.36-1.36,0,0-.58-.78-1.56,0,0,0,.07-1.89,2.37-1.34,0,0-1.83-.41-2.29.07a2.08,2.08,0,0,1,2.84-1.07,2.79,2.79,0,0,1,1.75,4.08s.81.78,3.34-.39c0,0,1.94-.78,2.14-3.89"/><path class="cls-19" d="M6.63,42.44s10.73-4.28,10-6.42-.19-4.08,1.36-4.08c0,0,.19-1.56-1.36-1.36,0,0,.58-.78,1.56,0,0,0-.07-1.89-2.37-1.34,0,0,1.83-.41,2.29.07a2.08,2.08,0,0,0-2.84-1.07,2.79,2.79,0,0,0-1.75,4.08s-.81.78-3.34-.39c0,0-1.94-.78-2.14-3.89"/><path class="cls-2" d="M4.71,57.08a3.38,3.38,0,0,0-2.44,1.35A2.79,2.79,0,0,1,4.36,58s-.38.15-.92,1.51c0,0,2.07-.8,3-.42,0,0-.39.11-.39,1.19a8.05,8.05,0,0,1,3.72-.75S9.31,56,4.71,57.08Z"/><path class="cls-14" d="M30.68,57.28a3.38,3.38,0,0,1,2.44,1.35A2.79,2.79,0,0,0,31,58.24s.38.15.92,1.51c0,0-2.07-.8-3-.42,0,0,.39.11.39,1.19a8.05,8.05,0,0,0-3.72-.75S26.08,56.2,30.68,57.28Z"/></g></g></svg>