<svg xmlns="http://www.w3.org/2000/svg" xmlns:xlink="http://www.w3.org/1999/xlink" viewBox="0 0 427.99 493.68">
    <defs>
        <style>
            
            <![CDATA[
                @font-face {
                font-family: Roboto-Regular;
                src: url('https://fonts.googleapis.com/css?family=Roboto');
                }
            ]]>
            
            .cls-1,.cls-11{fill:none;}
            .cls-2{fill:#fdd479;}
            .cls-3{fill:#d69b5f;}
            .cls-4{fill:url(#linear-gradient);}
            .cls-5{fill:url(#linear-gradient-2);}
            .cls-6{fill:#39b54a;}.cls-7{fill:url(#linear-gradient-3);}
            .cls-8{fill:url(#linear-gradient-4);}
            .cls-9{fill:url(#linear-gradient-5);}
            .cls-10{fill:url(#linear-gradient-6);}
            .cls-11{stroke:#000;stroke-width:1.05px;}
            .cls-11,.cls-21{stroke-miterlimit:10;}
            .cls-12{fill:#563a19;}.cls-13{fill:#2b1a0a;}
            .cls-14{fill:#7a5830;}.cls-15{fill:#7d5330;}
            .cls-16{fill:#b3b3b3;}.cls-17{fill:#fff;}
            .cls-18{fill:#fee8b6;opacity:0.62;}
            .cls-19{fill:url(#linear-gradient-7);}
            .cls-20{fill:url(#linear-gradient-8);}
            .cls-21{fill:#83d0f2;stroke:#83d0f2;stroke-width:0.45px;}
            .cls-22{font-size:32.82px;fill:#f9f9f7;font-family:Roboto-Regular, Roboto;}
            .cls-23{letter-spacing:0.01em;}.cls-24{letter-spacing:0em;}
            .cls-25{clip-path:url(#clip-path);}
            .cls-26{fill:url(#linear-gradient-9);}
        </style>
        <linearGradient id="linear-gradient" x1="213.8" y1="207.99" x2="232.67" y2="207.99" gradientUnits="userSpaceOnUse">
            <stop offset="0" stop-color="#d69b5f"/>
            <stop offset="1" stop-color="#7d5330"/>
        </linearGradient>
        <linearGradient id="linear-gradient-2" x1="-371.24" y1="612.84" x2="-371.24" y2="629.25" gradientTransform="translate(-449.68 534.74) rotate(-146.16)" gradientUnits="userSpaceOnUse">
            <stop offset="0" stop-color="#8cc63f"/>
            <stop offset="1" stop-color="#39b54a"/>
        </linearGradient>
        <linearGradient id="linear-gradient-3" x1="257.86" y1="190.17" x2="257.86" y2="206.58" gradientTransform="matrix(0.83, -0.56, -0.56, -0.83, 121.41, 534.74)" xlink:href="#linear-gradient-2"/>
        <linearGradient id="linear-gradient-4" x1="245.64" y1="15.26" x2="245.64" y2="32.46" gradientTransform="matrix(0.61, -0.67, -0.52, -0.47, 92.4, 398.49)" xlink:href="#linear-gradient-2"/>
        <linearGradient id="linear-gradient-5" x1="-277.33" y1="758.07" x2="-277.33" y2="775.28" gradientTransform="matrix(-0.61, -0.67, 0.52, -0.47, -369.62, 398.49)" xlink:href="#linear-gradient-2"/>
        <linearGradient id="linear-gradient-6" x1="-484.84" y1="413.48" x2="-484.84" y2="434.99" gradientTransform="translate(-269.03 652.34) rotate(180)" xlink:href="#linear-gradient-2"/>
        <linearGradient id="linear-gradient-7" x1="216.37" y1="237.65" x2="255.18" y2="260.06" gradientUnits="userSpaceOnUse">
            <stop offset="0" stop-color="#7d5330"/>
            <stop offset="1" stop-color="#d69b5f"/>
        </linearGradient>
        <linearGradient id="linear-gradient-8" x1="-266.9" y1="244.43" x2="-294.46" y2="260.34" gradientTransform="matrix(-1, 0, 0, 1, -87.19, 0)" gradientUnits="userSpaceOnUse">
            <stop offset="0" stop-color="#fdd479"/>
            <stop offset="1" stop-color="#d69b5f"/>
        </linearGradient>
        <clipPath id="clip-path">
            <path class="cls-1" d="M129.38,125.81q-1.14-1.16-1.13-4a27.12,27.12,0,0,1,1.91-10,24.51,24.51,0,0,1,5.13-8.21,13.44,13.44,0,0,1,7-4.1L139,116.86a18.39,18.39,0,0,1-2.63,6.73q-1.82,2.68-3.81,3a5.19,5.19,0,0,1-.88.08,3,3,0,0,1-2.25-.89M405.89,28.08a91.28,91.28,0,0,1,3.86-13.3q2-5,3.63-5.31,1.18-.21,1.81,1.22a11.21,11.21,0,0,1,.64,4.34q0,6.36-3.68,14.81a82,82,0,0,1-9.3,16.08q1.18-9.56,3-17.83M415.28.14q-7.81,1.38-13.39,12.67a102.21,102.21,0,0,0-8.44,27,165.44,165.44,0,0,0-2.86,29.64c0,1.18,0,2.29,0,3.35a39.38,39.38,0,0,1-6.79,6.79,19.29,19.29,0,0,1-8,3.91q-9.17,1.62-9.17-8.91a23.22,23.22,0,0,1,1.09-7.18,16.51,16.51,0,0,1,2.91-5.55,6.68,6.68,0,0,1,3.9-2.55,1.91,1.91,0,0,1,1.68.34,2.21,2.21,0,0,1,.59,1.71,8.74,8.74,0,0,1-.45,2.62c-.06.25-.15.66-.27,1.23a7.29,7.29,0,0,0-.18,1.48,2.25,2.25,0,0,0,1,2.09,3.93,3.93,0,0,0,2.77.33,6.32,6.32,0,0,0,4.4-3.41,13.33,13.33,0,0,0,1.68-6.74q0-4.63-2.77-7.09t-7.76-1.58a21,21,0,0,0-9.71,4.71A28.57,28.57,0,0,0,358,64.8a30.56,30.56,0,0,0-2.91,13.4,23.49,23.49,0,0,0,.2,3c-1.17,1.48-2.19,2.69-3.06,3.61q-2.5,2.67-4.31,3-2.63.46-2.63-3.17A68.23,68.23,0,0,1,347,73.91q2-9.61,2-13.15,0-5.9-5.9-4.86a15.87,15.87,0,0,0-6.58,3.25,34.23,34.23,0,0,0-7.31,8.28,63.93,63.93,0,0,0-6.72,13.89,69.18,69.18,0,0,1,.91-6.88q.54-2.82,1.45-6.61A38.28,38.28,0,0,0,326.23,61q0-1.27-.73-1.6a4.86,4.86,0,0,0-2.54,0,11,11,0,0,0-5.22,2.15,8.65,8.65,0,0,0-2.68,4.33,79.67,79.67,0,0,0-3.33,21.35q-2.71,3.56-4.52,5.5-2.5,2.66-4.31,3a1.92,1.92,0,0,1-1.91-.62,3.77,3.77,0,0,1-.73-2.55q0-2.72,2.54-14.79,2.27-10.57,2.27-12.84,0-1.36-.82-1.72a5.71,5.71,0,0,0-2.91,0,8.46,8.46,0,0,0-4.49,2,8.89,8.89,0,0,0-2.22,4.3,129,129,0,0,1-4.49,14.41,49.64,49.64,0,0,1-4.36,9q-2,3.08-3.4,3.32a1.31,1.31,0,0,1-1.45-.52,5.13,5.13,0,0,1-.45-2.6q0-3.17,1.81-13,.54-2.82,1.45-6.34a41.59,41.59,0,0,0,1-5.08A2,2,0,0,0,284,67a4.16,4.16,0,0,0-2.77-.15A10.45,10.45,0,0,0,276,68.9a9.61,9.61,0,0,0-2.54,4.35,88.4,88.4,0,0,0-3,12.56,77.83,77.83,0,0,0-.84,9c-1.74,2.28-3.2,4.06-4.38,5.32q-2.5,2.67-4.31,3-2.63.46-2.63-3.17a68.33,68.33,0,0,1,1.72-10.74q2-9.61,2-13.15,0-5.9-5.9-4.86-4.81.85-10.35,6.91t-10.08,18q.27-1.68,1-5.08a62.41,62.41,0,0,0,1.73-10.83q0-3-1.32-4.22t-4.49-.66a14.82,14.82,0,0,0-6.76,3.6,35.76,35.76,0,0,0-7,8.54,60.23,60.23,0,0,0-5.85,13,66.44,66.44,0,0,1,.91-6.83q.54-2.78,1.45-6.57a38.11,38.11,0,0,0,1.36-6.78q0-1.27-.73-1.6a4.84,4.84,0,0,0-2.54,0,11,11,0,0,0-5.22,2.15,8.64,8.64,0,0,0-2.68,4.33,79.31,79.31,0,0,0-2.74,13.06,8.57,8.57,0,0,1-3.89,2.36q-2.27.4-2.27-2.78a36.24,36.24,0,0,1,.73-4.67,49,49,0,0,0,.82-5.86q0-5.9-5.9-4.86a15.84,15.84,0,0,0-6.58,3.25A34.15,34.15,0,0,0,178.44,94a63.86,63.86,0,0,0-6.72,13.89q.36-4.06.91-6.88t1.45-6.61a38.17,38.17,0,0,0,1.36-6.77c0-.85-.24-1.38-.73-1.6a4.82,4.82,0,0,0-2.54,0A11,11,0,0,0,167,88.18a8.63,8.63,0,0,0-2.68,4.33A79.56,79.56,0,0,0,161,113.86c-1.8,2.37-3.29,4.2-4.48,5.49q-2.45,2.66-4.18,3a1.87,1.87,0,0,1-1.77-.5,2.84,2.84,0,0,1-.68-2.06q0-4.09,2.09-14.89a73.26,73.26,0,0,0,1.36-9.32q0-3.18-4.45-2.39a23.52,23.52,0,0,0-4,1.07,5.42,5.42,0,0,0-1.13-2.57Q143,91,141,91.34a24.16,24.16,0,0,0-11.84,6,37,37,0,0,0-8.94,12A33.35,33.35,0,0,0,116.92,123a33.06,33.06,0,0,1-3.25,3.36,12.13,12.13,0,0,1-5.85,3,5.57,5.57,0,0,1-4.95-1q-1.77-1.59-1.77-5.41a43.09,43.09,0,0,1,.91-8L107.55,88a52.52,52.52,0,0,0,1.18-9.92q0-7.35-3.4-10.84t-9.76-2.36a24.72,24.72,0,0,0-14,7.91Q75.5,79.3,71,92.63A44.93,44.93,0,0,0,71.78,85q0-7.62-3.4-11.2T59.07,71.3q-7.71,1.36-14.16,8.35t-11.62,22.7q.18-.85.55-3t.82-5.55A45.46,45.46,0,0,0,35.1,88q0-6.08-2.68-8.79t-7.67-1.82A24.08,24.08,0,0,0,14,82.55c-3.57,2.84-6.81,7.8-9.71,12.37a28.47,28.47,0,0,0-1.95,3.75c-1.18,2.6-2.38,9.72-.1,10s4.1-3.87,5.5-7a49,49,0,0,1,7.31-9q3.32-3,5.67-3.41,3-.53,3,3.56a94.19,94.19,0,0,1-.82,11q-1.36,10.68-3.72,25.35-1.36,8-2,12.46a58.83,58.83,0,0,0-.59,7.32q0,4.18,1.45,5.42t4.81.65q3.54-.63,4.77-2.66a18.79,18.79,0,0,0,1.86-6.77q3-22.4,7.49-36t9.21-19.51q4.72-5.87,9.17-6.65a4.11,4.11,0,0,1,3.95.94q1.31,1.4,1.32,4.85,0,6.36-4.17,29.06Q55,126.76,54,133a65.78,65.78,0,0,0-1,9.94q0,4,1.41,5.2t4.49.66A7.74,7.74,0,0,0,64,146q1.59-2.14,2.22-7.7,2.63-20.8,6.85-34.25T82,84.28q4.67-6.31,8.94-7.07a3.55,3.55,0,0,1,3.5,1q1.23,1.38,1.23,4.55a26.36,26.36,0,0,1-.27,3.73q-.27,1.91-.73,4.08l-.64,3L90.39,110.8q-2.18,10.55-2.18,15.91,0,7.72,4.36,11.53t12.07,2.45a22.77,22.77,0,0,0,9.71-4.34,35.28,35.28,0,0,0,4.6-4.17,10.46,10.46,0,0,0,1.3,1.68q3.36,3.49,9,2.5,7.17-1.26,11.89-9.72a9.73,9.73,0,0,0,3.77,4.92,7.44,7.44,0,0,0,5.49,1.08q3.9-.69,8.08-4.6c1.09-1,2.16-2.14,3.2-3.31a13.13,13.13,0,0,0,.66,2.17,4,4,0,0,0,4.85,2.78,6.33,6.33,0,0,0,4.13-2.23,17,17,0,0,0,2.32-6.17,76.15,76.15,0,0,1,3.54-11.15,53.17,53.17,0,0,1,4.4-8.81q2.22-3.43,3.59-3.67,1-.17,1,1.28,0,.63-.18,2.48a14.6,14.6,0,0,0-.27,2.77q0,4.18,2.5,6.18t7.31,1.16a17.23,17.23,0,0,0,6.72-2.81c0,5.08.49,8.72,1.4,10.91a4.05,4.05,0,0,0,4.86,2.78,6.32,6.32,0,0,0,4.13-2.23,17,17,0,0,0,2.31-6.17,92.77,92.77,0,0,1,3.13-10.54,57.46,57.46,0,0,1,4-9.07q2.09-3.64,3.45-3.88c.67-.12,1,.31,1,1.28q0,1.82-.73,7.75a82.37,82.37,0,0,0-.91,10.14,13.24,13.24,0,0,0,1.5,6.68,4,4,0,0,0,4.49,2.07,6.55,6.55,0,0,0,4.22-2.2q1.31-1.68,2.31-6.22A76.15,76.15,0,0,1,241,98.87a55.27,55.27,0,0,1,4.36-8.8q2.18-3.43,3.36-3.63c.67-.12,1,.31,1,1.28a50.62,50.62,0,0,1-1.18,8.11,60.52,60.52,0,0,0-1.27,9.3q0,5.08,2.36,7.35t7,1.45A20.94,20.94,0,0,0,266.82,109a47.39,47.39,0,0,0,4-3.94,10.74,10.74,0,0,0,1.33,2.32,6.5,6.5,0,0,0,6.67,2.59q3.54-.63,6.63-4.48a26,26,0,0,0,4.63-10.3q0,6.08,2,9.08t6.4,2.23a20.92,20.92,0,0,0,10.21-4.89A47.47,47.47,0,0,0,312.44,98a13.52,13.52,0,0,0,.67,2.27,4.05,4.05,0,0,0,4.86,2.78,6.34,6.34,0,0,0,4.13-2.23,17,17,0,0,0,2.31-6.17A73,73,0,0,1,328,83.52a60.51,60.51,0,0,1,4.36-8.8q2.13-3.42,3.32-3.63,1-.17,1,1.28a50.64,50.64,0,0,1-1.18,8.11,60.44,60.44,0,0,0-1.27,9.3q0,5.09,2.36,7.34t7,1.45a20.93,20.93,0,0,0,10.21-4.89A47.77,47.77,0,0,0,358.46,89,12.69,12.69,0,0,0,360,90.63q4.95,4.17,13.84,2.6a30.91,30.91,0,0,0,11.48-4.88,37.54,37.54,0,0,0,5.91-4.85,10.6,10.6,0,0,0,1.53,4.35q1.31,1.81,4.13,1.31a6.32,6.32,0,0,0,4.13-2.23,17,17,0,0,0,2.31-6.17,76.29,76.29,0,0,1,3.54-11.15,55.32,55.32,0,0,1,4.36-8.8q2.18-3.42,3.36-3.63,1-.18,1,1.28a90.69,90.69,0,0,1-1.09,9.45,95.75,95.75,0,0,0-1.27,12.21q0,3.08,1.36,4.39t4.36.77a7.26,7.26,0,0,0,4.58-2.3,8.15,8.15,0,0,0,1.41-5.2,104.23,104.23,0,0,1,.54-11.13q.55-5,1.45-10.74a76.18,76.18,0,0,0,1-9.07q0-2.9-1.5-4.14t-4.4-.72a15.87,15.87,0,0,0-6.58,3.25,33.89,33.89,0,0,0-7.26,8.22,64.64,64.64,0,0,0-6.67,13.75q0-5,.27-9.76,12.07-15.29,17.43-26.09t5.36-20q0-5.72-2.59-8.85A6.52,6.52,0,0,0,416.81,0a8.75,8.75,0,0,0-1.53.14"/>
        </clipPath>
        <linearGradient id="linear-gradient-9" x1="84.67" y1="438.92" x2="86.29" y2="438.92" gradientTransform="matrix(263.53, 0, 0, -263.53, -22312.01, 115743.51)" gradientUnits="userSpaceOnUse">
            <stop offset="0" stop-color="#f46ca4"/>
            <stop offset="0.94" stop-color="#6790f4"/>
            <stop offset="1" stop-color="#6790f4"/>
        </linearGradient>
    </defs>
    <title>Asset 1</title>
    <g id="Layer_2" data-name="Layer 2">
        <g id="Layer_1-2" data-name="Layer 1">
            <path class="cls-2" d="M255.23,260c.06-.78.1-1.59.1-2.43,0-19.06-16-46.24-40.13-46.24s-38.73,22.81-44,40.26c-2.71,8.94-7.24,31.43-7.24,41.27,0,27.32,22.15,27.48,49.47,27.48s49.47-3.3,49.47-30.62C262.87,280,260.07,269.47,255.23,260Z"/>
            <path class="cls-3" d="M214.55,210.85l.68,44.51.38,64.94c27.32,0,48.94-3.3,48.94-30.62,0-4.15-.14-27.7-7.68-44C247.16,224.85,228.32,210.85,214.55,210.85Z"/>
            <ellipse class="cls-2" cx="183.07" cy="181.8" rx="13.2" ry="5.29" transform="translate(-58.79 271.63) rotate(-65.18)"/>
            <ellipse class="cls-3" cx="247.12" cy="183.19" rx="5.29" ry="12.51" transform="translate(-52.74 114.56) rotate(-23.66)"/>
            <path class="cls-2" d="M257.39,208.5a23.24,23.24,0,0,0-4.73-14.3c-4.37-20.36-20.69-36.4-38.84-36.4-18.31,0-33.06,17.34-36.78,38.24a23.31,23.31,0,0,0-4.5,14c0,9.75,5.6,17.94,13.2,20.38,6.83,5.4,16.77,7.13,28.07,7.13,11.76,0,22.75-2.3,30.23-8.61C251.72,226.56,257.39,218.31,257.39,208.5Z"/>
            <path class="cls-3" d="M214,237.54c11.64,0,22.65-2.3,30.12-8.61,7.68-2.37,13.3-10.62,13.3-20.43a23.2,23.2,0,0,0-4.65-14.3c-4.37-20.36-20.25-36.4-38.76-36.4Z"/>
            <path class="cls-3" d="M227.49,208a15.88,15.88,0,0,1,2.78-9c-3.82-5.73-9.68-9.86-15.36-9.86-6.4,0-13,5.16-16.69,12a15.9,15.9,0,0,1-.51,19.07c3.56,4.91,10.49,6.6,17.19,6.6,7,0,14.24-1.76,17.64-7.13A15.9,15.9,0,0,1,227.49,208Z"/>
            <path class="cls-4" d="M214.33,226.81c6.88,0,14.94-1.76,18.34-7.13A16.3,16.3,0,0,1,230.35,199c-3.82-5.73-10.2-9.86-16.55-9.86Z"/>
            <path class="cls-5" d="M213.67,221.9,204,217.8s-5.74,1.74-5.62,13.6C198.36,231.39,211.81,229,213.67,221.9Z"/>
            <path class="cls-6" d="M208.17,218.76l-4.84-.84s-5.1,1.62-5,13.47Z"/>
            <path class="cls-7" d="M215.89,222.69l9.35-5.35s6.09,3,6,14.83C231.2,232.18,217.75,229.79,215.89,222.69Z"/>
            <path class="cls-6" d="M221.39,219.55l3.85-2.2s6.09,3,6,14.83Z"/>
            <path class="cls-8" d="M223,221.3l3.49-3.77,4-.9s4.61-1,5.76,8.1C236.18,224.73,225.19,226.28,223,221.3Z"/>
            <path class="cls-6" d="M227,217.5l3.94-2.08s4.08.17,5.24,9.3Z"/>
            <path class="cls-9" d="M206.65,222.08l-8.52-6.46s-3.56.75-4.71,9.89C193.42,225.51,204.42,227.06,206.65,222.08Z"/>
            <path class="cls-6" d="M202.6,218.28,198.14,216s-3.56.35-4.71,9.49Z"/>
            <path class="cls-10" d="M223.65,217.75l-8.94-.4-6.74.4s-4.33,7.47,6.6,21.11C214.57,238.86,228,226.9,223.65,217.75Z"/>
            <path class="cls-6" d="M215.08,217.34l-6.6.4s-4.51,7.47,6.6,21.11Z"/>
            <path class="cls-11" d="M214.29,207.65v8.85m.23,0c-5.49,1.68-12.62,2.37-17.24-.89m16.79.93c4.39,1.66,12.07,2,17.63-1.63"/>
            <path class="cls-12" d="M204.18,198.66h19.36a0,0,0,0,1,0,0v5a4.37,4.37,0,0,1-4.37,4.37H207.6a3.42,3.42,0,0,1-3.42-3.42v-5.91A0,0,0,0,1,204.18,198.66Z"/>
            <path class="cls-13" d="M214,208h5.63c2.18,0,3.94-1.48,3.94-3.31v-6H214Z"/>
            <polygon class="cls-14" points="204.17 198.66 213.88 193.15 223.58 198.66 204.17 198.66"/>
            <polygon class="cls-15" points="214.02 193.15 223.58 198.66 214.02 198.66 214.02 193.15"/>
            <circle cx="235.47" cy="187.71" r="7.92"/>
            <circle class="cls-16" cx="234.9" cy="185.66" r="2.04"/>
            <circle class="cls-13" cx="193.67" cy="187.71" r="7.92"/>
            <circle class="cls-17" cx="194.69" cy="185.66" r="2.04"/>
            <ellipse class="cls-18" cx="216.67" cy="275.88" rx="19.04" ry="30.68"/>
            <path class="cls-19" d="M247.57,273.24s-29.18-11.64-27.06-17.45.53-11.11-3.7-11.11c0,0-.53-4.23,3.7-3.7,0,0-1.59-2.12-4.23,0,0,0,.2-5.15,6.45-3.63,0,0-5-1.12-6.24.2,0,0,1.91-5,7.73-2.91s6.88,7.4,4.76,11.11c0,0,2.2,2.12,9.08-1.06,0,0,5.29-2.12,5.82-10.58"/>
            <path class="cls-20" d="M182,273.24S211.16,261.6,209,255.78s-.53-11.11,3.7-11.11c0,0,.53-4.23-3.7-3.7,0,0,1.59-2.12,4.23,0,0,0-.2-5.15-6.45-3.63,0,0,5-1.12,6.24.2,0,0-1.91-5-7.73-2.91s-6.88,7.4-4.76,11.11c0,0-2.2,2.12-9.08-1.06,0,0-5.29-2.12-5.82-10.58"/>
            <path class="cls-3" d="M176.75,313.06a9.2,9.2,0,0,0-6.63,3.68,7.59,7.59,0,0,1,5.67-1.06s-1,.41-2.5,4.1c0,0,5.62-2.17,8.21-1.13,0,0-1.07.3-1.07,3.25,0,0,5.52-2.63,10.12-2C190.55,319.85,189.27,310.12,176.75,313.06Z"/>
            <path class="cls-15" d="M247.39,313.59a9.2,9.2,0,0,1,6.63,3.68,7.59,7.59,0,0,0-5.67-1.06s1,.41,2.5,4.1c0,0-5.62-2.17-8.21-1.13,0,0,1.07.3,1.07,3.25,0,0-5.52-2.63-10.12-2C233.59,320.37,234.88,310.64,247.39,313.59Z"/>
            <rect class="cls-21" x="145.24" y="372.88" width="137.16" height="51.55" rx="12.96" ry="12.96"/>
            <a href="./levels/levels.html"><text class="cls-22" id="play" transform="translate(172.53 408.13)">P<tspan class="cls-23" x="21.03" y="0">L</tspan>
                <tspan class="cls-24" x="39.06" y="0">AY</tspan>
            </text>
                </a>
            <rect class="cls-21" x="145.57" y="441.91" width="137.16" height="51.55" rx="12.96" ry="12.96"/>
            <text class="cls-22" transform="translate(163.08 477.16)">LEARN</text>
            <g class="cls-25">
                <rect class="cls-26" width="427.99" height="155.5"/>
            </g>
        </g>
    </g>
</svg>