<svg xmlns="http://www.w3.org/2000/svg" xmlns:xlink="http://www.w3.org/1999/xlink" viewBox="0 0 640 602"><defs><style>.cls-1{fill:url(#New_Gradient_Swatch);}.cls-17,.cls-2,.cls-7{fill:#fff;}.cls-3,.cls-4,.cls-5,.cls-6{fill:none;stroke-width:4px;}.cls-3,.cls-4{stroke:#fff;}.cls-27,.cls-28,.cls-3,.cls-30,.cls-31,.cls-32,.cls-4,.cls-51,.cls-55{stroke-linecap:round;}.cls-29,.cls-3,.cls-4,.cls-5,.cls-52,.cls-53,.cls-54,.cls-58,.cls-6{stroke-miterlimit:10;}.cls-4{stroke-dasharray:3.85 7.69;}.cls-5{stroke:#6790f4;}.cls-6{stroke:#f46ca4;}.cls-22,.cls-23,.cls-7{font-size:12px;}.cls-17,.cls-7{font-family:Roboto-Medium, Roboto;}.cls-8{letter-spacing:-0.03em;}.cls-12,.cls-9{letter-spacing:-0.01em;}.cls-10,.cls-11,.cls-12,.cls-13{font-size:30px;}.cls-11{letter-spacing:-0.1em;}.cls-13{letter-spacing:-0.06em;}.cls-14{font-size:38px;}.cls-15{letter-spacing:-0.03em;}.cls-16{letter-spacing:0.03em;}.cls-17{font-size:27px;}.cls-18{letter-spacing:-0.09em;}.cls-19{letter-spacing:0.01em;}.cls-20{letter-spacing:0.01em;}.cls-21{letter-spacing:-0.01em;}.cls-22{letter-spacing:2.75em;}.cls-24{font-size:21px;}.cls-25,.cls-36,.cls-43{font-size:16px;}.cls-25,.cls-33{fill:#6790f4;}.cls-25{font-family:Roboto-Light, Roboto;}.cls-26{letter-spacing:-0.01em;}.cls-27{fill:#467707;stroke:#406608;}.cls-27,.cls-28,.cls-30,.cls-31,.cls-32,.cls-51,.cls-55{stroke-linejoin:round;}.cls-27,.cls-28,.cls-29,.cls-30{stroke-width:0.88px;}.cls-28,.cls-29{fill:#1ca35f;stroke:#148248;}.cls-30{fill:#61c453;stroke:#428731;}.cls-31{fill:#f7931e;stroke-width:1.04px;}.cls-31,.cls-32{stroke:#e27407;}.cls-32{fill:#e27407;stroke-width:0.55px;}.cls-33{font-size:23px;font-family:Roboto-Regular, Roboto;}.cls-34{letter-spacing:-0.06em;}.cls-35{letter-spacing:-0.03em;}.cls-36,.cls-43{fill:#545454;}.cls-37{letter-spacing:-0.01em;}.cls-38{letter-spacing:-0.01em;}.cls-39{letter-spacing:-0.01em;}.cls-40{letter-spacing:-0.01em;}.cls-41,.cls-42,.cls-43{font-family:Roboto-Bold, Roboto;font-weight:700;}.cls-42{letter-spacing:-0.11em;}.cls-44{letter-spacing:-0.01em;}.cls-45{letter-spacing:-0.02em;}.cls-46{letter-spacing:0.02em;}.cls-47{letter-spacing:-0.01em;}.cls-48{letter-spacing:-0.02em;}.cls-49{letter-spacing:-0.01em;}.cls-50{fill:#009245;}.cls-51{fill:#39b54a;stroke:#39b54a;}.cls-51,.cls-52,.cls-53{stroke-width:0.2px;}.cls-52{fill:#8cc63f;stroke:#8cc63f;}.cls-53{fill:#f4f7dc;stroke:#f4f7dc;}.cls-54{fill:#6075a5;stroke:#494a5e;}.cls-54,.cls-55{stroke-width:0.71px;}.cls-55{fill:#44485c;stroke:#393a49;}.cls-56{fill:url(#linear-gradient);}.cls-57{fill:url(#linear-gradient-2);}.cls-58{fill:#ff0;stroke:#ad883d;stroke-width:0.69px;}.cls-59{fill:#f4d521;}</style><linearGradient id="New_Gradient_Swatch" y1="68.5" x2="640" y2="68.5" gradientUnits="userSpaceOnUse"><stop offset="0" stop-color="#f46ca4"/><stop offset="0.94" stop-color="#6790f4"/></linearGradient><linearGradient id="linear-gradient" x1="-30.94" y1="-1471.24" x2="19.67" y2="-1471.24" gradientTransform="matrix(0.66, -0.36, 0.38, 0.71, 1109.1, 1488.53)" gradientUnits="userSpaceOnUse"><stop offset="0.5" stop-color="#39b54a"/><stop offset="0.5" stop-color="#006837"/></linearGradient><linearGradient id="linear-gradient-2" x1="1091.92" y1="2248.83" x2="1130.21" y2="2248.83" gradientTransform="matrix(0.84, 0.55, -0.55, 0.84, 869.29, -2035.81)" xlink:href="#linear-gradient"/></defs><title>div1_1</title><g id="Layer_2" data-name="Layer 2"><g id="Layer_1-2" data-name="Layer 1"><rect class="cls-1" width="640" height="137"/><path class="cls-2" d="M294.62,45.54a3.53,3.53,0,0,0-2.95-.48,10.63,10.63,0,0,0-4.41,2.18,22.69,22.69,0,0,0-4.87,5.51A43.22,43.22,0,0,0,277.92,62q0-3.34.18-6.54a105.59,105.59,0,0,0,11.68-17.48,30.37,30.37,0,0,0,3.59-13.38,9.06,9.06,0,0,0-1.73-5.93,4.48,4.48,0,0,0-4.53-1.6q-5.23.92-9,8.49a68.52,68.52,0,0,0-5.66,18.06,110.84,110.84,0,0,0-1.92,19.87c0,.79,0,1.54,0,2.24A26.37,26.37,0,0,1,266,70.23a12.92,12.92,0,0,1-5.38,2.62q-6.15,1.08-6.14-6a15.55,15.55,0,0,1,.73-4.81,11.07,11.07,0,0,1,1.95-3.72,4.48,4.48,0,0,1,2.62-1.71,1.28,1.28,0,0,1,1.13.23,1.48,1.48,0,0,1,.39,1.15,5.89,5.89,0,0,1-.3,1.76q-.06.25-.18.82a4.85,4.85,0,0,0-.12,1,1.51,1.51,0,0,0,.7,1.4,2.63,2.63,0,0,0,1.85.22,4.24,4.24,0,0,0,3-2.28,8.93,8.93,0,0,0,1.13-4.52,6,6,0,0,0-1.85-4.75q-1.86-1.65-5.2-1.06a14.05,14.05,0,0,0-6.51,3.16,19.14,19.14,0,0,0-5,6.61,20.48,20.48,0,0,0-1.95,9,15.84,15.84,0,0,0,.14,2c-.79,1-1.47,1.8-2.05,2.42a5.93,5.93,0,0,1-2.89,2q-1.77.31-1.76-2.12a45.73,45.73,0,0,1,1.16-7.2,52.82,52.82,0,0,0,1.34-8.81q0-4-4-3.26a10.63,10.63,0,0,0-4.41,2.18,22.92,22.92,0,0,0-4.9,5.55,42.78,42.78,0,0,0-4.5,9.31q.24-2.72.61-4.61t1-4.43a25.62,25.62,0,0,0,.91-4.54q0-.85-.49-1.07a3.25,3.25,0,0,0-1.7,0,7.38,7.38,0,0,0-3.5,1.44,5.79,5.79,0,0,0-1.79,2.9,53.38,53.38,0,0,0-2.23,14.3q-1.81,2.38-3,3.69a5.92,5.92,0,0,1-2.89,2,1.29,1.29,0,0,1-1.28-.41A2.53,2.53,0,0,1,210,79a73.46,73.46,0,0,1,1.7-9.91,64.43,64.43,0,0,0,1.52-8.6q0-.91-.55-1.15a3.82,3.82,0,0,0-1.95,0,5.67,5.67,0,0,0-3,1.32,6,6,0,0,0-1.49,2.88,86.34,86.34,0,0,1-3,9.66,33.18,33.18,0,0,1-2.92,6.05Q199,81.29,198,81.46a.87.87,0,0,1-1-.35,3.44,3.44,0,0,1-.3-1.74A61.59,61.59,0,0,1,198,70.64q.37-1.89,1-4.25a27.84,27.84,0,0,0,.67-3.4,1.31,1.31,0,0,0-.52-1.19,2.78,2.78,0,0,0-1.86-.1,7,7,0,0,0-3.47,1.4,6.42,6.42,0,0,0-1.7,2.92,59.17,59.17,0,0,0-2,8.41,52.17,52.17,0,0,0-.56,6.06c-1.17,1.53-2.15,2.72-2.94,3.56a5.92,5.92,0,0,1-2.89,2q-1.77.31-1.76-2.12a45.73,45.73,0,0,1,1.16-7.2,52.82,52.82,0,0,0,1.34-8.81q0-4-4-3.26-3.23.57-6.94,4.63t-6.75,12.08q.18-1.13.67-3.4a41.79,41.79,0,0,0,1.16-7.26,3.74,3.74,0,0,0-.88-2.83q-.88-.82-3-.44a9.93,9.93,0,0,0-4.53,2.41,24,24,0,0,0-4.68,5.72,40.34,40.34,0,0,0-3.92,8.72,45.14,45.14,0,0,1,.61-4.58q.36-1.86,1-4.4a25.62,25.62,0,0,0,.91-4.54q0-.85-.49-1.07a3.25,3.25,0,0,0-1.7,0,7.38,7.38,0,0,0-3.5,1.44,5.79,5.79,0,0,0-1.79,2.9,53.28,53.28,0,0,0-1.83,8.75,5.74,5.74,0,0,1-2.61,1.58q-1.52.27-1.52-1.86a24.14,24.14,0,0,1,.49-3.13,32.74,32.74,0,0,0,.55-3.93q0-4-4-3.26a10.63,10.63,0,0,0-4.41,2.18,22.92,22.92,0,0,0-4.9,5.55,42.78,42.78,0,0,0-4.5,9.31q.24-2.72.61-4.61t1-4.43a25.62,25.62,0,0,0,.91-4.54q0-.85-.49-1.07a3.25,3.25,0,0,0-1.7,0A7.38,7.38,0,0,0,120.7,76a5.79,5.79,0,0,0-1.79,2.9,53.38,53.38,0,0,0-2.23,14.31q-1.8,2.38-3,3.68a5.78,5.78,0,0,1-2.8,2,1.25,1.25,0,0,1-1.19-.34,1.9,1.9,0,0,1-.46-1.38,63.26,63.26,0,0,1,1.4-10,49.06,49.06,0,0,0,.91-6.24q0-2.13-3-1.6a15.73,15.73,0,0,0-2.68.71,3.62,3.62,0,0,0-.76-1.72q-.46-.44-1.79-.2a16.21,16.21,0,0,0-7.94,4,24.76,24.76,0,0,0-6,8.05,22.34,22.34,0,0,0-2.24,9.08A22.4,22.4,0,0,1,85,101.57a8.15,8.15,0,0,1-3.92,2,3.74,3.74,0,0,1-3.32-.69,4.69,4.69,0,0,1-1.19-3.62,28.9,28.9,0,0,1,.61-5.34l3.71-18.05a35.21,35.21,0,0,0,.79-6.65q0-4.93-2.28-7.26T72.85,60.4a16.58,16.58,0,0,0-9.37,5.3Q59.41,70.07,56.37,79a30.09,30.09,0,0,0,.55-5.08q0-5.11-2.28-7.51t-6.24-1.7a16.9,16.9,0,0,0-9.49,5.6Q34.59,75,31.12,85.52q.12-.57.37-2T32,79.79a30.26,30.26,0,0,0,.3-3.92q0-4.08-1.79-5.89T25.4,68.77a16.14,16.14,0,0,0-7.18,3.49c-2.39,1.9-4.56,5.23-6.51,8.29a19.18,19.18,0,0,0-1.31,2.51c-.79,1.74-1.59,6.51-.07,6.73s2.75-2.6,3.69-4.72a32.68,32.68,0,0,1,4.9-6,8.48,8.48,0,0,1,3.8-2.28q2-.35,2,2.38a63.09,63.09,0,0,1-.55,7.4q-.91,7.16-2.49,17-.91,5.33-1.31,8.35a39.32,39.32,0,0,0-.4,4.91q0,2.8,1,3.63t3.22.44a4.37,4.37,0,0,0,3.19-1.78,12.57,12.57,0,0,0,1.25-4.54,138.24,138.24,0,0,1,5-24.15q3-9.14,6.17-13.07T46,72.87a2.76,2.76,0,0,1,2.65.63,4.73,4.73,0,0,1,.88,3.25q0,4.26-2.8,19.47-1,5.66-1.7,9.82a44.11,44.11,0,0,0-.67,6.66q0,2.68.94,3.48a3.59,3.59,0,0,0,3,.44,5.19,5.19,0,0,0,3.44-1.85,11.32,11.32,0,0,0,1.49-5.16,135.26,135.26,0,0,1,4.59-23q2.83-9,6-13.25t6-4.74a2.38,2.38,0,0,1,2.34.65,4.54,4.54,0,0,1,.82,3,17.64,17.64,0,0,1-.18,2.5q-.18,1.28-.49,2.73l-.43,2L69.38,91.18a57.83,57.83,0,0,0-1.46,10.66q0,5.17,2.92,7.73t8.09,1.65a15.28,15.28,0,0,0,6.51-2.91,23.61,23.61,0,0,0,3.09-2.8,7,7,0,0,0,.87,1.13,6.31,6.31,0,0,0,6,1.68q4.8-.85,8-6.52a6.53,6.53,0,0,0,2.52,3.3,5,5,0,0,0,3.68.72,11,11,0,0,0,5.41-3.08c.73-.69,1.44-1.43,2.15-2.22a8.8,8.8,0,0,0,.44,1.46,2.71,2.71,0,0,0,3.25,1.86,4.24,4.24,0,0,0,2.77-1.49,11.39,11.39,0,0,0,1.55-4.14,51.07,51.07,0,0,1,2.37-7.48,35.58,35.58,0,0,1,3-5.9q1.49-2.3,2.4-2.46.67-.12.67.86,0,.43-.12,1.66a9.78,9.78,0,0,0-.18,1.86,5,5,0,0,0,1.67,4.15q1.67,1.35,4.9.78a11.54,11.54,0,0,0,4.5-1.89,21.12,21.12,0,0,0,.94,7.31,2.71,2.71,0,0,0,3.25,1.86,4.24,4.24,0,0,0,2.77-1.49,11.39,11.39,0,0,0,1.55-4.14,62.13,62.13,0,0,1,2.1-7.06,38.39,38.39,0,0,1,2.71-6.07q1.4-2.44,2.31-2.6.67-.12.67.86,0,1.22-.49,5.2a55.1,55.1,0,0,0-.61,6.8,8.88,8.88,0,0,0,1,4.48,2.66,2.66,0,0,0,3,1.39,4.39,4.39,0,0,0,2.83-1.47,11.13,11.13,0,0,0,1.55-4.17,51,51,0,0,1,2.37-7.48,37.18,37.18,0,0,1,2.92-5.9q1.46-2.29,2.25-2.43t.67.86a33.91,33.91,0,0,1-.79,5.43,40.64,40.64,0,0,0-.85,6.23q0,3.41,1.58,4.92t4.68,1A14,14,0,0,0,187.61,90a31.68,31.68,0,0,0,2.7-2.64,7.27,7.27,0,0,0,.89,1.55,4.35,4.35,0,0,0,4.47,1.74,7.5,7.5,0,0,0,4.44-3,17.44,17.44,0,0,0,3.1-6.9q0,4.08,1.37,6.09t4.29,1.49A14,14,0,0,0,215.72,85a31.55,31.55,0,0,0,2.47-2.4,9,9,0,0,0,.45,1.52A2.71,2.71,0,0,0,221.89,86a4.24,4.24,0,0,0,2.77-1.49,11.39,11.39,0,0,0,1.55-4.14,49,49,0,0,1,2.4-7.48,40.58,40.58,0,0,1,2.92-5.9q1.43-2.29,2.22-2.43t.67.86a33.91,33.91,0,0,1-.79,5.43,40.59,40.59,0,0,0-.85,6.23q0,3.41,1.58,4.92T239,83a14,14,0,0,0,6.84-3.27A32.12,32.12,0,0,0,249,76.57a8.54,8.54,0,0,0,1.06,1.09q3.31,2.79,9.28,1.74a20.7,20.7,0,0,0,7.7-3.27,25,25,0,0,0,4-3.25,7.11,7.11,0,0,0,1,2.92,2.58,2.58,0,0,0,2.77.88,4.24,4.24,0,0,0,2.77-1.49A11.39,11.39,0,0,0,279.14,71a51,51,0,0,1,2.37-7.48,37.17,37.17,0,0,1,2.92-5.9q1.46-2.29,2.25-2.43t.67.86a60.68,60.68,0,0,1-.73,6.33,64.22,64.22,0,0,0-.85,8.18,4,4,0,0,0,.91,2.94,3.26,3.26,0,0,0,2.92.52,4.87,4.87,0,0,0,3.07-1.55,5.46,5.46,0,0,0,.94-3.48,69.8,69.8,0,0,1,.36-7.46q.37-3.38,1-7.2a51,51,0,0,0,.67-6.08A3.41,3.41,0,0,0,294.62,45.54Zm-13.81-9.79a61.33,61.33,0,0,1,2.59-8.91q1.34-3.37,2.43-3.56.79-.14,1.22.82a7.53,7.53,0,0,1,.43,2.91A25.5,25.5,0,0,1,285,36.92a55,55,0,0,1-6.24,10.77Q279.56,41.29,280.81,35.74ZM101.93,95.24a12.32,12.32,0,0,1-1.76,4.51,4.2,4.2,0,0,1-2.56,2,2.22,2.22,0,0,1-2.1-.54,3.75,3.75,0,0,1-.76-2.66A18.18,18.18,0,0,1,96,91.9a16.41,16.41,0,0,1,3.44-5.5,9,9,0,0,1,4.71-2.75Z"/><line class="cls-3" x1="320" y1="19" x2="320" y2="21"/><line class="cls-4" x1="320" y1="28.69" x2="320" y2="117.15"/><line class="cls-3" x1="320" y1="121" x2="320" y2="123"/><line class="cls-5" x1="575" y1="184" x2="45" y2="184"/><line class="cls-6" x1="581" y1="600" x2="51" y2="600"/><text class="cls-7" transform="translate(332.5 40.5)">GUIDE<tspan class="cls-8" x="34" y="0"> </tspan><tspan class="cls-9" x="36.64" y="0">T</tspan><tspan x="43.76" y="0">O </tspan><tspan class="cls-10" x="55.03" y="0">HEA</tspan><tspan class="cls-11" x="113.27" y="0">L</tspan><tspan class="cls-10" x="126.5" y="0">T</tspan><tspan class="cls-12" x="144.71" y="0">H</tspan><tspan class="cls-10" x="165.61" y="0">Y E</tspan><tspan class="cls-13" x="208.33" y="0">A</tspan><tspan class="cls-10" x="226.54" y="0">TING</tspan><tspan class="cls-14"><tspan class="cls-15" x="0" y="30">L</tspan><tspan x="19.37" y="30">OCAL PRODUCE</tspan><tspan class="cls-16" x="295.85" y="30"></tspan></tspan></text><text class="cls-17" transform="translate(333.2 116) scale(2.15)">&amp;</text><text class="cls-17" transform="translate(370.28 93.5)"><tspan class="cls-18">F</tspan><tspan x="12.3" y="0">ARMER’S </tspan><tspan class="cls-19" x="131.74" y="0">M</tspan><tspan x="155.62" y="0">ARK</tspan><tspan class="cls-20" x="207.46" y="0">E</tspan><tspan class="cls-21" x="222.99" y="0">T</tspan><tspan x="239.16" y="0">S</tspan><tspan class="cls-22" x="-37.78" y="22">	</tspan><tspan class="cls-23" x="-1.78" y="22"> </tspan><tspan class="cls-24" x="1.21" y="22">MORE...</tspan></text><text class="cls-25" transform="translate(235.5 167)"><tspan class="cls-26">b</tspan><tspan x="8.78" y="0">y Camille and Nicola</tspan></text><polygon class="cls-27" points="570.25 212.38 570.78 209.24 562.64 210.19 556.85 225.76 551.75 211.06 543.37 210.12 544.36 217.58 556.74 235.65 570.25 212.38"/><path class="cls-28" d="M548.87,237.87c-1.09-3.84-2.34-9.05-3.58-10.9s-6.7-7.78-6.7-7.78l5.51-.42,1.42-6.5s6.47,7.55,8.26,14.23,3,11.51,3,11.51Z"/><path class="cls-29" d="M556.75,238s4.52-15.43,7.64-19.16,5.86-6.47,5.86-6.47l-.62,6.7,5.86.23s-7.31,8.06-8.06,12.35-1.1,9.1-1.1,9.1Z"/><path class="cls-30" d="M556.85,225.76,549,203.11a12.24,12.24,0,0,0,7.9,3.2,12,12,0,0,0,8.41-3.31Z"/><path class="cls-31" d="M582,258.33h0a22.78,22.78,0,0,0-45.55-.05h0L559.11,328,582,258.33h0Z"/><polygon class="cls-32" points="581.96 258.33 566.51 258.31 580.3 263.38 581.96 258.33"/><polygon class="cls-32" points="542.04 275.57 553.05 275.58 543.15 279 542.04 275.57"/><polygon class="cls-32" points="569.12 297.47 560.9 300.24 568.21 300.25 569.12 297.47"/><polygon class="cls-32" points="545.1 284.96 560.92 282.43 547.53 290.71 545.1 284.96"/><text class="cls-33" transform="translate(49 228.25)">E<tspan class="cls-34" x="13.07" y="0">A</tspan><tspan x="26.63" y="0">TING </tspan><tspan class="cls-35" x="84.36" y="0">L</tspan><tspan x="96.01" y="0">OCAL</tspan><tspan class="cls-36"><tspan x="8" y="22">What </tspan><tspan class="cls-37" x="48.9" y="22">y</tspan><tspan x="56.35" y="22">ou choose </tspan><tspan class="cls-38" x="134.38" y="22">t</tspan><tspan x="139.45" y="22">o eat and whe</tspan><tspan class="cls-39" x="238.73" y="22">r</tspan><tspan x="244" y="22">e </tspan><tspan class="cls-37" x="256.44" y="22">y</tspan><tspan x="263.89" y="22">ou buy it f</tspan><tspan class="cls-38" x="333.75" y="22">r</tspan><tspan x="339.01" y="22">om ma</tspan><tspan class="cls-38" x="388.84" y="22">k</tspan><tspan x="396.8" y="22">es a </tspan><tspan x="8" y="44">huge dif</tspan><tspan class="cls-40" x="65.51" y="44">f</tspan><tspan x="70.88" y="44">e</tspan><tspan class="cls-39" x="79.35" y="44">r</tspan><tspan x="84.62" y="44">ence! He</tspan><tspan class="cls-39" x="146.73" y="44">r</tspan><tspan x="152" y="44">e a</tspan><tspan class="cls-39" x="173.14" y="44">r</tspan><tspan x="178.41" y="44">e the </tspan><tspan class="cls-41" x="217.32" y="44">3 E</tspan><tspan class="cls-42" x="239.48" y="44">’</tspan><tspan class="cls-41" x="241.34" y="44">s</tspan><tspan x="249.57" y="44" xml:space="preserve"> of eating local:</tspan></tspan><tspan class="cls-43"><tspan x="0" y="70">ENVIRONME</tspan><tspan class="cls-44" x="90.99" y="70">N</tspan><tspan class="cls-8" x="102.06" y="70">T</tspan></tspan><tspan class="cls-36"><tspan x="8" y="92">Less t</tspan><tspan class="cls-45" x="50.77" y="92">r</tspan><tspan x="55.88" y="92">anspo</tspan><tspan class="cls-46" x="99.76" y="92">r</tspan><tspan x="105.56" y="92">t costs</tspan><tspan x="8" y="118">Sustainable farming p</tspan><tspan class="cls-45" x="163.52" y="118">r</tspan><tspan x="168.63" y="118">actices</tspan><tspan x="8" y="144">Less pesticides</tspan></tspan><tspan class="cls-43"><tspan x="0" y="170">ECONO</tspan><tspan class="cls-9" x="52.86" y="170">M</tspan><tspan x="66.66" y="170">Y:</tspan></tspan><tspan class="cls-36"><tspan x="8" y="192">Mon</tspan><tspan class="cls-47" x="39.92" y="192">e</tspan><tspan x="48.3" y="192">y st</tspan><tspan class="cls-37" x="73.3" y="192">a</tspan><tspan x="81.89" y="192">ys in local economy</tspan><tspan x="8" y="218">P</tspan><tspan class="cls-39" x="18.09" y="218">r</tspan><tspan x="23.36" y="218">ese</tspan><tspan class="cls-19" x="48.56" y="218">r</tspan><tspan class="cls-47" x="54.12" y="218">v</tspan><tspan x="61.77" y="218">es agricultu</tspan><tspan class="cls-39" x="144.55" y="218">r</tspan><tspan x="149.82" y="218">e jobs</tspan><tspan class="cls-48" x="8" y="244">F</tspan><tspan x="16.58" y="244">arm wor</tspan><tspan class="cls-38" x="75.24" y="244">k</tspan><tspan x="83.2" y="244">ers su</tspan><tspan class="cls-19" x="126.37" y="244">r</tspan><tspan x="131.92" y="244">vi</tspan><tspan class="cls-47" x="143.55" y="244">v</tspan><tspan x="151.2" y="244">e</tspan></tspan><tspan class="cls-43"><tspan class="cls-20" x="0" y="270">E</tspan><tspan x="9.16" y="270">THICS:</tspan></tspan><tspan class="cls-36"><tspan class="cls-49" x="8" y="292">F</tspan><tspan x="16.68" y="292">ood security</tspan><tspan x="8" y="318">Humane t</tspan><tspan class="cls-39" x="77.45" y="318">r</tspan><tspan x="82.71" y="318">eatment of animals</tspan><tspan class="cls-48" x="8" y="344">F</tspan><tspan x="16.58" y="344">arm wor</tspan><tspan class="cls-38" x="75.24" y="344">k</tspan><tspan x="83.2" y="344">ers a</tspan><tspan class="cls-39" x="118" y="344">r</tspan><tspan x="123.27" y="344">e unioni</tspan><tspan class="cls-21" x="179.07" y="344">z</tspan><tspan x="186.88" y="344">ed</tspan></tspan></text><circle class="cls-50" cx="557.41" cy="376.44" r="29.49" transform="translate(-1.02 1.51) rotate(-0.15)"/><path class="cls-51" d="M585.54,367.55c.2,1,6.32,19-6,30.3-10.17,9.36-26.38,10.62-39.25,2.53a11.62,11.62,0,0,1,2-8.61c3.82-5.12,9.9-3.58,14.74-8.61s2.64-9.41,6.44-13.43C566.59,366.45,570.06,363.29,585.54,367.55Z"/><path class="cls-52" d="M568.59,398.54a5.68,5.68,0,0,1-4.27,6.17,29.18,29.18,0,0,1-36.72-27c-.53-12.85,7.59-23.71,17.92-28.22a29.07,29.07,0,0,1,12.57-2.38,5.71,5.71,0,0,1,5.11,8,9.65,9.65,0,0,0-.9,3.46c-.36,5.77,5.07,8,4.6,13.95-.45,5.66-5.64,6.52-5.23,11.46.34,4.07,4,4.87,6,10.66A18.42,18.42,0,0,1,568.59,398.54Z"/><path class="cls-53" d="M544.43,374.17a10.3,10.3,0,0,0,3.26,3.05c5.15,3,10.95.08,11.45-.18-.46.17-6.56,2.25-10.72-1.3a8.55,8.55,0,0,1-2.08-2.67c5.26-2.77,10.92-3.9,13.29-4.7-3.69.6-11.55,1.19-18.15,3.92a8.65,8.65,0,0,1,.18-1.94c1.09-5.19,6.61-7.42,7.27-7.68-.89.26-7.22,2.24-9,7.85a9.79,9.79,0,0,0-.44,2.68c-.56.28-1.11.58-1.63.91a49.21,49.21,0,0,0-6.09,4.41,24.33,24.33,0,0,1,.67-3,25.87,25.87,0,0,1,7.41-11.7,27.82,27.82,0,0,0-8.85,11.5,26.57,26.57,0,0,0-1.51,5.24c-.57.54-1.1,1.07-1.59,1.58a28.77,28.77,0,0,0,3.78,9.41,39.09,39.09,0,0,1,4.84-9.55,28.73,28.73,0,0,0,4.38,1.48,31.13,31.13,0,0,0,18-1.09c-2.49.74-10.34,2.74-17.83-1.29a19.9,19.9,0,0,1-2.58-1.66c.4-.48.81-1,1.25-1.45A22.3,22.3,0,0,1,544.43,374.17Z"/><circle class="cls-54" cx="554.24" cy="550.59" r="29.76"/><polygon class="cls-55" points="570.18 553.05 562.23 559.51 565.99 569.04 556.42 565.39 550.05 573.4 548.43 563.29 538.3 561.78 546.25 555.32 542.49 545.8 552.06 549.45 558.43 541.43 560.05 551.54 570.18 553.05"/><path class="cls-56" d="M554.25,477.66c-9.41,5.1-18.74,5.84-22.66-5.86s11.75-3.78,7-12.46S524,463.81,524,451.73s13.82-1.45,9.84-8.79-17.91-7.58-6-14,8.64,4,10.64,10.65,8.92-13.48,16.53.54-7.16,4.75-3.81,12.44,9.67-6.11,17.28,7.92C573.16,469.13,563.65,472.56,554.25,477.66Z"/><path class="cls-57" d="M556.63,475.85c-9-5.87-14.25-13.56-6.19-22s9,8.45,14.11.65-11-10.61-.76-15.88,8.06,11.24,12.36,4.64-2.38-18.65,9-11.22.89,9.13-3.83,13.75,15.91,1.82,7.7,14.42-7.59-4.09-12.49,2.12,10,5.66,1.78,18.26C573.25,488.39,565.63,481.72,556.63,475.85Z"/><polygon class="cls-58" points="556.71 453.96 558.91 457.57 561.99 454.69 563.13 458.75 566.88 456.81 566.88 461.03 571.01 460.18 569.88 464.24 574.08 464.53 571.89 468.13 575.87 469.55 572.79 472.43 576.23 474.87 572.49 476.81 575.15 480.08 571.02 480.94 572.7 484.81 568.49 484.53 569.06 488.71 565.08 487.3 564.51 491.48 561.06 489.05 559.38 492.91 556.71 489.64 554.05 492.91 552.36 489.05 548.92 491.48 548.34 487.3 544.37 488.71 544.93 484.53 540.73 484.81 542.4 480.94 538.28 480.08 540.93 476.81 537.19 474.87 540.64 472.43 537.56 469.55 541.53 468.13 539.34 464.53 543.55 464.24 542.41 460.18 546.54 461.03 546.55 456.81 550.29 458.75 551.43 454.69 554.52 457.57 556.71 453.96"/><polygon class="cls-59" points="556.82 462.57 557.79 466.34 559.74 462.98 559.66 466.86 562.45 464.15 561.33 467.87 564.74 466.01 562.65 469.3 566.45 468.43 563.55 471.02 567.43 471.21 563.95 472.93 567.64 474.16 563.81 474.87 567.04 477.05 563.16 476.7 565.68 479.67 562.04 478.29 563.66 481.83 560.53 479.52 561.14 483.36 558.75 480.3 558.29 484.16 556.82 480.56 555.34 484.16 554.89 480.3 552.5 483.36 553.11 479.52 549.97 481.83 551.6 478.29 547.96 479.67 550.47 476.7 546.6 477.05 549.82 474.87 546 474.16 549.69 472.93 546.2 471.21 550.09 471.02 547.19 468.43 550.98 469.3 548.89 466.01 552.31 467.87 551.18 464.15 553.97 466.86 553.89 462.98 555.85 466.34 556.82 462.57"/></g></g></svg>