<svg xmlns="http://www.w3.org/2000/svg" xmlns:xlink="http://www.w3.org/1999/xlink" viewBox="0 0 220.99 56.94">
    <defs>
        <style>
            .cls-1{fill:#467707;stroke:#406608;}.cls-1,.cls-12,.cls-2,.cls-4,.cls-5,.cls-6,.cls-8{stroke-linecap:round;stroke-linejoin:round;}.cls-1,.cls-2,.cls-3,.cls-4{stroke-width:0.4px;}.cls-2,.cls-3{fill:#1ca35f;stroke:#148248;}.cls-10,.cls-11,.cls-15,.cls-3,.cls-9{stroke-miterlimit:10;}.cls-4{fill:#61c453;stroke:#428731;}.cls-5{fill:#f7931e;stroke-width:0.47px;}.cls-5,.cls-6{stroke:#e27407;}.cls-6{fill:#e27407;stroke-width:0.25px;}.cls-7{fill:#009245;}.cls-8{fill:#39b54a;stroke:#39b54a;}.cls-10,.cls-8,.cls-9{stroke-width:0.14px;}.cls-9{fill:#8cc63f;stroke:#8cc63f;}.cls-10{fill:#f4f7dc;stroke:#f4f7dc;}.cls-11{fill:#6075a5;stroke:#494a5e;}.cls-11,.cls-12{stroke-width:0.46px;}.cls-12{fill:#44485c;stroke:#393a49;}.cls-13{fill:url(#linear-gradient);}.cls-14{fill:url(#linear-gradient-2);}.cls-15{fill:#ff0;stroke:#ad883d;stroke-width:0.41px;}.cls-16{fill:#f4d521;}
        </style>
        <linearGradient id="linear-gradient" x1="-817.31" y1="-2012.29" x2="-786.82" y2="-2012.29" gradientTransform="matrix(0.66, -0.36, 0.38, 0.71, 1375.78, 1155.61)" gradientUnits="userSpaceOnUse">
            <stop offset="0.5" stop-color="#39b54a"/>
            <stop offset="0.5" stop-color="#006837"/>
        </linearGradient>
        <linearGradient id="linear-gradient-2" x1="909.54" y1="1895.83" x2="932.61" y2="1895.83" gradientTransform="matrix(0.84, 0.55, -0.55, 0.84, 355.92, -2065.78)" xlink:href="#linear-gradient"/>
    </defs>
    <title>food</title>
    <g id="Layer_2" data-name="Layer 2">
        <g id="food">
            <polygon class="cls-1" points="215.46 4.44 215.69 3.02 212.02 3.45 209.4 10.49 207.1 3.84 203.31 3.42 203.76 6.79 209.35 14.96 215.46 4.44"/>
            <path class="cls-2" d="M205.79,16A25.89,25.89,0,0,0,204.18,11c-.56-.83-3-3.52-3-3.52l2.49-.19.64-2.94s2.92,3.41,3.74,6.43,1.34,5.2,1.34,5.2Z"/>
            <path class="cls-3" d="M209.36,16s2-7,3.45-8.66,2.65-2.92,2.65-2.92l-.28,3,2.65.11s-3.3,3.64-3.64,5.58-.5,4.11-.5,4.11Z"/>
            <path class="cls-4" d="M209.4,10.49,205.85.25a5.53,5.53,0,0,0,3.57,1.44,5.42,5.42,0,0,0,3.8-1.5Z"/>
            <path class="cls-5" d="M220.75,25.21h0a10.29,10.29,0,0,0-20.59,0h0L210.42,56.7l10.33-31.49h0Z"/>
            <polygon class="cls-6" points="220.75 25.21 213.77 25.2 220 27.49 220.75 25.21"/>
            <polygon class="cls-6" points="202.71 33 207.69 33.01 203.21 34.55 202.71 33"/>
            <polygon class="cls-6" points="214.95 42.9 211.23 44.15 214.54 44.16 214.95 42.9"/>
            <polygon class="cls-6" points="204.09 37.25 211.24 36.1 205.19 39.85 204.09 37.25"/>
            <circle class="cls-7" cx="151.09" cy="28.45" r="20.48" transform="translate(-0.08 0.41) rotate(-0.15)"/>
            <path class="cls-8" d="M170.63,22.28c.14.73,4.39,13.2-4.14,21-7.06,6.5-18.32,7.38-27.26,1.76a8.07,8.07,0,0,1,1.36-6c2.65-3.56,6.88-2.49,10.24-6s1.83-6.53,4.47-9.33C157.46,21.52,159.88,19.32,170.63,22.28Z"/>
            <path class="cls-9" d="M158.86,43.8a3.94,3.94,0,0,1-3,4.28,20.26,20.26,0,0,1-25.5-18.78A20.73,20.73,0,0,1,142.83,9.7a20.19,20.19,0,0,1,8.73-1.65,4,4,0,0,1,3.55,5.56,6.7,6.7,0,0,0-.63,2.41c-.25,4,3.52,5.57,3.2,9.69-.31,3.93-3.92,4.53-3.64,8,.23,2.83,2.75,3.38,4.17,7.4A12.79,12.79,0,0,1,158.86,43.8Z"/>
            <path class="cls-10" d="M142.08,26.87A7.15,7.15,0,0,0,144.35,29c3.58,2.08,7.6.06,8-.13-.32.12-4.55,1.56-7.45-.9a5.93,5.93,0,0,1-1.44-1.85c3.66-1.92,7.58-2.71,9.23-3.26-2.56.41-8,.83-12.61,2.72a6,6,0,0,1,.12-1.35c.75-3.61,4.59-5.16,5-5.33-.62.18-5,1.55-6.24,5.45a6.8,6.8,0,0,0-.31,1.86c-.39.2-.77.41-1.13.63a34.17,34.17,0,0,0-4.23,3.06,16.9,16.9,0,0,1,.47-2.07,18,18,0,0,1,5.15-8.13,19.32,19.32,0,0,0-6.14,8,18.45,18.45,0,0,0-1.05,3.64c-.39.38-.76.75-1.1,1.1A20,20,0,0,0,133.24,39a27.15,27.15,0,0,1,3.36-6.63,20,20,0,0,0,3,1,21.61,21.61,0,0,0,12.48-.76c-1.73.52-7.18,1.9-12.38-.9A13.82,13.82,0,0,1,138,30.54c.28-.34.56-.67.87-1A15.49,15.49,0,0,1,142.08,26.87Z"/>
            <circle class="cls-11" cx="19.49" cy="28.45" r="19.26"/>
            <polygon class="cls-12" points="29.81 30.04 24.66 34.22 27.09 40.39 20.9 38.03 16.78 43.21 15.73 36.67 9.18 35.69 14.32 31.51 11.89 25.35 18.08 27.71 22.2 22.52 23.25 29.07 29.81 30.04"/>
            <path class="cls-13" d="M81.61,39.15C75.94,42.23,70.32,42.67,68,35.62S75,33.35,72.2,28.12s-8.81,2.69-8.84-4.58,8.33-.87,5.93-5.3S58.5,13.67,65.68,9.78s5.2,2.38,6.41,6.42,5.37-8.12,10,.33S77.74,19.39,79.76,24s5.83-3.68,10.41,4.77C93,34,87.28,36.08,81.61,39.15Z"/>
            <path class="cls-14" d="M83,38.07c-5.42-3.53-8.58-8.17-3.73-13.25s5.44,5.09,8.5.39-6.65-6.39-.46-9.57,4.86,6.77,7.45,2.79-1.43-11.23,5.43-6.76.54,5.5-2.31,8.28,9.59,1.1,4.64,8.69S98,26.18,95,29.92s6,3.41,1.07,11C93.06,45.62,88.47,41.6,83,38.07Z"/>
            <polygon class="cls-15" points="83.09 24.88 84.42 27.05 86.28 25.32 86.96 27.76 89.22 26.6 89.22 29.14 91.71 28.62 91.03 31.07 93.56 31.24 92.24 33.42 94.64 34.27 92.78 36 94.85 37.47 92.6 38.64 94.2 40.61 91.71 41.13 92.72 43.46 90.19 43.29 90.53 45.81 88.14 44.96 87.79 47.48 85.71 46.01 84.7 48.34 83.09 46.37 81.49 48.34 80.48 46.01 78.4 47.48 78.05 44.96 75.66 45.81 76 43.29 73.47 43.46 74.48 41.13 71.99 40.61 73.59 38.64 71.34 37.47 73.41 36 71.56 34.27 73.95 33.42 72.63 31.24 75.16 31.07 74.48 28.62 76.97 29.14 76.97 26.6 79.23 27.76 79.92 25.32 81.77 27.05 83.09 24.88"/>
            <polygon class="cls-16" points="83.16 30.07 83.75 32.33 84.92 30.31 84.87 32.65 86.55 31.02 85.88 33.26 87.93 32.14 86.68 34.12 88.96 33.59 87.22 35.16 89.56 35.27 87.45 36.3 89.68 37.05 87.37 37.48 89.31 38.79 86.98 38.58 88.5 40.37 86.31 39.54 87.28 41.67 85.4 40.28 85.76 42.59 84.32 40.74 84.05 43.07 83.16 40.9 82.27 43.07 82 40.74 80.56 42.59 80.92 40.28 79.04 41.67 80.01 39.54 77.82 40.37 79.34 38.58 77 38.79 78.94 37.48 76.64 37.05 78.86 36.3 76.76 35.27 79.1 35.16 77.36 33.59 79.64 34.12 78.38 32.14 80.44 33.26 79.76 31.02 81.44 32.65 81.4 30.31 82.57 32.33 83.16 30.07"/>
        </g>
    </g>
</svg>