<svg xmlns="http://www.w3.org/2000/svg" xmlns:xlink="http://www.w3.org/1999/xlink" viewBox="0 0 699.16 393"><defs><style>.cls-1{fill:url(#linear-gradient);}.cls-2{opacity:0.85;}.cls-3{fill:#7ca0d1;}.cls-4{fill:#98b4db;}.cls-5{fill:#39b54a;stroke:#217f2a;stroke-width:0.65px;}.cls-14,.cls-16,.cls-17,.cls-18,.cls-20,.cls-21,.cls-22,.cls-5,.cls-6,.cls-7,.cls-9{stroke-linecap:round;stroke-linejoin:round;}.cls-6{fill:#abd3f4;stroke-width:0.69px;}.cls-6,.cls-7{stroke:#78abce;}.cls-7{fill:#74c2f7;stroke-width:0.78px;}.cls-8{fill:#f4f7f9;}.cls-9{fill:none;stroke:#fff;stroke-width:2.06px;}.cls-10,.cls-24,.cls-26{fill:#fff;}.cls-11{fill:#5b4832;}.cls-12{fill:#187a87;}.cls-13{fill:#494a5e;}.cls-13,.cls-14,.cls-16{stroke:#393a49;}.cls-13,.cls-15,.cls-19{stroke-miterlimit:10;}.cls-14{fill:#3e3c4d;}.cls-15{fill:#6075a5;stroke:#494a5e;}.cls-16{fill:#44485c;}.cls-17{fill:#467707;stroke:#406608;}.cls-17,.cls-18,.cls-19,.cls-20{stroke-width:1.2px;}.cls-18,.cls-19{fill:#1ca35f;stroke:#148248;}.cls-20{fill:#61c453;stroke:#428731;}.cls-21{fill:#f7931e;stroke-width:1.41px;}.cls-21,.cls-22{stroke:#e27407;}.cls-22{fill:#e27407;stroke-width:0.75px;}.cls-23{fill:#f7ee9a;}.cls-24{opacity:0.92;}.cls-25{fill:#d8ae8d;}.cls-26{opacity:0.86;}.cls-27{fill:#d69b5f;}.cls-28{fill:#fdd479;}.cls-29{fill:#2b1a0a;}.cls-30{fill:#563a19;}.cls-31{fill:#e6e6e6;opacity:0.39;}.cls-32{font-size:60px;fill:#000102;font-family:Roboto-Regular, Roboto;}</style><linearGradient id="linear-gradient" x1="349.5" y1="0.23" x2="349.5" y2="392.89" gradientUnits="userSpaceOnUse"><stop offset="0" stop-color="#f46ca4"/><stop offset="1" stop-color="#f29c46"/></linearGradient></defs><title>level1</title><g id="Layer_2" data-name="Layer 2"><g id="desktop"><g id="levels"><g id="level1"><rect class="cls-1" y="0.23" width="699" height="392.66"/><g class="cls-2"><polygon class="cls-3" points="548.17 143.38 605.7 241.64 613.31 228.46 697.54 374.36 553.17 374.36 533.08 365.83 554.42 349.18 567.43 297.14 535.68 266.43 544.07 259.26 526.84 246.13 551.3 162.35 548.17 143.38"/><polygon class="cls-4" points="553.17 374.36 391.29 374.36 499.32 187.25 511.03 207.54 548.17 143.38 551.3 162.35 526.84 246.13 544.07 259.26 535.68 266.43 567.43 297.14 554.42 349.18 533.08 365.83 553.17 374.36"/></g><g id="waterfall"><path class="cls-5" d="M507.09,206h28.11A49.81,49.81,0,0,1,585,255.81v95.35a0,0,0,0,1,0,0H507.09a0,0,0,0,1,0,0V206A0,0,0,0,1,507.09,206Z"/><path class="cls-5" d="M620.85,206h77.92a0,0,0,0,1,0,0v95.35A49.81,49.81,0,0,1,649,351.16H620.85a0,0,0,0,1,0,0V206A0,0,0,0,1,620.85,206Z" transform="translate(1319.61 557.16) rotate(-180)"/><rect class="cls-6" x="585.01" y="247.2" width="35.84" height="103.96"/><rect class="cls-7" x="506.73" y="351.16" width="192.04" height="25.84"/><path class="cls-8" d="M617.65,342.07a5.79,5.79,0,0,0-5.79,5.79h-.24a5.8,5.8,0,0,0-4.45-4,5.79,5.79,0,1,0-10.94.29,5.8,5.8,0,0,0-2,1.34,5.79,5.79,0,1,0,0,8.11,5.79,5.79,0,0,0,8,.26,5.77,5.77,0,0,0,3.86,1.48h.24a5.79,5.79,0,0,0,11.35-1.65,5.79,5.79,0,0,0,0-11.59Z"/><line class="cls-9" x1="590.5" y1="252.85" x2="590.5" y2="275.69"/><line class="cls-9" x1="600.43" y1="279.99" x2="600.43" y2="297.85"/><line class="cls-9" x1="612.68" y1="260.13" x2="612.68" y2="283.31"/><line class="cls-9" x1="606.06" y1="297.85" x2="606.06" y2="306.81"/><line class="cls-9" x1="592.49" y1="314.76" x2="592.49" y2="325.02"/><circle class="cls-10" cx="613.59" cy="333.55" r="0.91"/><circle class="cls-10" cx="604.2" cy="325.48" r="0.46"/><circle class="cls-10" cx="592.49" cy="338.09" r="0.91"/><line class="cls-9" x1="518.06" y1="359.46" x2="554.85" y2="359.46"/><line class="cls-9" x1="554.85" y1="370.86" x2="565.07" y2="370.86"/><line class="cls-9" x1="600.43" y1="367.25" x2="641.92" y2="367.25"/><line class="cls-9" x1="656.22" y1="355.74" x2="683.2" y2="355.74"/></g><line class="cls-9" x1="669.87" y1="360.89" x2="694.63" y2="360.89"/><line class="cls-9" x1="636.37" y1="360.16" x2="642.92" y2="360.16"/><line class="cls-9" x1="580.65" y1="361.86" x2="589.03" y2="361.86"/><polygon class="cls-3" points="443.05 151.5 499.33 247.64 506.78 234.74 589.21 377.51 447.94 377.51 428.28 369.16 449.16 352.87 461.89 301.94 430.83 271.9 439.04 264.89 422.17 252.04 446.11 170.06 443.05 151.5"/><polygon class="cls-4" points="447.94 377.51 289.54 377.51 395.25 194.43 406.7 214.27 443.05 151.5 446.11 170.06 422.17 252.04 439.04 264.89 430.83 271.9 461.89 301.94 449.16 352.87 428.28 369.16 447.94 377.51"/><polygon class="cls-11" points="121.39 367.97 121.39 367.91 116.76 367.97 116.76 376.63 121.39 376.63 126.01 376.63 126.01 367.91 121.39 367.97"/><polygon class="cls-12" points="142.8 367.97 132.99 350.97 137.46 350.97 130.04 338.11 133.77 338.11 121.39 316.66 109 338.11 112.73 338.11 105.31 350.97 109.79 350.97 99.97 367.97 142.8 367.97"/><circle class="cls-13" cx="207.8" cy="339.5" r="5.54"/><polygon class="cls-14" points="210.77 339.53 209.29 340.74 209.99 342.51 208.21 341.83 207.02 343.32 206.72 341.44 204.84 341.16 206.31 339.96 205.62 338.18 207.4 338.86 208.58 337.37 208.88 339.25 210.77 339.53"/><circle class="cls-15" cx="482" cy="269.69" r="5.54"/><polygon class="cls-16" points="484.96 270.14 483.48 271.35 484.18 273.12 482.4 272.44 481.22 273.93 480.92 272.05 479.03 271.77 480.51 270.57 479.81 268.79 481.59 269.47 482.78 267.98 483.08 269.86 484.96 270.14"/><polygon class="cls-17" points="680.18 255.38 681.04 254.76 678.89 253.05 673.82 255.37 676.1 250.68 674.34 248.46 672.8 250.47 671.45 257.69 680.18 255.38"/><path class="cls-18" d="M669.06,256.35a19.21,19.21,0,0,0,1.74-3.43c.15-.73.26-3.43.26-3.43l1.41,1.21,1.88-1.2a15.38,15.38,0,0,1-1.41,5.33c-1.16,2-2,3.43-2,3.43Z"/><path class="cls-19" d="M670.9,258.25s4.73-2.59,6.36-2.73,2.92-.14,2.92-.14l-1.73,1.44,1.33,1.45s-3.65.18-4.84,1-2.42,1.9-2.42,1.9Z"/><path class="cls-20" d="M673.82,255.37l3.51-7.23a4.11,4.11,0,0,0,1.12,2.63,4,4,0,0,0,2.78,1.21Z"/><path class="cls-21" d="M672.05,269.05h0a7.64,7.64,0,0,0-10.79-10.82h0l-11.15,21.92,21.95-11.1h0Z"/><polygon class="cls-22" points="672.05 269.05 668.39 265.38 670.46 269.86 672.05 269.05"/><polygon class="cls-22" points="658.5 263.67 661.11 266.29 657.95 264.75 658.5 263.67"/><polygon class="cls-22" points="659.73 275.29 657.12 274 658.85 275.73 659.73 275.29"/><polygon class="cls-22" points="656.99 266.62 661.35 269.78 656.21 268.57 656.99 266.62"/><circle class="cls-23" cx="49.27" cy="63.04" r="36.33"/><path class="cls-10" d="M112.18,62.38A19.39,19.39,0,0,0,97.43,85.5,19.39,19.39,0,0,0,82.9,70.8c-.08-.62-.18-1.25-.32-1.87a19.39,19.39,0,0,0-37.87,8.38,19.64,19.64,0,0,0,.53,1.93,19.39,19.39,0,1,0,8.49,33.14,19.37,19.37,0,0,0,18.93-4.19,19.29,19.29,0,0,0,10,.45,19.39,19.39,0,0,0,37.87-8.38,19.39,19.39,0,1,0-8.38-37.87Z"/><path class="cls-24" d="M429.55,84.67a10.4,10.4,0,0,0-7.91,12.4,10.4,10.4,0,0,0-7.79-7.88c0-.33-.1-.67-.17-1a10.4,10.4,0,0,0-20.3,4.49,10.53,10.53,0,0,0,.28,1,10.4,10.4,0,1,0,4.55,17.77,10.39,10.39,0,0,0,10.15-2.25,10.34,10.34,0,0,0,5.38.24A10.4,10.4,0,0,0,434,105a10.4,10.4,0,0,0-4.49-20.3Z"/><rect class="cls-25" y="373.27" width="180.44" height="19.63"/><rect class="cls-25" x="233.09" y="373.27" width="465.91" height="19.63"/><path class="cls-10" d="M290.79,27.32a18.2,18.2,0,0,0-16,9.5,18.21,18.21,0,0,0-23.33-5.09,18.21,18.21,0,1,0,0,32,18.1,18.1,0,0,0,3,1.31,18.2,18.2,0,0,0,36.29-1.26h0a18.21,18.21,0,1,0,0-36.42Z"/><path class="cls-10" d="M640.37,79.76a18.2,18.2,0,0,0-16,9.5A18.21,18.21,0,0,0,601,84.18a18.21,18.21,0,1,0,0,32,18.1,18.1,0,0,0,3,1.31,18.2,18.2,0,0,0,36.29-1.26h0a18.21,18.21,0,0,0,0-36.42Z"/><path class="cls-24" d="M579.68,19.31A5.34,5.34,0,0,0,575,22.1,135.83,135.83,0,0,1,565.6,20,6.94,6.94,0,0,0,569,30.36,5.34,5.34,0,0,0,579.68,30h0a5.34,5.34,0,0,0,0-10.67Z"/><path class="cls-26" d="M506.8,192.65a4.92,4.92,0,0,0-4.32,2.57,125.25,125.25,0,0,1-8.67-2,6.39,6.39,0,0,0,3.18,9.59,4.92,4.92,0,0,0,9.81-.34h0a4.92,4.92,0,1,0,0-9.84Z"/><g id="Layer_2-2" data-name="Layer 2"><g id="Layer_1-2" data-name="Layer 1-2"><path class="cls-27" d="M37.61,344s-8.53-.31-13.77,6.25c-3.59,4.49-2.42,13.6-2.42,13.6s7.5-14.39,15.26-14.31S37.61,344,37.61,344Z"/><path class="cls-28" d="M108.28,325.77s-6.87-5.79-27.87.77a32.26,32.26,0,0,0-16.52-4.4c-15.42,0-27.9,10.14-27.9,22.65A18.73,18.73,0,0,0,37.07,351h0c1.32,11.24,16,14.61,17.75,19.72S63.21,375,63.21,375s4.16-.88,1.57-3-4.36-.41-1.31-4.56h.41A33.58,33.58,0,0,0,74,365.9c1.06.91,1.66,2.06-.47,2.92-4.07,1.64-3.92,3.78-3.92,3.78,9.24,2.48,17-12.41,20-19a19.75,19.75,0,0,0,1.26-3v-.05h0a18.73,18.73,0,0,0,.88-4.8A24.16,24.16,0,0,1,97.14,343s3.09-.85,6.48-5.23c.89-1.15-.47-1.59-1.81-3.58,1-.21,4.34-.35,4.48-.64s.35-.72.5-1.07A14.82,14.82,0,0,0,108.28,325.77Z"/><path class="cls-27" d="M92.11,345.74a18.73,18.73,0,0,1-.88,4.78h0v.05a19.75,19.75,0,0,1-1.26,3c-3,6.59-10.77,21.48-20,19,0,0-.11-2.11,4-3.78,2.12-.86,1.52-2,.47-2.92a33.58,33.58,0,0,1-10.11,1.54h-.41c-3.05,4.15-1.21,2.51,1.31,4.56s-1.58,3-1.58,3-6.65.92-8.38-4.19c-1.81-5.32-17.66-8.53-19-19.72h0a15.84,15.84,0,0,1,.12-9.27C40.52,353,47.62,367.32,56.45,365c5.52-1.41,5.82-16.46,5.82-16.46s2.11,15.14,6.54,15,8.86-4.12,8.86-5.93c0,0,2.82,4.63.8,8.26,0,0,3.86-18.73,4.72-22.8s8.92,2.59,8.92,2.59"/><path class="cls-27" d="M93.32,330.5c-1.61,2,6.6,8.08,3.5,10.14s-11-3.78-11-3.78-3.79,3.73-2.72,6.46c2,1.32,5.35,3.49,7.7,4,0-.6,4.89-3.1,6.88-3.7,0,0,3.07-.93,6.34-5.39.86-1.21-.51-1.58-1.9-3.53,1-.24,4.33-.47,4.46-.76s.33-.73.47-1.09a15.47,15.47,0,0,0,1.3-6.84S94.92,328.5,93.32,330.5Z"/><path class="cls-29" d="M94.62,329.23c-.3-1.81.65-3.49,2.12-3.73s2.91,1,3.21,2.85-.65,3.49-2.12,3.73-2.91-1-3.21-2.85"/><path class="cls-10" d="M98.18,327.74a.71.71,0,1,0,0,.28.71.71,0,0,0,0-.28"/><path class="cls-30" d="M108.14,326.26l-4.34.72.42,2.49c.22,1.29,2.19,2,3.23,1.87C108.4,328.51,108.38,327.43,108.14,326.26Z"/><path class="cls-27" d="M85.86,328.67l-1.29.75a1.53,1.53,0,0,0-.28,2.15l.13.14,2.35,2.42-4.61-3.07a.88.88,0,0,1,.12-1.55Z"/><path class="cls-27" d="M92,345.91"/></g></g><rect class="cls-31" width="699" height="393"/><text class="cls-32" transform="translate(204.75 213.81)">LEVEL ONE</text></g></g></g></g></svg>