<svg xmlns="http://www.w3.org/2000/svg" xmlns:xlink="http://www.w3.org/1999/xlink" viewBox="0 0 705.13 397.13"><defs><style>.cls-1{fill:url(#linear-gradient);}.cls-2{fill:#ff0;}.cls-3{fill:#89807a;}.cls-4{fill:#b7a79a;}.cls-5{fill:#534741;}.cls-6{fill:#998675;}.cls-7{fill:#843523;}.cls-8{opacity:0.85;}.cls-9{fill:#42210b;}.cls-10{fill:#e4e7ea;}.cls-11{fill:#736357;}.cls-12{fill:#c7b299;}.cls-13{fill:#5b4832;}.cls-14{fill:url(#linear-gradient-2);}.cls-15{fill:url(#linear-gradient-3);}.cls-16{fill:url(#linear-gradient-4);}.cls-17{fill:url(#linear-gradient-5);}.cls-18{fill:url(#linear-gradient-6);}.cls-19{fill:#603813;}.cls-20{fill:#279acc;}.cls-21{fill:#aa7d55;}.cls-22{fill:#e4fc56;}.cls-23{fill:#b1b75a;}.cls-24,.cls-46,.cls-47{fill:#fff;}.cls-25{fill:#a67c52;}.cls-26{fill:#846042;}.cls-27{fill:#c1ce45;}.cls-28{fill:#919344;}.cls-29{fill:#d3e051;}.cls-30{fill:#846040;}.cls-31{fill:#009245;}.cls-32{fill:#39b54a;stroke:#39b54a;stroke-linecap:round;stroke-linejoin:round;}.cls-32,.cls-33,.cls-34{stroke-width:0.4px;}.cls-33{fill:#8cc63f;stroke:#8cc63f;}.cls-33,.cls-34{stroke-miterlimit:10;}.cls-34{fill:#f4f7dc;stroke:#f4f7dc;}.cls-35{fill:#f7931e;}.cls-36{fill:#fcee21;}.cls-37{fill:#c1272d;}.cls-38{fill:#fdd479;}.cls-39{fill:#d69b5f;}.cls-40{fill:#2b1a0a;}.cls-41{fill:#563a19;}.cls-42{fill:url(#linear-gradient-7);}.cls-43{fill:url(#linear-gradient-8);}.cls-44{fill:#fffac7;}.cls-45{opacity:0.47;}.cls-46{font-size:60.23px;}.cls-46,.cls-47{font-family:Roboto-Regular, Roboto;}.cls-47{font-size:31.65px;}.cls-48{letter-spacing:-0.03em;}</style><linearGradient id="linear-gradient" x1="352.82" y1="355.27" x2="352.82" y2="38.51" gradientUnits="userSpaceOnUse"><stop offset="0" stop-color="#b82d28"/><stop offset="1" stop-color="#fcee21"/></linearGradient><linearGradient id="linear-gradient-2" x1="502.98" y1="344.44" x2="544.25" y2="344.44" gradientUnits="userSpaceOnUse"><stop offset="0.5" stop-color="#009245"/><stop offset="0.5" stop-color="#006837"/></linearGradient><linearGradient id="linear-gradient-3" x1="51.92" y1="341.9" x2="93.19" y2="341.9" xlink:href="#linear-gradient-2"/><linearGradient id="linear-gradient-4" x1="227.09" y1="344.08" x2="268.36" y2="344.08" xlink:href="#linear-gradient-2"/><linearGradient id="linear-gradient-5" x1="72.72" y1="345.53" x2="113.99" y2="345.53" xlink:href="#linear-gradient-2"/><linearGradient id="linear-gradient-6" x1="438.75" y1="351.34" x2="472.73" y2="351.34" xlink:href="#linear-gradient-2"/><linearGradient id="linear-gradient-7" x1="-153.39" y1="1400.47" x2="-149" y2="1400.47" gradientTransform="matrix(1, 0, 0, -1, 355, 1774.05)" gradientUnits="userSpaceOnUse"><stop offset="0" stop-color="#d69b5f"/><stop offset="1" stop-color="#7d5330"/></linearGradient><linearGradient id="linear-gradient-8" x1="-227.51" y1="1410.71" x2="-220.63" y2="1410.71" xlink:href="#linear-gradient-7"/></defs><title>level4</title><g id="Layer_2" data-name="Layer 2"><g id="Layer_1-2" data-name="Layer 1"><polyline class="cls-1" points="0.52 0.63 705.13 0.63 705.13 397.13 0.52 397.13"/><ellipse class="cls-2" cx="350.83" cy="237.88" rx="70.07" ry="69.65"/><g id="opacitylow"><polygon class="cls-3" points="433.99 215.39 476.77 286.37 482.44 276.85 545.08 382.25 437.71 382.25 422.77 376.09 438.64 364.06 448.32 326.46 424.71 304.28 430.94 299.1 418.13 289.62 436.32 229.09 433.99 215.39"/><polygon class="cls-4" points="437.71 382.25 317.32 382.25 397.66 247.08 406.37 261.73 433.99 215.39 436.32 229.09 418.13 289.62 430.94 299.1 424.71 304.28 448.32 326.46 438.64 364.06 422.77 376.09 437.71 382.25"/></g><polygon class="cls-5" points="58.4 226.63 96.57 291.44 101.62 282.75 157.52 378.99 61.71 378.99 48.38 373.36 62.54 362.38 71.18 328.05 50.11 307.8 55.68 303.07 44.24 294.41 60.47 239.14 58.4 226.63"/><polyline class="cls-6" points="0 302.81 27.44 255.57 35.21 268.95 59.85 226.63 61.93 239.14 45.7 294.41 57.13 303.07 51.57 307.8 72.64 328.05 64 362.38 49.84 373.36 63.17 378.99 2.32 376.45"/><path class="cls-7" d="M28.28,338.05A16.44,16.44,0,0,0,20.59,347c-2.92,7.79.08,16.09,6.69,18.54s14.34-1.89,17.25-9.68a16.32,16.32,0,0,0,0-11.75,10.26,10.26,0,0,0,6-4.78l.09,0c7.75,2.86,16-.14,18.48-6.72s-1.83-14.22-9.57-17.08-16,.14-18.48,6.72c-.1.28-.19.56-.27.84-6-1.29-11.8,1.24-13.66,6.2A9.94,9.94,0,0,0,28.28,338.05Z"/><g class="cls-8"><path class="cls-9" d="M46,313.64l.09.15Z"/><path class="cls-9" d="M72.25,349.8c-.27-.12-.54-.12-.63-.31a.36.36,0,0,1,0-.22,14.13,14.13,0,0,0,3.5-.41c-.6-.06-1.27-.15-2-.28a.36.36,0,0,1,.1-.26c.18-.16.49,0,.7-.08s.24-.28.18-.87a.93.93,0,0,1-.35.61c-.32.22-.65,0-1,.26a.73.73,0,0,0-.22.24,21.85,21.85,0,0,1-2.37-.65c.07-.2.12-.38.16-.53a4.66,4.66,0,0,1,.32-1.26,1.76,1.76,0,0,1,.63-.63,1.45,1.45,0,0,0-.95.63c-.2.35-.08.66-.32,1.26a3.71,3.71,0,0,1-.19.41c-.35-.13-.71-.26-1.07-.41a21.37,21.37,0,0,1-2-1q1-1.93,1.92-3.79a4.5,4.5,0,0,0,1.66-.6,5.07,5.07,0,0,0,2.21-3.46,6.54,6.54,0,0,1-1.43,2A.59.59,0,0,1,71,340c0-.28.35-.41.32-.63s-.19-.26-.32-.31a1,1,0,0,1,0,.31c-.05.31-.24.44-.32.63a.81.81,0,0,0,.16.71,5.74,5.74,0,0,1-1.77,1,81.66,81.66,0,0,0,3.19-8,51.51,51.51,0,0,1-5,9.76,2.48,2.48,0,0,1-.07-.32,4.84,4.84,0,0,1,.32-1.89c.09-.36.21-.9.32-1.57a8.35,8.35,0,0,0-.63,1.57,9.14,9.14,0,0,0-.32,1.89c0,.35,0,.66,0,.92a49.07,49.07,0,0,1-6.31,7.57c-.55.54-1.1,1-1.65,1.54a9.79,9.79,0,0,1-.56-1.22,10.06,10.06,0,0,1-.63-3.77,7,7,0,0,0-.32,4.09A6.71,6.71,0,0,0,58,354c-1.28,1.09-2.53,2-3.75,2.89-.19-2.25-.43-4.3-.69-6.14-.33-2.36-.69-4.27-1-6.08a42.05,42.05,0,0,0,4.2-4.28,9,9,0,0,0,2.54-.34A9.77,9.77,0,0,0,64.66,336a9.68,9.68,0,0,1-4.55,2.92,1.52,1.52,0,0,1,.12-.72,1.73,1.73,0,0,1,1.27-.94,2.27,2.27,0,0,0-1.58.94,2,2,0,0,0-.3.84c-.21,0-.42.08-.65.11a7.94,7.94,0,0,1-1.21,0A41.06,41.06,0,0,0,63,330.46,11.53,11.53,0,0,0,66.55,329a11.4,11.4,0,0,0,1.66-1.23,5.49,5.49,0,0,0,.87,0,5.74,5.74,0,0,0,2.53-.94,6,6,0,0,1-2.21.63,5.76,5.76,0,0,1-.83,0,11.57,11.57,0,0,0,1.77-2.21,9.45,9.45,0,0,1-4.11,3.14,9.12,9.12,0,0,1-1.16.36,6.32,6.32,0,0,1,.53-1,6.49,6.49,0,0,1,1.9-1.89,10.36,10.36,0,0,0-2.21,1.89,10.19,10.19,0,0,0-.86,1.12c-.29,0-.56.08-.81.1a42.23,42.23,0,0,0,2.62-9.72c-.34,1-.77,2.19-1.31,3.44a1.53,1.53,0,0,1-.58-.3,2.45,2.45,0,0,1-.63-1.26,3.33,3.33,0,0,0-1.27-1.57,5.26,5.26,0,0,1,.95,1.57,13.71,13.71,0,0,0,.63,1.89,4.82,4.82,0,0,0,.44.7,42,42,0,0,1-6.4,9.92c-.18-.24-.37-.5-.55-.79a4.2,4.2,0,0,0,.5-1.35,4.56,4.56,0,0,0-.63-3.14,3.77,3.77,0,0,1,0,2.83,3.25,3.25,0,0,1-.41.68,10.28,10.28,0,0,1-.54-1.31,10.78,10.78,0,0,1,0-6.6,13.22,13.22,0,0,0-.63,7.23c0,.17.07.33.11.5a.6.6,0,0,1-.43.13c-.28,0-.42-.34-.63-.63a3,3,0,0,0-1.27-.94,9.62,9.62,0,0,1,.95,1.26,4.88,4.88,0,0,0,.63.94,2.22,2.22,0,0,0,1.14.56,13.06,13.06,0,0,0,.77,1.73,42.11,42.11,0,0,1-5.56,5c-.36-1.74-.72-3.66-1.1-6-.49-3.11-.85-6.07-1.11-8.88a13.38,13.38,0,0,0,3-3.7,13.68,13.68,0,0,0,1.58-7.86,10.56,10.56,0,0,1-2.53,6.92c-.2.23-.4.43-.61.62a2.29,2.29,0,0,1-.34-.62,3.13,3.13,0,0,1,.95-3.14,3.27,3.27,0,0,0-1.58,3.14,2.52,2.52,0,0,0,.47,1.06,9.89,9.89,0,0,1-1.18.83c-.16-2.26-.26-4.4-.32-6.4a6.32,6.32,0,0,0,2-1.46,6.42,6.42,0,0,0,1.58-3.46,5.28,5.28,0,0,1-2.21,3.14,4.73,4.73,0,0,1-1.36.58c-.05-3.06,0-5.79.1-8.12-.48,4-.75,7.74-.88,11.27a5.22,5.22,0,0,1-1.52-.63,4.08,4.08,0,0,0,.19-1.21,4.16,4.16,0,0,0-.52-2,2.55,2.55,0,0,1,.21,2,2.28,2.28,0,0,1-.46.77l-.17-.14a5.52,5.52,0,0,1-1.58-4.4,7,7,0,0,0,.95,5.35,6.8,6.8,0,0,0,2.85,2.38,129.15,129.15,0,0,0,.63,15.85c.66,6.49,1.44,9.22,1.9,15.09,0,.18,0,.36,0,.55q-1.21-.53-2.48-1.17a17.7,17.7,0,0,0-.09-3.47,18.81,18.81,0,0,0-4.11-9.43,19,19,0,0,1,2.85,9.43c0,.17,0,.33,0,.49a3.11,3.11,0,0,1-.95-.49,3.45,3.45,0,0,1-1.27-2.52,5,5,0,0,0,.95,2.83,5,5,0,0,0,1.23,1.19c0,.41-.06.81-.11,1.19-1-.53-2-1.11-3-1.74-1.21-.75-2.36-1.53-3.45-2.32a10.23,10.23,0,0,0-.35-3.34,10.59,10.59,0,0,0-3.16-5,8.48,8.48,0,0,1,2.21,5,7.91,7.91,0,0,1-.17,2.24,58.5,58.5,0,0,1-9.64-9.47,55,55,0,0,0,4.47,6.66,5.79,5.79,0,0,1-1.31-.06,6.28,6.28,0,0,1-3.48-1.89,10,10,0,0,0,6.23,3.71,53,53,0,0,0,5.41,5.48,11.09,11.09,0,0,1-1.74.42,7.18,7.18,0,0,0-3.89-1.44,4.1,4.1,0,0,1,1.9.94,4,4,0,0,1,.56.62h-.25a11.37,11.37,0,0,1-6.64-2.2,13.45,13.45,0,0,0,7,3.46,13.24,13.24,0,0,0,5.09-.16l.6.48a52.86,52.86,0,0,0,7.84,5,95.25,95.25,0,0,1-2.46,23.63H53.9a118.32,118.32,0,0,0,.71-16.18,80.85,80.85,0,0,0,7.14-8.76,9.5,9.5,0,0,0,1.64.41,10.35,10.35,0,0,0,6-.94,10.82,10.82,0,0,1-5.69.31,10.11,10.11,0,0,1-1.49-.46c1.36-2,2.58-3.93,3.67-5.84a13.16,13.16,0,0,0,5.45,1.35.93.93,0,0,0,.28.54,2.71,2.71,0,0,0,.63.31c.27.12.49.24.63.31A1.4,1.4,0,0,0,72.25,349.8Z"/></g><polygon class="cls-5" points="242.78 104.49 315.36 229.45 325.02 212.82 431.94 396.91 248.69 396.91 223.19 386.15 250.27 365.13 266.79 299.47 226.49 260.73 237.14 251.69 215.26 235.12 246.31 129.41 242.78 104.49"/><polygon class="cls-6" points="248.69 396.91 43.22 396.91 180.33 160.83 195.2 186.42 242.34 105.48 246.31 129.41 215.26 235.12 237.14 251.69 226.49 260.73 266.79 299.47 250.27 365.13 223.19 386.15 248.69 396.91"/><polygon class="cls-10" points="315.36 229.45 280.59 220.59 257.95 244.09 264.49 262.59 234.81 233.09 237.14 251.69 215.26 235.12 225.57 200.03 208.65 178.08 199.6 195.08 189.53 199.08 178.47 216.59 170.31 178.08 180.33 160.83 195.2 186.42 242.78 104.49 325.02 212.82 315.36 229.45"/><polygon class="cls-11" points="596.62 163.51 649.65 254.82 656.71 242.66 705.13 326.03 702.27 376.81 600.94 377.18 582.31 369.31 602.1 353.96 614.16 305.98 584.72 277.67 592.5 271.06 576.51 258.96 599.2 181.72 596.62 163.51"/><polygon class="cls-12" points="600.94 377.18 450.8 377.18 550.99 204.68 561.85 223.38 596.3 164.23 599.2 181.72 576.51 258.96 592.5 271.06 584.72 277.67 614.16 305.98 602.1 353.96 582.31 369.31 600.94 377.18"/><polygon class="cls-10" points="649.65 254.82 624.25 248.34 607.71 265.51 612.49 279.03 590.8 257.48 592.5 271.06 576.51 258.96 584.04 233.32 571.68 217.28 565.07 229.71 557.72 232.63 549.63 245.42 543.67 217.28 550.99 204.68 561.85 223.38 596.62 163.51 656.71 242.66 649.65 254.82"/><polygon class="cls-13" points="523.62 369.02 523.62 368.96 521.47 369.02 521.47 377.31 523.62 377.31 525.76 377.31 525.76 368.96 523.62 369.02"/><polygon class="cls-14" points="544.25 369.02 534.79 352.73 539.11 352.73 531.95 340.42 535.55 340.42 523.62 319.87 511.68 340.42 515.28 340.42 508.13 352.73 512.44 352.73 502.98 369.02 544.25 369.02"/><polygon class="cls-13" points="72.55 366.48 72.55 366.42 70.4 366.48 70.4 374.77 72.55 374.77 74.7 374.77 74.7 366.42 72.55 366.48"/><polygon class="cls-15" points="93.19 366.48 83.73 350.19 88.04 350.19 80.89 337.88 84.49 337.88 72.55 317.33 60.62 337.88 64.22 337.88 57.06 350.19 61.38 350.19 51.92 366.48 93.19 366.48"/><polygon class="cls-13" points="247.72 368.65 247.72 368.6 245.57 368.65 245.57 376.94 247.72 376.94 249.87 376.94 249.87 368.6 247.72 368.65"/><polygon class="cls-16" points="268.36 368.65 258.9 352.37 263.21 352.37 256.06 340.05 259.65 340.05 247.72 319.51 235.79 340.05 239.38 340.05 232.23 352.37 236.55 352.37 227.09 368.65 268.36 368.65"/><polygon class="cls-13" points="93.35 370.11 93.35 370.05 91.2 370.11 91.2 378.4 93.35 378.4 95.5 378.4 95.5 370.05 93.35 370.11"/><polygon class="cls-17" points="113.99 370.11 104.53 353.82 108.84 353.82 101.69 341.5 105.29 341.5 93.35 320.96 81.42 341.5 85.02 341.5 77.86 353.82 82.18 353.82 72.72 370.11 113.99 370.11"/><polygon class="cls-13" points="455.74 371.57 455.74 371.52 453.97 371.57 453.97 378.4 455.74 378.4 457.51 378.4 457.51 371.52 455.74 371.57"/><polygon class="cls-18" points="472.73 371.57 464.94 358.16 468.49 358.16 462.61 348.02 465.56 348.02 455.74 331.11 445.92 348.02 448.88 348.02 442.99 358.16 446.54 358.16 438.75 371.57 472.73 371.57"/><path class="cls-7" d="M674.47,327.8a16.35,16.35,0,0,0,4.08-11c0-8.31-5.72-15.05-12.77-15.05S653,308.46,653,316.78a16.35,16.35,0,0,0,4.08,11,10.2,10.2,0,0,0-4,6.57H653c-8.26,0-15,5.68-15,12.7s6.7,12.7,15,12.7,15-5.68,15-12.7c0-.3,0-.59,0-.88,6-.86,10.62-5.25,10.62-10.55A10,10,0,0,0,674.47,327.8Z"/><polyline class="cls-19" points="2.6 396.77 273.83 396.77 273.83 376.56 2.6 376.56"/><rect class="cls-19" x="344.27" y="376.93" width="358" height="20.2"/><polygon class="cls-20" points="457.03 376.9 458.49 378.63 457.76 379.72 459.4 382.44 456.3 379.35 457.76 378.63 456.3 376.81 457.03 376.9"/><path class="cls-5" d="M657.75,303.9l.1.17Z"/><path class="cls-5" d="M688,345.62c-.31-.14-.62-.14-.73-.36a.41.41,0,0,1,0-.26,16.3,16.3,0,0,0,4-.47c-.69-.07-1.46-.17-2.27-.32a.41.41,0,0,1,.11-.3c.21-.19.56.06.81-.1s.28-.32.21-1a1.07,1.07,0,0,1-.41.7c-.37.25-.75,0-1.12.3a.84.84,0,0,0-.25.28,25.2,25.2,0,0,1-2.74-.75c.08-.23.14-.44.18-.61a5.37,5.37,0,0,1,.36-1.45,2,2,0,0,1,.73-.73,1.67,1.67,0,0,0-1.09.73c-.23.4-.09.76-.36,1.45a4.28,4.28,0,0,1-.22.47c-.41-.15-.82-.3-1.24-.47a24.65,24.65,0,0,1-2.31-1.11q1.21-2.23,2.22-4.37a5.19,5.19,0,0,0,1.92-.69,5.85,5.85,0,0,0,2.55-4,7.55,7.55,0,0,1-1.65,2.32.68.68,0,0,1-.17-.51c0-.33.4-.47.36-.73s-.22-.29-.36-.36a1.1,1.1,0,0,1,0,.36c-.06.36-.28.51-.36.73a.94.94,0,0,0,.18.82,6.63,6.63,0,0,1-2,1.15,94.21,94.21,0,0,0,3.68-9.22,59.43,59.43,0,0,1-5.76,11.26,2.86,2.86,0,0,1-.08-.37,5.58,5.58,0,0,1,.36-2.18c.1-.42.25-1,.36-1.81a9.63,9.63,0,0,0-.73,1.81,10.55,10.55,0,0,0-.36,2.18c0,.4,0,.76,0,1.06a56.61,56.61,0,0,1-7.28,8.73c-.64.62-1.27,1.21-1.91,1.78a11.3,11.3,0,0,1-.65-1.41,11.6,11.6,0,0,1-.73-4.35,8.08,8.08,0,0,0-.36,4.72,7.74,7.74,0,0,0,.73,1.93c-1.47,1.25-2.92,2.36-4.32,3.33-.22-2.59-.49-5-.79-7.08-.39-2.73-.79-4.93-1.21-7a48.51,48.51,0,0,0,4.85-4.93,10.35,10.35,0,0,0,2.93-.39,11.27,11.27,0,0,0,6.2-4.72A11.17,11.17,0,0,1,674,333a1.76,1.76,0,0,1,.14-.83,2,2,0,0,1,1.46-1.09,2.62,2.62,0,0,0-1.82,1.09,2.29,2.29,0,0,0-.35,1c-.24,0-.49.09-.75.12a9.15,9.15,0,0,1-1.4.06,47.37,47.37,0,0,0,6.06-10,13.3,13.3,0,0,0,4.1-1.63,13.16,13.16,0,0,0,1.91-1.42,6.33,6.33,0,0,0,1,0,6.62,6.62,0,0,0,2.92-1.09,6.93,6.93,0,0,1-2.55.73,6.64,6.64,0,0,1-1,0,13.35,13.35,0,0,0,2-2.55,10.91,10.91,0,0,1-4.74,3.63,10.52,10.52,0,0,1-1.34.42,7.29,7.29,0,0,1,.61-1.14,7.49,7.49,0,0,1,2.19-2.18,12,12,0,0,0-2.55,2.18,11.75,11.75,0,0,0-1,1.3c-.33.06-.64.09-.93.12a48.72,48.72,0,0,0,3-11.21c-.39,1.18-.89,2.52-1.52,4a1.77,1.77,0,0,1-.67-.35,2.83,2.83,0,0,1-.73-1.45,3.84,3.84,0,0,0-1.46-1.81,6.07,6.07,0,0,1,1.09,1.81,15.81,15.81,0,0,0,.73,2.18,5.56,5.56,0,0,0,.51.81A48.45,48.45,0,0,1,671.68,327c-.21-.27-.42-.57-.64-.91a4.85,4.85,0,0,0,.57-1.55,5.27,5.27,0,0,0-.73-3.63,4.35,4.35,0,0,1,0,3.26,3.75,3.75,0,0,1-.47.79,11.86,11.86,0,0,1-.62-1.51,12.44,12.44,0,0,1,0-7.62,15.25,15.25,0,0,0-.73,8.34c0,.2.08.39.13.57a.69.69,0,0,1-.49.15c-.32,0-.48-.4-.73-.73a3.51,3.51,0,0,0-1.46-1.09,11.1,11.1,0,0,1,1.09,1.45,5.63,5.63,0,0,0,.73,1.09,2.56,2.56,0,0,0,1.32.65,15.06,15.06,0,0,0,.89,2,48.58,48.58,0,0,1-6.41,5.76c-.41-2-.83-4.23-1.27-7-.57-3.59-1-7-1.28-10.25a15.44,15.44,0,0,0,3.47-4.26,15.79,15.79,0,0,0,1.82-9.07,12.18,12.18,0,0,1-2.92,8c-.23.26-.47.49-.7.72a2.64,2.64,0,0,1-.39-.72,3.61,3.61,0,0,1,1.09-3.63,3.77,3.77,0,0,0-1.82,3.63,2.91,2.91,0,0,0,.55,1.22,11.41,11.41,0,0,1-1.36,1c-.19-2.61-.3-5.07-.36-7.38a7.29,7.29,0,0,0,2.27-1.69,7.4,7.4,0,0,0,1.82-4,6.09,6.09,0,0,1-2.55,3.63,5.46,5.46,0,0,1-1.57.66c-.06-3.53,0-6.68.11-9.37-.55,4.59-.87,8.93-1,13a6,6,0,0,1-1.75-.72,4.71,4.71,0,0,0,.21-1.39,4.8,4.8,0,0,0-.6-2.32,3,3,0,0,1,.24,2.32,2.64,2.64,0,0,1-.53.89l-.19-.16a6.37,6.37,0,0,1-1.82-5.08,8.09,8.09,0,0,0,1.09,6.17,7.85,7.85,0,0,0,3.29,2.75,149,149,0,0,0,.72,18.29c.76,7.49,1.66,10.63,2.19,17.41,0,.21,0,.42,0,.63q-1.39-.62-2.86-1.35a20.42,20.42,0,0,0-.1-4,21.7,21.7,0,0,0-4.74-10.88A21.91,21.91,0,0,1,658.48,342c0,.19,0,.38,0,.57a3.59,3.59,0,0,1-1.09-.57,4,4,0,0,1-1.46-2.9,5.81,5.81,0,0,0,1.09,3.26,5.72,5.72,0,0,0,1.42,1.37c0,.47-.07.93-.13,1.37-1.14-.61-2.3-1.28-3.48-2-1.4-.87-2.72-1.76-4-2.67a11.81,11.81,0,0,0-.4-3.86,12.22,12.22,0,0,0-3.65-5.8,9.78,9.78,0,0,1,2.55,5.8,9.12,9.12,0,0,1-.19,2.59A67.49,67.49,0,0,1,638,328.2a63.5,63.5,0,0,0,5.16,7.69,6.67,6.67,0,0,1-1.51-.07,7.24,7.24,0,0,1-4-2.18,11.49,11.49,0,0,0,7.19,4.28,61.1,61.1,0,0,0,6.24,6.32,12.8,12.8,0,0,1-2,.49,8.29,8.29,0,0,0-4.48-1.66,4.73,4.73,0,0,1,2.19,1.09,4.58,4.58,0,0,1,.65.72h-.29a13.12,13.12,0,0,1-7.66-2.54,15.52,15.52,0,0,0,8,4,15.27,15.27,0,0,0,5.87-.19l.69.55a61,61,0,0,0,9,5.75,109.88,109.88,0,0,1-2.84,27.26h6.57a136.5,136.5,0,0,0,.82-18.67,93.28,93.28,0,0,0,8.24-10.1,11,11,0,0,0,1.89.47,11.94,11.94,0,0,0,6.93-1.09,12.48,12.48,0,0,1-6.57.36,11.66,11.66,0,0,1-1.71-.53c1.57-2.28,3-4.53,4.23-6.73A15.18,15.18,0,0,0,687,345a1.07,1.07,0,0,0,.32.62,3.13,3.13,0,0,0,.73.36c.31.14.56.27.73.36A1.62,1.62,0,0,0,688,345.62Z"/><ellipse class="cls-21" cx="588.37" cy="316.71" rx="11.71" ry="11.64"/><ellipse class="cls-22" cx="588.37" cy="316.71" rx="10.32" ry="10.25"/><ellipse class="cls-23" cx="588.37" cy="316.71" rx="9.52" ry="9.47"/><ellipse class="cls-24" cx="588.37" cy="316.71" rx="3" ry="2.98"/><path class="cls-22" d="M588.37,319.93a.2.2,0,0,0-.2.16l-.66,3.32a.88.88,0,0,0,.87,1"/><path class="cls-22" d="M588.37,324.46h0a.88.88,0,0,0,.87-1l-.66-3.32a.2.2,0,0,0-.2-.16"/><path class="cls-25" d="M588.37,319.6l-.33,2.24a.28.28,0,0,0,.28.32h.11a.28.28,0,0,0,.28-.32Z"/><path class="cls-22" d="M588.37,309a.88.88,0,0,0-.87,1l.66,3.32a.2.2,0,0,0,.2.16"/><path class="cls-25" d="M588.37,313.81l.33-2.24a.28.28,0,0,0-.28-.32h-.11a.28.28,0,0,0-.28.32Z"/><path class="cls-22" d="M587.53,313.57l-.43-3.65a.76.76,0,0,0-1-.63l-.29.09a.76.76,0,0,0-.43,1.09l1.81,3.21A.18.18,0,0,0,587.53,313.57Z"/><path class="cls-25" d="M587.47,314l-.38-2.23a.28.28,0,0,0-.37-.22l-.1,0a.28.28,0,0,0-.17.4Z"/><path class="cls-22" d="M586.59,314,585,310.64a.76.76,0,0,0-1.13-.3l-.24.18a.76.76,0,0,0-.07,1.17l2.71,2.49A.18.18,0,0,0,586.59,314Z"/><path class="cls-25" d="M586.66,314.37l-1.05-2a.28.28,0,0,0-.42-.1l-.09.06a.28.28,0,0,0,0,.43Z"/><path class="cls-22" d="M585.83,314.66l-2.51-2.7a.76.76,0,0,0-1.16.07l-.18.24a.76.76,0,0,0,.3,1.13l3.36,1.54A.18.18,0,0,0,585.83,314.66Z"/><path class="cls-25" d="M586,315l-1.63-1.58a.28.28,0,0,0-.43,0l-.06.09a.28.28,0,0,0,.1.42Z"/><path class="cls-22" d="M585.32,315.54l-3.23-1.8a.76.76,0,0,0-1.09.43l-.09.28a.76.76,0,0,0,.63,1l3.67.43A.18.18,0,0,0,585.32,315.54Z"/><path class="cls-25" d="M585.6,315.81l-2-1a.28.28,0,0,0-.39.17l0,.1a.28.28,0,0,0,.22.37Z"/><path class="cls-22" d="M585.11,316.54l-3.63-.72a.76.76,0,0,0-.9.74v.3a.76.76,0,0,0,.9.74l3.63-.72A.18.18,0,0,0,585.11,316.54Z"/><path class="cls-25" d="M585.46,316.71l-2.25-.33a.28.28,0,0,0-.32.28v.11a.28.28,0,0,0,.32.28Z"/><path class="cls-22" d="M585.21,317.55l-3.67.43a.76.76,0,0,0-.63,1l.09.28a.76.76,0,0,0,1.09.43l3.23-1.8A.18.18,0,0,0,585.21,317.55Z"/><path class="cls-25" d="M585.6,317.6l-2.24.38a.28.28,0,0,0-.22.37l0,.1a.28.28,0,0,0,.39.17Z"/><path class="cls-22" d="M585.63,318.48,582.28,320a.76.76,0,0,0-.3,1.13l.18.24a.76.76,0,0,0,1.16.07l2.51-2.7A.18.18,0,0,0,585.63,318.48Z"/><path class="cls-25" d="M586,318.41l-2,1a.28.28,0,0,0-.1.42l.06.09a.28.28,0,0,0,.43,0Z"/><path class="cls-22" d="M586.32,319.23l-2.71,2.49a.76.76,0,0,0,.07,1.17l.24.18a.76.76,0,0,0,1.13-.3l1.55-3.34A.18.18,0,0,0,586.32,319.23Z"/><path class="cls-25" d="M586.66,319l-1.59,1.61a.28.28,0,0,0,0,.43l.09.06a.28.28,0,0,0,.42-.1Z"/><path class="cls-22" d="M587.2,319.74l-1.81,3.21a.76.76,0,0,0,.43,1.09l.29.09a.76.76,0,0,0,1-.63l.43-3.65A.18.18,0,0,0,587.2,319.74Z"/><path class="cls-25" d="M587.47,319.46l-1,2a.28.28,0,0,0,.17.4l.1,0a.28.28,0,0,0,.37-.22Z"/><path class="cls-26" d="M588.37,305.07a11.64,11.64,0,1,1,0,23.28"/><path class="cls-27" d="M588.37,306.45a10.26,10.26,0,1,1,0,20.51"/><path class="cls-28" d="M588.37,307.24a9.47,9.47,0,1,1,0,18.94"/><path class="cls-24" d="M588.37,313.73a3,3,0,1,1,0,6"/><path class="cls-29" d="M588.37,324.46a.88.88,0,0,0,.87-1l-.66-3.32a.2.2,0,0,0-.2-.16"/><line class="cls-22" x1="588.37" y1="324.46" x2="588.37" y2="324.46"/><path class="cls-30" d="M588.37,322.16h0a.33.33,0,0,0,.33-.38l-.33-2.18"/><path class="cls-29" d="M589.22,319.84l.43,3.65a.76.76,0,0,0,1,.63l.29-.09a.76.76,0,0,0,.43-1.09l-1.81-3.21A.18.18,0,0,0,589.22,319.84Z"/><path class="cls-30" d="M589.27,319.46l.38,2.23a.28.28,0,0,0,.37.22l.1,0a.28.28,0,0,0,.17-.4Z"/><path class="cls-29" d="M590.15,319.43l1.55,3.34a.76.76,0,0,0,1.13.3l.24-.18a.76.76,0,0,0,.07-1.17l-2.71-2.49A.18.18,0,0,0,590.15,319.43Z"/><path class="cls-30" d="M590.08,319l1.05,2a.28.28,0,0,0,.42.1l.09-.06a.28.28,0,0,0,0-.43Z"/><path class="cls-29" d="M590.91,318.75l2.51,2.7a.76.76,0,0,0,1.16-.07l.18-.24a.76.76,0,0,0-.3-1.13l-3.36-1.54A.18.18,0,0,0,590.91,318.75Z"/><path class="cls-30" d="M590.73,318.41l1.63,1.58a.28.28,0,0,0,.43,0l.06-.09a.28.28,0,0,0-.1-.42Z"/><path class="cls-29" d="M591.43,317.87l3.23,1.8a.76.76,0,0,0,1.09-.43l.09-.28a.76.76,0,0,0-.63-1l-3.67-.43A.18.18,0,0,0,591.43,317.87Z"/><path class="cls-30" d="M591.14,317.6l2,1a.28.28,0,0,0,.39-.17l0-.1a.28.28,0,0,0-.22-.37Z"/><path class="cls-29" d="M591.64,316.88l3.63.72a.76.76,0,0,0,.9-.74v-.3a.76.76,0,0,0-.9-.74l-3.63.72A.18.18,0,0,0,591.64,316.88Z"/><path class="cls-30" d="M591.28,316.71l2.25.33a.28.28,0,0,0,.32-.28v-.11a.28.28,0,0,0-.32-.28Z"/><path class="cls-29" d="M591.53,315.87l3.67-.43a.76.76,0,0,0,.63-1l-.09-.28a.76.76,0,0,0-1.09-.43l-3.23,1.8A.18.18,0,0,0,591.53,315.87Z"/><path class="cls-30" d="M591.14,315.81l2.24-.38a.28.28,0,0,0,.22-.37l0-.1a.28.28,0,0,0-.39-.17Z"/><path class="cls-29" d="M591.12,314.94l3.36-1.54a.76.76,0,0,0,.3-1.13l-.18-.24a.76.76,0,0,0-1.16-.07l-2.51,2.7A.18.18,0,0,0,591.12,314.94Z"/><path class="cls-30" d="M590.73,315l2-1a.28.28,0,0,0,.1-.42l-.06-.09a.28.28,0,0,0-.43,0Z"/><path class="cls-29" d="M590.43,314.19l2.71-2.49a.76.76,0,0,0-.07-1.17l-.24-.18a.76.76,0,0,0-1.13.3L590.15,314A.18.18,0,0,0,590.43,314.19Z"/><path class="cls-30" d="M590.08,314.37l1.59-1.61a.28.28,0,0,0,0-.43l-.09-.06a.28.28,0,0,0-.42.1Z"/><path class="cls-29" d="M589.54,313.68l1.81-3.21a.76.76,0,0,0-.43-1.09l-.29-.09a.76.76,0,0,0-1,.63l-.43,3.65A.18.18,0,0,0,589.54,313.68Z"/><path class="cls-30" d="M589.27,314l1-2a.28.28,0,0,0-.17-.4l-.1,0a.28.28,0,0,0-.37.22Z"/><line class="cls-22" x1="588.37" y1="308.96" x2="588.37" y2="308.96"/><path class="cls-29" d="M588.37,313.49s.16.05.2-.16l.66-3.32a.88.88,0,0,0-.87-1"/><path class="cls-22" d="M587.51,310"/><path class="cls-30" d="M588.37,313.81l.33-2.18a.33.33,0,0,0-.33-.38h0"/><ellipse class="cls-31" cx="319.55" cy="313.22" rx="11.09" ry="11.02" transform="translate(-0.85 0.87) rotate(-0.16)"/><path class="cls-32" d="M330.12,309.9c.07.39,2.38,7.11-2.24,11.33a12.31,12.31,0,0,1-14.76.95,4.32,4.32,0,0,1,.74-3.22c1.43-1.92,3.72-1.34,5.54-3.22s1-3.52,2.42-5C323,309.48,324.3,308.3,330.12,309.9Z"/><path class="cls-33" d="M323.75,321.48a2.12,2.12,0,0,1-1.61,2.31,11.23,11.23,0,0,1-6.68-.32,11,11,0,0,1,4.34-21.23,2.13,2.13,0,0,1,1.92,3,3.59,3.59,0,0,0-.34,1.3c-.14,2.16,1.91,3,1.73,5.21s-2.12,2.44-2,4.28c.13,1.52,1.49,1.82,2.26,4A6.85,6.85,0,0,1,323.75,321.48Z"/><path class="cls-34" d="M314.67,312.37a3.86,3.86,0,0,0,1.23,1.14,4.78,4.78,0,0,0,4.31-.07c-.17.06-2.47.84-4-.48a3.2,3.2,0,0,1-.78-1,27.38,27.38,0,0,1,5-1.76,29.17,29.17,0,0,0-6.83,1.47,3.22,3.22,0,0,1,.07-.72,4.44,4.44,0,0,1,2.73-2.87c-.34.1-2.72.84-3.38,2.93a3.64,3.64,0,0,0-.17,1c-.21.11-.42.22-.61.34a18.5,18.5,0,0,0-2.29,1.65,9,9,0,0,1,.25-1.12,9.66,9.66,0,0,1,2.79-4.37,10.41,10.41,0,0,0-3.33,4.3,9.88,9.88,0,0,0-.57,2l-.6.59a10.72,10.72,0,0,0,1.42,3.52,14.58,14.58,0,0,1,1.82-3.57,10.85,10.85,0,0,0,1.65.55,11.77,11.77,0,0,0,6.76-.41,9,9,0,0,1-6.7-.48,7.49,7.49,0,0,1-1-.62c.15-.18.31-.36.47-.54A8.38,8.38,0,0,1,314.67,312.37Z"/><path class="cls-35" d="M552.35,289.17s-1.07,3.48-4,4.15a4.3,4.3,0,0,0,.35-2.84s-2.07,4.2-6.3,4.37a3.42,3.42,0,0,0,1.63-2.58s-6.62,3.05-9,1.57c0,0,4.83-1.41,4.15-2.51l-.39-1.55a3.85,3.85,0,0,1,4.55-.8s0-1.65-1.28-2.09c0,0,3.52-.66,5.63.69,0,0-1.05-3-1.83-3s.58-.35.58-.35S549.51,283.76,552.35,289.17Z"/><path class="cls-36" d="M484.42,284.27s3.53.95,4.31,3.86a4.37,4.37,0,0,0-2.86-.25s4.29,1.92,4.61,6.1a3.45,3.45,0,0,0-2.65-1.53s3.3,6.47,1.89,8.86c0,0-1.58-4.75-2.67-4l-1.55.44a3.79,3.79,0,0,1-1-4.5s-1.66,0-2.06,1.34c0,0-.78-3.48.5-5.62,0,0-3,1.15-2.94,1.92s-.38-.57-.38-.57S479.07,287.27,484.42,284.27Z"/><path class="cls-36" d="M27.88,197.93s3.53.95,4.31,3.86a4.37,4.37,0,0,0-2.86-.25s4.29,1.92,4.61,6.1a3.45,3.45,0,0,0-2.65-1.53s3.3,6.47,1.89,8.86c0,0-1.58-4.75-2.67-4l-1.55.44a3.79,3.79,0,0,1-1-4.5s-1.66,0-2.06,1.34c0,0-.78-3.48.5-5.62,0,0-3,1.15-2.94,1.92s-.38-.57-.38-.57S22.54,200.93,27.88,197.93Z"/><path class="cls-36" d="M358.38,320.75s1.77,2,1.08,4a3.14,3.14,0,0,0-1.64-1.27s1.85,2.84.37,5.51a2.47,2.47,0,0,0-1-2s-.57,5.22-2.37,6.11c0,0,.92-3.5,0-3.49l-1.12-.34a2.75,2.75,0,0,1,1.2-3.11,1.63,1.63,0,0,0-1.78,0s.9-2.42,2.53-3.21c0,0-2.28-.48-2.55,0s0-.49,0-.49S353.95,320.48,358.38,320.75Z"/><path class="cls-35" d="M321.09,240.43s-1.84,1.9-4,1.37a3.13,3.13,0,0,0,1.15-1.72s-2.72,2-5.5.78a2.5,2.5,0,0,0,1.9-1.14s-5.28-.18-6.31-1.9c0,0,3.58.66,3.5-.27l.26-1.13a2.78,2.78,0,0,1,3.2,1,1.6,1.6,0,0,0-.14-1.77s2.49.72,3.41,2.27c0,0,.31-2.29-.2-2.53s.49,0,.49,0S321,236,321.09,240.43Z"/><path class="cls-35" d="M203.58,282.14s-1.84,1.9-4,1.37a3.13,3.13,0,0,0,1.15-1.72s-2.72,2-5.5.78a2.5,2.5,0,0,0,1.9-1.14s-5.28-.18-6.31-1.9c0,0,3.58.66,3.5-.27l.26-1.13a2.78,2.78,0,0,1,3.2,1,1.6,1.6,0,0,0-.14-1.77s2.49.72,3.41,2.27c0,0,.31-2.29-.2-2.53s.49,0,.49,0S203.53,277.73,203.58,282.14Z"/><path class="cls-35" d="M449.06,301.22s3.19,3.54,2,7.28a5.68,5.68,0,0,0-3-2.3s3.34,5.14.68,10c0,0,0-2.49-1.81-3.55,0,0-1,9.43-4.28,11,0,0,1.67-6.32,0-6.31l-2-.61a5,5,0,0,1,2.16-5.61s-1.84-1.15-3.22,0c0,0,1.63-4.36,4.58-5.8,0,0-4.12-.87-4.61,0s0-.89,0-.89S441,300.73,449.06,301.22Z"/><path class="cls-35" d="M29.38,284.53s3.19,3.54,2,7.28a5.68,5.68,0,0,0-3-2.3s3.34,5.14.68,10c0,0,0-2.49-1.81-3.55,0,0-1,9.43-4.28,11,0,0,1.67-6.32,0-6.31l-2-.61a5,5,0,0,1,2.16-5.61s-1.84-1.15-3.22,0c0,0,1.63-4.36,4.58-5.8,0,0-4.12-.87-4.61,0s0-.89,0-.89S21.37,284,29.38,284.53Z"/><path class="cls-37" d="M424,274.43s-3.19,3.54-7.07,2.73a5.65,5.65,0,0,0,2-3.18s-4.78,3.85-9.88,1.75c0,0,2.49-.28,3.35-2.17,0,0-9.54,0-11.51-3,0,0,6.5,1,6.31-.72l.39-2.06a5,5,0,0,1,5.85,1.53s.95-1.94-.37-3.18c0,0,4.54,1.14,6.3,3.89,0,0,.42-4.16-.52-4.55s.89-.1.89-.1S423.64,266.47,424,274.43Z"/><path class="cls-37" d="M182.06,342.27s-3.19,3.54-7.07,2.73a5.65,5.65,0,0,0,2-3.18s-4.78,3.85-9.88,1.75c0,0,2.49-.28,3.35-2.17,0,0-9.54,0-11.51-3,0,0,6.5,1,6.31-.72l.39-2.06a5,5,0,0,1,5.85,1.53s.95-1.94-.37-3.18c0,0,4.54,1.14,6.3,3.89,0,0,.42-4.16-.52-4.55s.89-.1.89-.1S181.68,334.31,182.06,342.27Z"/><path class="cls-35" d="M467.92,250.1s-4.6-1.3-5.56-5.12a5.72,5.72,0,0,0,3.74.37s-5.58-2.58-5.91-8.06c0,0,1.34,2.1,3.43,2,0,0-4.19-8.52-2.3-11.61,0,0,2,6.23,3.41,5.32l2-.55a5,5,0,0,1,1.18,5.89s2.17,0,2.72-1.72c0,0,1,4.56-.76,7.33,0,0,4-1.45,3.88-2.46s.48.75.48.75S475,246.28,467.92,250.1Z"/><g id="Layer_2-2" data-name="Layer 2"><g id="Layer_1-2-2" data-name="Layer 1-2"><path class="cls-38" d="M215.26,356.61s-5-6.74-25.67-5.21c-17.09,1.26-15.55-30.93-49-2-2.21,1.8-4.84,6.47-5.58,9.9s-4.84,3.06-5.28,4,12.17,5.93,21.42-2.7,19.22,14.2,33.59,13.49c0,0,11.44,6.3,16.43,3.6s3.08-3.41,3.08-3.41-.29.18-2.21-.55-6-4-.44-4.13c0,0,2.93-.09,6.89-3.24,1-.83-.08-1.51-.84-3.56.9,0,3.93.62,4.13.39s.46-.55.67-.84A13.75,13.75,0,0,0,215.26,356.61Z"/><path class="cls-39" d="M215.26,356.51a14.12,14.12,0,0,1-2.77,5.7q-.32.41-.67.84c-.19.23-3.22-.37-4.13-.39.76,2.05,1.89,2.75.84,3.56-4,3.15-6.92,3.23-6.92,3.23-5.58.18-1.47,3.41.44,4.13s2.21.55,2.21.55,1.91.72-3.08,3.41-16.43-3.6-16.43-3.6c-14.38.72-24.34-22.12-33.59-13.49s-21.87,3.59-21.42,2.69,4.55-.55,5.28-4,3.37-8.09,5.58-9.9c0,0-3.22,10.85,0,9.77s15.65-4.31,18.77-9.77,11.73,11.55,18.77,15.29,14.47,6.6,15.45,5.39-.83-9.29-.83-9.29,5.6,7,8.85,5.92-2.57-8.37-.67-9.74S215.26,356.51,215.26,356.51Z"/><path class="cls-40" d="M202.56,357a2.53,2.53,0,1,1,2.48,3,2.81,2.81,0,0,1-2.48-3"/><path class="cls-24" d="M206,356.21a.65.65,0,1,0-.64.78.72.72,0,0,0,.64-.78"/><path class="cls-41" d="M215.09,356.5h-4v2.3c0,1.19,1.66,2.16,2.64,2.16C215,358.56,215.13,357.59,215.09,356.5Z"/><path class="cls-39" d="M194.72,355.17l-1.27.48a1.39,1.39,0,0,0-.58,1.89l.09.15,1.76,2.52-3.7-3.44c-.46-.43-.24-1.34.34-1.37Z"/><path class="cls-42" d="M201.62,373.49s2.36-1,2.56-2a11.85,11.85,0,0,0,0,1.2l1.17-2a17.92,17.92,0,0,0,0,2.16s0,1.56.64.12a3.41,3.41,0,0,1-2.84,3.48Z"/><path class="cls-43" d="M133.91,365.09s-5,2.38-6.42-1.1c0,0,2.21.72,2.21,0,0,0-.87.24-1.06-1.92a3.75,3.75,0,0,0,2,0s-1.28-.36-1-1.26a13.72,13.72,0,0,0,2.44,1.46l2.21,2.91Z"/><path class="cls-39" d="M151.13,341.52s-7-.47-3.91-7.89c0,0-7.74,1.1-7.19,5.5s7,5.15,7,5.15Z"/></g></g><path class="cls-44" d="M401.31,151.54H686a12.2,12.2,0,0,0,2.88-7.72c0-8.33-9.15-15.08-20.44-15.08A25.23,25.23,0,0,0,655.68,132a90.07,90.07,0,0,0-23.7-6.58,14.19,14.19,0,0,0,4.34-9.94c0-9.34-10.18-16.91-22.75-16.91a29.77,29.77,0,0,0-8,1.08,59.69,59.69,0,0,0-19.22-26.3c2.84-2.21,4.47-4.77,4.47-7.5,0-7.9-13.6-14.38-30.92-15-.58-10.18-9.48-18.44-20.89-19.73q0-.36,0-.73c0-7.82-8.57-14.16-19.14-14.16s-19.14,6.34-19.14,14.16a10.66,10.66,0,0,0,.37,2.79c-10,3.94-17,12.65-17,22.77a22.06,22.06,0,0,0,2.76,10.66,31.2,31.2,0,1,0-21.35,58.49q.36,2.24.91,4.42a54.79,54.79,0,0,0-10.52,2.81,14.63,14.63,0,0,0-27.65,6.55,14.4,14.4,0,0,0,1,5.25,42,42,0,0,0-4.87-.28C415.12,143.82,406.84,146.82,401.31,151.54Z"/><path class="cls-44" d="M461,113.45H275.79a3.74,3.74,0,0,1-1.88-2.9c0-3.12,6-5.66,13.3-5.66a26.36,26.36,0,0,1,8.28,1.23,94,94,0,0,1,15.42-2.47c-1.78-1-2.83-2.34-2.83-3.73,0-3.51,6.63-6.35,14.81-6.35a32.88,32.88,0,0,1,5.21.4c2.35-3.81,6.72-7.2,12.51-9.87-1.85-.83-2.91-1.79-2.91-2.82,0-3,8.85-5.4,20.12-5.64.37-3.82,6.17-6.92,13.6-7.41a2.31,2.31,0,0,1,0-.27c0-2.93,5.58-5.31,12.46-5.31S396.33,65,396.33,68a2.45,2.45,0,0,1-.24,1c6.53,1.48,11.08,4.75,11.08,8.54a5.82,5.82,0,0,1-1.8,4,33.75,33.75,0,0,1,8.12-1c11.27,0,20.4,5.24,20.4,11.7,0,5.31-6.17,9.79-14.62,11.22a12.51,12.51,0,0,1-.59,1.66,57.65,57.65,0,0,1,6.85,1.05c1.57-1.78,4.78-3,8.49-3,5.25,0,9.51,2.44,9.51,5.45a3.49,3.49,0,0,1-.64,2c1-.07,2.09-.11,3.17-.11C452.06,110.55,457.45,111.68,461,113.45Z"/><rect class="cls-45" x="0.79" width="704.34" height="395.86"/><text class="cls-46" transform="translate(174.94 186.87) scale(1.02 1)">LEVEL FOUR</text><text class="cls-47" transform="translate(267.15 226.67) scale(1.02 1)"><tspan class="cls-48">L</tspan><tspan x="16.03" y="0">OCKED</tspan></text></g></g></svg>