<svg xmlns="http://www.w3.org/2000/svg" xmlns:xlink="http://www.w3.org/1999/xlink" viewBox="0 0 1248.77 401.53"><defs><style>.cls-1,.cls-37,.cls-38,.cls-39,.cls-8,.cls-9{fill:none;}.cls-2{fill:url(#linear-gradient);}.cls-3{opacity:0.66;}.cls-4{fill:#5cc1a2;}.cls-5{fill:#00827f;}.cls-6{stroke:#217f2a;stroke-width:0.65px;fill:url(#linear-gradient-2);}.cls-28,.cls-29,.cls-31,.cls-32,.cls-33,.cls-35,.cls-6{stroke-linecap:round;stroke-linejoin:round;}.cls-7{fill:#83d0f2;}.cls-8,.cls-9{stroke:#fff;}.cls-30,.cls-34,.cls-37,.cls-38,.cls-39,.cls-8,.cls-9{stroke-miterlimit:10;}.cls-37,.cls-38,.cls-39,.cls-9{stroke-width:2px;}.cls-10{fill:#217f2a;}.cls-11{fill:#e595b9;}.cls-12{fill:#7d5330;}.cls-13{fill:#5b4832;}.cls-14{fill:url(#linear-gradient-3);}.cls-15{fill:url(#linear-gradient-4);}.cls-16{fill:url(#linear-gradient-5);}.cls-17{fill:url(#linear-gradient-6);}.cls-18{fill:url(#linear-gradient-7);}.cls-19{fill:url(#linear-gradient-8);}.cls-20{fill:url(#linear-gradient-9);}.cls-21{fill:#fdd479;}.cls-22{fill:#d69b5f;}.cls-23{fill:#2b1a0a;}.cls-24,.cls-41,.cls-43{fill:#fff;}.cls-25{fill:#563a19;}.cls-26{fill:url(#linear-gradient-10);}.cls-27{fill:url(#linear-gradient-11);}.cls-28{fill:#467707;stroke:#406608;}.cls-28,.cls-29,.cls-30,.cls-31{stroke-width:1.2px;}.cls-29,.cls-30{fill:#1ca35f;stroke:#148248;}.cls-31{fill:#61c453;stroke:#428731;}.cls-32{fill:#f7931e;stroke-width:1.41px;}.cls-32,.cls-33{stroke:#e27407;}.cls-33{fill:#e27407;stroke-width:0.75px;}.cls-34{fill:#494a5e;}.cls-34,.cls-35{stroke:#393a49;}.cls-35{fill:#3e3c4d;}.cls-36{clip-path:url(#clip-path);}.cls-37,.cls-38,.cls-39{stroke:#29abe2;}.cls-38{stroke-dasharray:10.01 3.99 0.02 12 2 10.01;}.cls-39{stroke-dasharray:12.01 2 10.01 3.99 0.02 12;}.cls-40{opacity:0.47;}.cls-41{font-size:30.84px;}.cls-41,.cls-43{font-family:Roboto-Regular, Roboto;}.cls-42{letter-spacing:-0.01em;}.cls-43{font-size:58.68px;}</style><linearGradient id="linear-gradient" x1="602.39" y1="2.6" x2="602.39" y2="399.35" gradientUnits="userSpaceOnUse"><stop offset="0" stop-color="#ebff8c"/><stop offset="1" stop-color="#00d7e3"/></linearGradient><linearGradient id="linear-gradient-2" x1="4344.97" y1="4403.96" x2="4344.97" y2="4533.28" gradientTransform="matrix(1, 0, 0, -1, -3743.5, 4802.75)" gradientUnits="userSpaceOnUse"><stop offset="0" stop-color="#ebff8c"/><stop offset="1" stop-color="#00b243"/></linearGradient><linearGradient id="linear-gradient-3" x1="4184.24" y1="4501.4" x2="4225.46" y2="4501.4" gradientTransform="matrix(1, 0, 0, -1, -3743.5, 4802.75)" gradientUnits="userSpaceOnUse"><stop offset="0.5" stop-color="#006837"/><stop offset="0.5" stop-color="#39b54a"/><stop offset="1" stop-color="#39b54a"/></linearGradient><linearGradient id="linear-gradient-4" x1="4091.56" y1="4485.5" x2="4132.78" y2="4485.5" xlink:href="#linear-gradient-3"/><linearGradient id="linear-gradient-5" x1="4440.33" y1="4519.51" x2="4462.81" y2="4519.51" xlink:href="#linear-gradient-3"/><linearGradient id="linear-gradient-6" x1="4383.55" y1="4542.44" x2="4406.03" y2="4542.44" xlink:href="#linear-gradient-3"/><linearGradient id="linear-gradient-7" x1="4338.76" y1="4526.72" x2="4362.18" y2="4526.72" xlink:href="#linear-gradient-3"/><linearGradient id="linear-gradient-8" x1="4282.45" y1="4508.05" x2="4304.93" y2="4508.05" xlink:href="#linear-gradient-3"/><linearGradient id="linear-gradient-9" x1="4253.51" y1="4508.05" x2="4275.99" y2="4508.05" xlink:href="#linear-gradient-3"/><linearGradient id="linear-gradient-10" x1="-390.41" y1="-3445.78" x2="-386.16" y2="-3445.78" gradientTransform="translate(851.5 3817.76)" gradientUnits="userSpaceOnUse"><stop offset="0" stop-color="#d69b5f"/><stop offset="1" stop-color="#7d5330"/></linearGradient><linearGradient id="linear-gradient-11" x1="-462.11" y1="-3455.68" x2="-455.46" y2="-3455.68" xlink:href="#linear-gradient-10"/><clipPath id="clip-path"><rect class="cls-1" x="250.04" y="5.55" width="703.23" height="393.79"/></clipPath></defs><title>level3</title><g id="Layer_2" data-name="Layer 2"><g id="desktop"><g id="levels"><rect class="cls-2" x="251.48" y="2.6" width="701.81" height="396.75"/><g id="Layer_2-2" data-name="Layer 2"><g id="desktop-2" data-name="desktop"><g id="spring"><g class="cls-3"><polygon class="cls-4" points="636.09 74.71 581.5 168.72 574.24 156.21 493.81 294.71 631.65 294.71 650.83 286.61 630.46 270.8 618.03 221.4 648.34 192.25 640.34 185.45 656.79 172.99 633.44 93.45 636.09 74.71"/><polygon class="cls-5" points="631.65 294.71 786.19 294.71 683.06 117.09 671.88 136.35 636.42 75.45 633.44 93.45 656.79 172.99 640.34 185.45 648.34 192.25 618.03 221.4 630.46 270.8 650.83 286.61 631.65 294.71"/></g><polygon class="cls-5" points="450.16 37.34 523.02 162.81 532.72 146.1 640.04 330.94 456.1 330.94 430.5 320.13 457.69 299.04 474.26 233.11 433.81 194.21 444.5 185.13 422.54 168.5 453.71 62.35 450.16 37.34"/><polygon class="cls-4" points="456.1 330.94 249.84 330.94 387.48 93.91 402.4 119.6 449.73 38.33 453.71 62.35 422.54 168.5 444.5 185.13 433.81 194.21 474.26 233.11 457.69 299.04 430.5 320.13 456.1 330.94"/><polygon class="cls-4" points="827.31 85.06 772.72 179.07 765.46 166.56 685.03 305.06 822.87 305.06 842.05 296.96 821.68 281.15 809.25 231.75 839.56 202.61 831.56 195.8 848.01 183.34 824.66 103.81 827.31 85.06"/><polyline class="cls-5" points="954.26 265.36 874.28 127.45 863.1 146.7 827.64 85.8 824.66 103.81 848.01 183.34 831.56 195.8 839.56 202.61 809.25 231.75 821.68 281.15 842.05 296.96 822.87 305.06 954.76 305.06"/><path class="cls-6" d="M249.86,307.37s9.52-29.87,166.28.36,197.78-39.7,252-38.24,180.94,27.68,232.95,30.6,52-5.46,52-5.46V398.79H249.86Z"/><path class="cls-7" d="M483.19,315.48s68.84,35.06,128.19,46,122.35,37.88,122.35,37.88H600.39s-30.77-37.88-82.79-51.72S483.19,315.48,483.19,315.48Z"/><path class="cls-8" d="M487.93,324.14s-2.2,2.19,15.39,9.83,29.31,7.65,39.56,13.48"/><path class="cls-8" d="M663,387.15c3,1.36,17.38,11.19,15.39,9.83"/><path class="cls-8" d="M493.79,330.69s-2.2,2.19,15.39,9.83,29.31,7.65,39.56,13.48"/><path class="cls-9" d="M561.56,358a90.62,90.62,0,0,1,32.24,11.66c6.59,4,28.47,12.86,37.37,12.38"/><path class="cls-9" d="M589,362a175.27,175.27,0,0,0,33.7,9.83c18.32,3.28,23.08,6.56,23.08,6.56"/><path class="cls-9" d="M583.17,376.59a105.3,105.3,0,0,0,32.24,11.66c18.32,3.28,37.37,12.38,37.37,12.38"/><polygon class="cls-5" points="297.42 148.83 342.7 226.81 348.73 216.43 415.43 331.31 301.1 331.31 285.2 324.6 302.09 311.48 312.4 270.51 287.26 246.33 293.9 240.69 280.25 230.35 299.62 164.38 297.42 148.83"/><polygon class="cls-4" points="301.1 331.42 247.99 325.23 250.77 184.1 267.73 200.07 297.14 149.56 299.62 164.49 280.25 230.46 293.9 240.8 287.26 246.44 312.4 270.62 302.09 311.59 285.2 324.7 301.1 331.42"/><rect class="cls-10" x="250.04" y="377.9" width="351.43" height="20.71"/><rect class="cls-10" x="687.01" y="376.79" width="90.74" height="22.19"/><rect class="cls-10" x="862.53" y="376.42" width="90.74" height="22.19"/><ellipse class="cls-11" cx="407.82" cy="303" rx="34.55" ry="23.3"/><path class="cls-12" d="M405,290.42l.06.1Z"/><path class="cls-12" d="M423.36,315.51c-.19-.08-.37-.08-.44-.22a.25.25,0,0,1,0-.15,10,10,0,0,0,2.45-.28c-.42,0-.89-.1-1.38-.2a.25.25,0,0,1,.07-.18c.13-.11.34,0,.49-.06s.17-.2.13-.61a.65.65,0,0,1-.25.42c-.22.15-.45,0-.68.18a.51.51,0,0,0-.15.17,15.37,15.37,0,0,1-1.66-.45c0-.14.08-.27.11-.36a3.23,3.23,0,0,1,.22-.88,1.23,1.23,0,0,1,.44-.44,1,1,0,0,0-.66.44c-.14.24-.06.46-.22.88a2.58,2.58,0,0,1-.13.29c-.25-.09-.5-.18-.74-.29a15,15,0,0,1-1.4-.67q.74-1.35,1.35-2.64a3.16,3.16,0,0,0,1.16-.42,3.54,3.54,0,0,0,1.55-2.41,4.56,4.56,0,0,1-1,1.4.41.41,0,0,1-.1-.31c0-.2.24-.28.22-.44s-.13-.18-.22-.22a.66.66,0,0,1,0,.22c0,.22-.17.31-.22.44a.56.56,0,0,0,.11.5,4,4,0,0,1-1.24.69,56.76,56.76,0,0,0,2.24-5.57,35.85,35.85,0,0,1-3.5,6.8,1.72,1.72,0,0,1,0-.23,3.34,3.34,0,0,1,.22-1.31c.06-.25.15-.63.22-1.09a5.8,5.8,0,0,0-.44,1.09,6.34,6.34,0,0,0-.22,1.31v.64a34.25,34.25,0,0,1-4.43,5.28c-.37.36-.77.73-1.16,1.07a6.81,6.81,0,0,1-.39-.85,7,7,0,0,1-.44-2.63,4.86,4.86,0,0,0-.22,2.85,4.66,4.66,0,0,0,.45,1.17c-.89.76-1.77,1.43-2.62,2-.13-1.57-.3-3-.48-4.28-.24-1.65-.48-3-.74-4.24a29.38,29.38,0,0,0,3-3,6.34,6.34,0,0,0,1.78-.24,6.85,6.85,0,0,0,3.77-2.85,6.79,6.79,0,0,1-3.19,2,1.06,1.06,0,0,1,.08-.5,1.21,1.21,0,0,1,.89-.66,1.59,1.59,0,0,0-1.11.66,1.38,1.38,0,0,0-.21.58l-.45.07a5.6,5.6,0,0,1-.85,0,28.59,28.59,0,0,0,3.69-6.06,8,8,0,0,0,3.65-1.84,3.86,3.86,0,0,0,.61,0,4,4,0,0,0,1.77-.66,4.22,4.22,0,0,1-1.55.44,4.06,4.06,0,0,1-.58,0,8.08,8.08,0,0,0,1.24-1.54,6.63,6.63,0,0,1-2.88,2.19,6.42,6.42,0,0,1-.81.25,4.39,4.39,0,0,1,.37-.69,4.54,4.54,0,0,1,1.33-1.31,7.25,7.25,0,0,0-1.55,1.31,7.11,7.11,0,0,0-.6.78l-.57.07a29.32,29.32,0,0,0,1.84-6.77c-.24.73-.54,1.53-.92,2.4a1.07,1.07,0,0,1-.41-.21,1.71,1.71,0,0,1-.44-.88,2.32,2.32,0,0,0-.89-1.09,3.66,3.66,0,0,1,.66,1.09,9.52,9.52,0,0,0,.44,1.31,3.36,3.36,0,0,0,.31.49,29.26,29.26,0,0,1-4.48,6.93,4.24,4.24,0,0,1-.37-.55,2.92,2.92,0,0,0,.35-.94,3.17,3.17,0,0,0-.44-2.19,2.61,2.61,0,0,1,0,2,2.27,2.27,0,0,1-.29.47,7.14,7.14,0,0,1-.37-.91,7.48,7.48,0,0,1,0-4.6,9.17,9.17,0,0,0-.44,5c0,.12,0,.23.08.35a.42.42,0,0,1-.3.09c-.2,0-.29-.24-.44-.44a2.13,2.13,0,0,0-.89-.66,6.71,6.71,0,0,1,.66.88,3.4,3.4,0,0,0,.44.66,1.56,1.56,0,0,0,.8.39,9.07,9.07,0,0,0,.54,1.2,29.45,29.45,0,0,1-3.9,3.48c-.25-1.22-.51-2.55-.77-4.2-.34-2.17-.59-4.24-.78-6.2a9.34,9.34,0,0,0,2.11-2.58,9.5,9.5,0,0,0,1.11-5.47,7.34,7.34,0,0,1-1.77,4.82c-.14.16-.28.3-.42.43a1.59,1.59,0,0,1-.24-.43,2.16,2.16,0,0,1,.66-2.19,2.27,2.27,0,0,0-1.11,2.19,1.75,1.75,0,0,0,.33.73,6.93,6.93,0,0,1-.83.58c-.11-1.58-.18-3.07-.22-4.46a4.38,4.38,0,0,0,2.49-3.43,3.68,3.68,0,0,1-1.55,2.19,3.34,3.34,0,0,1-1,.4c0-2.13,0-4,.07-5.66-.33,2.78-.53,5.4-.62,7.85a3.67,3.67,0,0,1-1.06-.44,2.83,2.83,0,0,0,.13-.84,2.89,2.89,0,0,0-.37-1.4,1.77,1.77,0,0,1,.14,1.4,1.59,1.59,0,0,1-.32.54l-.12-.1a3.84,3.84,0,0,1-1.11-3.07,4.87,4.87,0,0,0,.66,3.73,4.76,4.76,0,0,0,2,1.66,89.58,89.58,0,0,0,.44,11.05c.46,4.52,1,6.43,1.33,10.52a1.65,1.65,0,0,0,0,.36q-.84-.36-1.73-.81a12.27,12.27,0,0,0-.06-2.42,13.06,13.06,0,0,0-2.88-6.57,13.19,13.19,0,0,1,2,6.57v.34a2.18,2.18,0,0,1-.66-.34,2.4,2.4,0,0,1-.89-1.76,3.46,3.46,0,0,0,1.52,2.8,6.64,6.64,0,0,1-.08.83c-.69-.36-1.4-.77-2.11-1.22s-1.65-1.07-2.42-1.62a7.1,7.1,0,0,0-.24-2.33,7.38,7.38,0,0,0-2.21-3.51A5.89,5.89,0,0,1,400,310a5.48,5.48,0,0,1-.11,1.56,40.9,40.9,0,0,1-6.76-6.6,38.37,38.37,0,0,0,3.13,4.65,4.07,4.07,0,0,1-.92,0,4.41,4.41,0,0,1-2.44-1.31,7,7,0,0,0,4.37,2.59,37,37,0,0,0,3.79,3.82,7.82,7.82,0,0,1-1.22.29,5,5,0,0,0-2.72-1,2.88,2.88,0,0,1,1.33.66,2.77,2.77,0,0,1,.39.43h-.17a8,8,0,0,1-4.76-1.51,9.45,9.45,0,0,0,4.88,2.41,9.32,9.32,0,0,0,3.57-.11l.42.33a37.07,37.07,0,0,0,5.49,3.48,66.07,66.07,0,0,1-1.72,16.47h4a82.07,82.07,0,0,0,.5-11.28,56.43,56.43,0,0,0,5-6.11,6.7,6.7,0,0,0,1.15.29,7.28,7.28,0,0,0,4.21-.66,7.62,7.62,0,0,1-4,.22,7.11,7.11,0,0,1-1-.32c1-1.38,1.8-2.74,2.58-4.07a9.26,9.26,0,0,0,3.82.94.64.64,0,0,0,.2.36,1.91,1.91,0,0,0,.44.22l.44.22A1,1,0,0,0,423.36,315.51Z"/><path class="cls-11" d="M953.81,350.15c-10.14,6-19.42,9.68-34,9.68-31.76,0-57.51-17.37-57.51-38.79s25.75-38.79,57.51-38.79a70.44,70.44,0,0,1,33.85,8.17"/><path class="cls-12" d="M915.06,300.1l.1.17C915.12,300.19,915.08,300.14,915.06,300.1Z"/><path class="cls-12" d="M945.54,342c-.31-.14-.63-.14-.74-.37a.42.42,0,0,1,0-.26,16.44,16.44,0,0,0,4.07-.47c-.7-.07-1.47-.17-2.29-.33a.42.42,0,0,1,.11-.3c.21-.19.57.05.82-.1s.28-.33.21-1a1.1,1.1,0,0,1-.41.71c-.37.25-.75,0-1.13.3a.85.85,0,0,0-.25.28,25.41,25.41,0,0,1-2.76-.75c.08-.23.14-.45.18-.62a5.5,5.5,0,0,1,.37-1.46,2.05,2.05,0,0,1,.74-.73,1.68,1.68,0,0,0-1.1.73c-.23.41-.1.76-.37,1.46a4.32,4.32,0,0,1-.22.48c-.41-.15-.83-.3-1.25-.48a24.85,24.85,0,0,1-2.33-1.12q1.22-2.25,2.24-4.39a5.23,5.23,0,0,0,1.93-.7,5.91,5.91,0,0,0,2.58-4,7.62,7.62,0,0,1-1.67,2.34.69.69,0,0,1-.17-.51c0-.33.4-.47.37-.73s-.22-.3-.37-.37a1.11,1.11,0,0,1,0,.37c-.06.37-.28.51-.37.73a1,1,0,0,0,.18.83,6.68,6.68,0,0,1-2.05,1.16,95.05,95.05,0,0,0,3.71-9.3,60,60,0,0,1-5.81,11.34,2.87,2.87,0,0,1-.08-.37,5.66,5.66,0,0,1,.37-2.2c.11-.42.25-1,.37-1.83a9.72,9.72,0,0,0-.74,1.83,10.64,10.64,0,0,0-.37,2.2,7.4,7.4,0,0,0,0,1.07,57.09,57.09,0,0,1-7.36,8.81c-.64.63-1.28,1.22-1.92,1.79a11.39,11.39,0,0,1-.65-1.42,11.71,11.71,0,0,1-.74-4.39,8.16,8.16,0,0,0-.37,4.76,7.81,7.81,0,0,0,.74,1.95,54.81,54.81,0,0,1-4.36,3.36c-.22-2.61-.5-5-.8-7.14-.39-2.75-.8-5-1.22-7.07a48.92,48.92,0,0,0,4.89-5,10.44,10.44,0,0,0,2.94-.4,11.37,11.37,0,0,0,6.26-4.76,11.27,11.27,0,0,1-5.29,3.4,1.77,1.77,0,0,1,.14-.84,2,2,0,0,1,1.47-1.1,2.64,2.64,0,0,0-1.84,1.1,2.31,2.31,0,0,0-.37,1c-.24.05-.49.1-.74.12a9.23,9.23,0,0,1-1.41.05,47.78,47.78,0,0,0,6.11-10.12,13.32,13.32,0,0,0,6.06-3.08,6.38,6.38,0,0,0,1,0,6.67,6.67,0,0,0,2.94-1.1,7,7,0,0,1-2.58.73,6.7,6.7,0,0,1-1,0,13.47,13.47,0,0,0,2.06-2.56,11,11,0,0,1-4.78,3.66,10.61,10.61,0,0,1-1.35.42,7.35,7.35,0,0,1,.61-1.15,7.55,7.55,0,0,1,2.21-2.2,12.06,12.06,0,0,0-2.58,2.2,11.85,11.85,0,0,0-1,1.31c-.33.05-.65.1-.94.12a49.18,49.18,0,0,0,3-11.31c-.4,1.19-.9,2.56-1.53,4a1.78,1.78,0,0,1-.68-.37,2.87,2.87,0,0,1-.74-1.46,3.87,3.87,0,0,0-1.47-1.83,6.12,6.12,0,0,1,1.1,1.83,16,16,0,0,0,.74,2.2,5.61,5.61,0,0,0,.51.82A48.88,48.88,0,0,1,929,323.31c-.21-.27-.43-.58-.64-.92a4.89,4.89,0,0,0,.58-1.57,5.31,5.31,0,0,0-.74-3.66,4.39,4.39,0,0,1,0,3.29,3.78,3.78,0,0,1-.48.79,12,12,0,0,1-.63-1.53,12.55,12.55,0,0,1,0-7.68,15.39,15.39,0,0,0-.74,8.42c0,.2.08.39.13.58a.7.7,0,0,1-.5.15c-.32,0-.48-.4-.74-.73a3.55,3.55,0,0,0-1.47-1.1,11.19,11.19,0,0,1,1.1,1.46,5.67,5.67,0,0,0,.74,1.1,2.58,2.58,0,0,0,1.33.65,15.2,15.2,0,0,0,.89,2,49,49,0,0,1-6.47,5.8c-.42-2-.84-4.26-1.28-7-.57-3.62-1-7.07-1.29-10.33a15.57,15.57,0,0,0,3.5-4.3,15.93,15.93,0,0,0,1.84-9.15,12.26,12.26,0,0,1-2.94,8c-.23.26-.47.5-.71.73a2.67,2.67,0,0,1-.4-.73,3.64,3.64,0,0,1,1.1-3.66,3.8,3.8,0,0,0-1.84,3.66,2.92,2.92,0,0,0,.55,1.23,11.5,11.5,0,0,1-1.37,1c-.19-2.63-.31-5.12-.37-7.45a7.36,7.36,0,0,0,2.29-1.7,7.47,7.47,0,0,0,1.84-4,6.15,6.15,0,0,1-2.58,3.66,5.5,5.5,0,0,1-1.59.67c-.06-3.56,0-6.74.11-9.45-.55,4.64-.87,9-1,13.11a6.08,6.08,0,0,1-1.77-.73,4.73,4.73,0,0,0,.22-1.41,4.85,4.85,0,0,0-.61-2.34,3,3,0,0,1,.24,2.34,2.66,2.66,0,0,1-.54.9l-.2-.16a6.44,6.44,0,0,1-1.84-5.12,8.16,8.16,0,0,0,1.1,6.22,7.91,7.91,0,0,0,3.31,2.77,150.34,150.34,0,0,0,.74,18.45c.77,7.55,1.68,10.72,2.21,17.56,0,.22,0,.42,0,.64q-1.41-.62-2.88-1.36a20.61,20.61,0,0,0-.11-4,21.89,21.89,0,0,0-4.78-11,22.1,22.1,0,0,1,3.31,11v.57a3.62,3.62,0,0,1-1.1-.57,4,4,0,0,1-1.47-2.93,5.86,5.86,0,0,0,1.1,3.29,5.77,5.77,0,0,0,1.43,1.38c0,.48-.07.94-.13,1.38-1.15-.62-2.32-1.29-3.51-2-1.41-.87-2.75-1.78-4-2.7a11.91,11.91,0,0,0-.4-3.89,12.33,12.33,0,0,0-3.68-5.85,9.85,9.85,0,0,1,2.58,5.85,9.2,9.2,0,0,1-.19,2.6,68.07,68.07,0,0,1-11.22-11,64.06,64.06,0,0,0,5.2,7.75,6.73,6.73,0,0,1-1.52-.07,7.3,7.3,0,0,1-4-2.2,11.6,11.6,0,0,0,7.25,4.32,61.64,61.64,0,0,0,6.29,6.37,12.91,12.91,0,0,1-2,.49,8.36,8.36,0,0,0-4.52-1.67,4.77,4.77,0,0,1,2.21,1.1,4.61,4.61,0,0,1,.66.73h-.29a13.23,13.23,0,0,1-7.73-2.56,15.65,15.65,0,0,0,8.1,4,15.4,15.4,0,0,0,5.92-.19l.7.56a61.5,61.5,0,0,0,9.12,5.8,110.86,110.86,0,0,1-2.86,27.49h6.62a137.73,137.73,0,0,0,.83-18.83,94.08,94.08,0,0,0,8.31-10.19,11,11,0,0,0,1.91.48,12,12,0,0,0,7-1.1,12.58,12.58,0,0,1-6.62.37,11.75,11.75,0,0,1-1.73-.53c1.59-2.3,3-4.57,4.27-6.79a15.31,15.31,0,0,0,6.34,1.57,1.1,1.1,0,0,0,.33.63,3.15,3.15,0,0,0,.74.37c.32.15.57.27.74.37A1.63,1.63,0,0,0,945.54,342Z"/><ellipse class="cls-11" cx="781.08" cy="287.3" rx="32.32" ry="21.8"/><path class="cls-12" d="M778.4,275.53l.06.1Z"/><path class="cls-12" d="M795.77,299.16c-.17-.08-.37-.08-.42-.2a.23.23,0,0,1,0-.15,9.46,9.46,0,0,0,2.31-.27c-.4,0-.83-.09-1.3-.18a.23.23,0,0,1,.06-.17c.12-.11.32,0,.46-.05s.16-.18.12-.57a.6.6,0,0,1-.23.4c-.21.14-.43,0-.64.17a.48.48,0,0,0-.14.16,14.56,14.56,0,0,1-1.57-.42c0-.13.08-.25.1-.35a3,3,0,0,1,.21-.82,1.15,1.15,0,0,1,.42-.41,1,1,0,0,0-.63.41c-.13.23-.06.43-.21.82a2.4,2.4,0,0,1-.13.27l-.71-.27a14.17,14.17,0,0,1-1.32-.62q.69-1.26,1.26-2.46a3,3,0,0,0,1.11-.39,3.29,3.29,0,0,0,1.46-2.24,4.25,4.25,0,0,1-.95,1.3.38.38,0,0,1-.1-.28c0-.18.23-.27.21-.41s-.13-.17-.21-.2a.61.61,0,0,1,0,.2c0,.2-.16.28-.21.41a.52.52,0,0,0,.1.46,3.8,3.8,0,0,1-1.16.65,52.55,52.55,0,0,0,2.1-5.19,33.27,33.27,0,0,1-3.29,6.34,1.58,1.58,0,0,1,0-.21,3.1,3.1,0,0,1,.21-1.22c.06-.24.14-.58.21-1a5.39,5.39,0,0,0-.42,1,5.86,5.86,0,0,0-.21,1.22v.6a32,32,0,0,1-4.16,4.91c-.37.36-.74.68-1.09,1a6.32,6.32,0,0,1-.37-.8,6.45,6.45,0,0,1-.42-2.45,4.48,4.48,0,0,0-.21,2.66,4.3,4.3,0,0,0,.42,1.09c-.84.7-1.67,1.33-2.47,1.88-.12-1.45-.28-2.79-.45-4-.22-1.54-.45-2.78-.69-3.94a27.52,27.52,0,0,0,2.77-2.78,6,6,0,0,0,1.67-.22,6.43,6.43,0,0,0,3.54-2.66,6.39,6.39,0,0,1-3,1.9,1,1,0,0,1,.08-.46,1.14,1.14,0,0,1,.83-.61,1.49,1.49,0,0,0-1,.61,1.28,1.28,0,0,0-.2.54l-.43.07a5.3,5.3,0,0,1-.8,0,26.59,26.59,0,0,0,3.46-5.64,7.59,7.59,0,0,0,3.43-1.72,3.67,3.67,0,0,0,.57,0,3.82,3.82,0,0,0,1.62-.6,4,4,0,0,1-1.46.41,3.85,3.85,0,0,1-.55,0,7.53,7.53,0,0,0,1.17-1.43,6.22,6.22,0,0,1-2.71,2,6.07,6.07,0,0,1-.76.24,4.08,4.08,0,0,1,.34-.64,4.25,4.25,0,0,1,1.25-1.22,6.8,6.8,0,0,0-1.46,1.22,6.62,6.62,0,0,0-.57.73l-.53.07a27.1,27.1,0,0,0,1.72-6.31c-.22.66-.51,1.42-.86,2.24a1,1,0,0,1-.37-.2,1.58,1.58,0,0,1-.42-.82,2.17,2.17,0,0,0-.83-1,3.41,3.41,0,0,1,.63,1,8.81,8.81,0,0,0,.42,1.22,3.12,3.12,0,0,0,.29.45,27.22,27.22,0,0,1-4.2,6.46c-.12-.15-.24-.32-.37-.51a2.7,2.7,0,0,0,.33-.88,2.93,2.93,0,0,0-.42-2,2.41,2.41,0,0,1,0,1.84,2.11,2.11,0,0,1-.27.44,6.62,6.62,0,0,1-.37-.85,6.9,6.9,0,0,1,0-4.29,8.46,8.46,0,0,0-.42,4.7c0,.11,0,.22.07.32a.4.4,0,0,1-.28.09c-.19,0-.27-.22-.42-.41a2,2,0,0,0-.83-.61,6.25,6.25,0,0,1,.63.82,3.16,3.16,0,0,0,.42.61,1.47,1.47,0,0,0,.74.36,8.42,8.42,0,0,0,.51,1.12,27.62,27.62,0,0,1-3.66,3.24c-.23-1.13-.47-2.38-.72-3.92-.32-2-.56-3.94-.74-5.76a8.62,8.62,0,0,0,3-7.5A6.8,6.8,0,0,1,782,280q-.2.22-.4.4a1.48,1.48,0,0,1-.23-.4,2,2,0,0,1,.63-2,2.11,2.11,0,0,0-1,2,1.62,1.62,0,0,0,.31.69,6.51,6.51,0,0,1-.78.54c-.11-1.45-.17-2.86-.21-4.16a4.09,4.09,0,0,0,2.34-3.19,3.43,3.43,0,0,1-1.46,2,3.14,3.14,0,0,1-.9.36c0-2,0-3.76.07-5.27-.32,2.59-.49,5-.58,7.32a3.47,3.47,0,0,1-1-.41,2.61,2.61,0,0,0,.12-.78,2.67,2.67,0,0,0-.34-1.31,1.64,1.64,0,0,1,.14,1.31,1.48,1.48,0,0,1-.3.5l-.11-.09a3.56,3.56,0,0,1-1-2.86,4.33,4.33,0,0,0,2.51,5,82.64,82.64,0,0,0,.41,10.29c.44,4.21.95,6,1.25,9.81a2,2,0,0,0,0,.36l-1.63-.76a11.33,11.33,0,0,0-.06-2.25A12.12,12.12,0,0,0,777,291a12.2,12.2,0,0,1,1.88,6.12v.32a2.06,2.06,0,0,1-.62-.32,2.23,2.23,0,0,1-.83-1.63,3.22,3.22,0,0,0,1.44,2.61,5.72,5.72,0,0,1-.07.77c-.65-.36-1.31-.73-2-1.13s-1.55-1-2.27-1.5a6.55,6.55,0,0,0-.23-2.18,6.86,6.86,0,0,0-2.08-3.27,5.47,5.47,0,0,1,1.46,3.27,5.06,5.06,0,0,1-.11,1.45,38.28,38.28,0,0,1-6.35-6.15,35.72,35.72,0,0,0,3,4.33,3.87,3.87,0,0,1-.86,0,4.15,4.15,0,0,1-2.29-1.22,6.59,6.59,0,0,0,4.11,2.41,34.64,34.64,0,0,0,3.56,3.56,7.4,7.4,0,0,1-1.15.27,4.78,4.78,0,0,0-2.56-.93,2.72,2.72,0,0,1,1.25.61,2.59,2.59,0,0,1,.37.4h-.16a7.57,7.57,0,0,1-4.38-1.43,8.77,8.77,0,0,0,7.92,2.14l.4.31a34.9,34.9,0,0,0,5.16,3.24,61,61,0,0,1-1.62,15.34h3.75a75.69,75.69,0,0,0,.47-10.51,52.66,52.66,0,0,0,4.7-5.68,6.33,6.33,0,0,0,1.08.27,6.91,6.91,0,0,0,4-.61,7.23,7.23,0,0,1-3.75.2,6.73,6.73,0,0,1-1-.3c.9-1.28,1.7-2.54,2.41-3.79a8.78,8.78,0,0,0,3.59.88.6.6,0,0,0,.19.36,1.8,1.8,0,0,0,.42.2l.42.2A.91.91,0,0,0,795.77,299.16Z"/><ellipse class="cls-11" cx="294.8" cy="331.67" rx="46.81" ry="31.58"/><path class="cls-12" d="M290.92,314.62l.08.14A1,1,0,0,1,290.92,314.62Z"/><path class="cls-12" d="M315.83,348.55c-.25-.12-.51-.11-.6-.3a.34.34,0,0,1,0-.21,13.32,13.32,0,0,0,3.3-.38c-.57-.05-1.19-.14-1.86-.27a.34.34,0,0,1,.09-.25c.17-.15.46,0,.66-.08s.23-.27.17-.82a.88.88,0,0,1-.33.57c-.3.2-.61,0-.91.24a.69.69,0,0,0-.21.23,20.59,20.59,0,0,1-2.24-.61c.07-.19.11-.36.15-.5a4.53,4.53,0,0,1,.3-1.19,1.66,1.66,0,0,1,.61-.58,1.36,1.36,0,0,0-.89.59c-.19.33-.08.62-.3,1.19a3.5,3.5,0,0,1-.18.39c-.33-.12-.67-.24-1-.39a20.13,20.13,0,0,1-1.89-.91q1-1.82,1.81-3.57a4.24,4.24,0,0,0,1.56-.56,4.76,4.76,0,0,0,2.09-3.28,6.17,6.17,0,0,1-1.35,1.9.56.56,0,0,1-.14-.42c0-.27.33-.38.3-.59s-.18-.24-.3-.3a.9.9,0,0,1,0,.3c-.05.3-.23.41-.3.59a.77.77,0,0,0,.15.67,5.41,5.41,0,0,1-1.67.94,77,77,0,0,0,3-7.54,48.58,48.58,0,0,1-4.71,9.2,2.34,2.34,0,0,1-.06-.31,4.61,4.61,0,0,1,.3-1.78c.08-.34.2-.85.3-1.48a7.88,7.88,0,0,0-.6,1.48,8.62,8.62,0,0,0-.3,1.78,5.68,5.68,0,0,0,0,.87,46.26,46.26,0,0,1-5.95,7.14c-.52.51-1,1-1.56,1.46a9.24,9.24,0,0,1-.53-1.15,9.49,9.49,0,0,1-.6-3.56,6.61,6.61,0,0,0-.3,3.85,6.33,6.33,0,0,0,.6,1.58c-1.2,1-2.39,1.93-3.53,2.72-.18-2.12-.4-4.05-.64-5.78-.32-2.23-.64-4-1-5.73a39.64,39.64,0,0,0,3.94-4,8.47,8.47,0,0,0,2.4-.32,9.22,9.22,0,0,0,5.07-3.85,9.13,9.13,0,0,1-4.29,2.75,1.45,1.45,0,0,1,.11-.68,1.63,1.63,0,0,1,1.19-.89,2.14,2.14,0,0,0-1.49.89,1.87,1.87,0,0,0-.29.79l-.61.1a7.48,7.48,0,0,1-1.14,0,38.72,38.72,0,0,0,5-8.2,10.79,10.79,0,0,0,4.92-2.49,5.16,5.16,0,0,0,.82,0,5.41,5.41,0,0,0,2.39-.89,5.66,5.66,0,0,1-2.09.59,5.43,5.43,0,0,1-.78,0,10.91,10.91,0,0,0,1.67-2.08,8.92,8.92,0,0,1-3.89,3,8.6,8.6,0,0,1-1.1.34,6,6,0,0,1,.49-.93,6.12,6.12,0,0,1,1.79-1.78,9.77,9.77,0,0,0-2.09,1.78,9.61,9.61,0,0,0-.81,1.06c-.27,0-.53.08-.76.09a39.83,39.83,0,0,0,2.47-9.16c-.32,1-.73,2.06-1.24,3.25a1.44,1.44,0,0,1-.55-.28,2.34,2.34,0,0,1-.6-1.19,3.14,3.14,0,0,0-1.19-1.48,5,5,0,0,1,.89,1.48,12.07,12.07,0,0,0,.6,1.78,4.54,4.54,0,0,0,.42.66,39.6,39.6,0,0,1-6,9.36c-.17-.22-.34-.47-.52-.73a4,4,0,0,0,.47-1.27,4.3,4.3,0,0,0-.6-3,3.55,3.55,0,0,1,0,2.67,3.07,3.07,0,0,1-.39.64,9.69,9.69,0,0,1-.51-1.23,10.17,10.17,0,0,1,0-6.23,12.47,12.47,0,0,0-.59,6.81c0,.16.07.31.1.47a.57.57,0,0,1-.4.12c-.26,0-.39-.32-.6-.59a2.87,2.87,0,0,0-1.19-.89,9.07,9.07,0,0,1,.89,1.19,4.6,4.6,0,0,0,.6.89,2.1,2.1,0,0,0,1.08.53,12.32,12.32,0,0,0,.73,1.63,39.7,39.7,0,0,1-5.24,4.71c-.34-1.64-.68-3.45-1-5.69-.47-2.93-.8-5.73-1-8.38a12.61,12.61,0,0,0,2.84-3.49,12.91,12.91,0,0,0,1.49-7.41,10,10,0,0,1-2.39,6.52,6.69,6.69,0,0,1-.57.59,2.16,2.16,0,0,1-.32-.59,2.94,2.94,0,0,1,.89-3,3.06,3.06,0,0,0-1.49,3,2.38,2.38,0,0,0,.45,1,9.32,9.32,0,0,1-1.1.78c-.15-2.13-.25-4.15-.3-6a6,6,0,0,0,1.86-1.38,6.05,6.05,0,0,0,1.49-3.28,5,5,0,0,1-2.09,3,4.46,4.46,0,0,1-1.29.54c-.05-2.89,0-5.46.09-7.65-.45,3.76-.71,7.29-.83,10.62a4.92,4.92,0,0,1-1.43-.59,3.85,3.85,0,0,0,.18-1.14,3.93,3.93,0,0,0-.49-1.9,2.41,2.41,0,0,1,.19,1.9,2.15,2.15,0,0,1-.44.73h0a5.17,5.17,0,0,1-1.64-4.29,6.62,6.62,0,0,0,.89,5,6.41,6.41,0,0,0,2.69,2.25,121.82,121.82,0,0,0,.59,14.94c.62,6.12,1.36,8.69,1.79,14.23,0,.17,0,.34,0,.52q-1.14-.5-2.33-1.09a16.7,16.7,0,0,0-.08-3.28,17.74,17.74,0,0,0-3.88-8.9,17.91,17.91,0,0,1,2.69,9.11l-.24.17a2.94,2.94,0,0,1-.66-.38,3.27,3.27,0,0,1-1.19-2.37,4.75,4.75,0,0,0,.89,2.67,4.67,4.67,0,0,0,1.16,1.12c0,.39-.06.76-.11,1.12-.93-.5-1.88-1-2.84-1.64-1.14-.71-2.22-1.46-3.25-2.19a9.65,9.65,0,0,0-.33-3.15,10,10,0,0,0-3-4.74,8,8,0,0,1,2.09,4.74,7.45,7.45,0,0,1-.16,2.11A55.17,55.17,0,0,1,275,334.3a51.91,51.91,0,0,0,4.22,6.28,5.45,5.45,0,0,1-1.23-.06,5.92,5.92,0,0,1-3.3-1.78,9.45,9.45,0,0,0,5.89,3.5,49.93,49.93,0,0,0,5.1,5.18,10.46,10.46,0,0,1-1.64.4,6.77,6.77,0,0,0-3.66-1.35,3.87,3.87,0,0,1,1.79.89,3.74,3.74,0,0,1,.53.59h-.23a10.72,10.72,0,0,1-6.26-2.08,12.68,12.68,0,0,0,6.55,3.27,12.47,12.47,0,0,0,4.8-.15c.19.15.37.3.57.45a49.83,49.83,0,0,0,7.39,4.7,89.84,89.84,0,0,1-2.32,22.28h5.37a111.6,111.6,0,0,0,.69-15.26,76.22,76.22,0,0,0,6.73-8.26,9,9,0,0,0,1.55.39,9.75,9.75,0,0,0,5.65-.89,10.2,10.2,0,0,1-5.37.3,9.52,9.52,0,0,1-1.4-.43c1.29-1.86,2.43-3.7,3.45-5.5A12.4,12.4,0,0,0,315,348a.87.87,0,0,0,.26.51,2.57,2.57,0,0,0,.6.3c.26.12.46.22.6.3A1.32,1.32,0,0,0,315.83,348.55Z"/><polygon class="cls-13" points="461.27 325.94 461.27 325.89 459.04 325.94 459.04 334.27 461.27 334.27 463.5 334.27 463.5 325.89 461.27 325.94"/><polygon class="cls-14" points="481.96 325.77 472.52 309.5 476.7 309.5 469.61 297.29 473.17 297.29 461.36 276.94 449.54 297.29 453.1 297.29 446.01 309.5 450.19 309.5 440.74 325.77 481.96 325.77"/><polygon class="cls-13" points="368.67 341.84 368.67 341.79 366.44 341.84 366.44 350.17 368.67 350.17 370.9 350.17 370.9 341.79 368.67 341.84"/><polygon class="cls-15" points="389.29 341.67 379.84 325.4 384.02 325.4 376.93 313.19 380.49 313.19 368.68 292.84 356.86 313.19 360.42 313.19 353.33 325.4 357.51 325.4 348.06 341.67 389.29 341.67"/><polygon class="cls-13" points="708.2 296.79 708.2 296.76 707.09 296.79 707.09 301.36 708.2 301.36 709.32 301.36 709.32 296.76 708.2 296.79"/><polygon class="cls-16" points="719.31 296.56 714.16 287.68 716.44 287.68 712.58 281.02 714.52 281.02 708.08 269.92 701.63 281.02 703.57 281.02 699.7 287.68 701.99 287.68 696.83 296.56 719.31 296.56"/><polygon class="cls-13" points="651.3 273.87 651.3 273.84 650.19 273.87 650.19 278.44 651.3 278.44 652.42 278.44 652.42 273.84 651.3 273.87"/><polygon class="cls-17" points="662.53 273.63 657.38 264.75 659.66 264.75 655.8 258.1 657.74 258.1 651.29 247 644.85 258.1 646.79 258.1 642.92 264.75 645.21 264.75 640.05 273.63 662.53 273.63"/><polygon class="cls-13" points="607.05 289.39 607.05 289.37 605.93 289.39 605.93 293.97 607.05 293.97 608.17 293.97 608.17 289.37 607.05 289.39"/><polygon class="cls-18" points="618.68 289.53 613.31 280.29 615.34 280.29 611.47 273.63 613.42 273.63 606.97 262.53 600.52 273.63 602.46 273.63 598.6 280.29 600.63 280.29 595.26 289.53 618.68 289.53"/><polygon class="cls-13" points="550.15 307.88 550.15 307.85 549.04 307.88 549.04 312.45 550.15 312.45 551.27 312.45 551.27 307.85 550.15 307.88"/><polygon class="cls-19" points="561.43 308.02 556.28 299.14 558.56 299.14 554.69 292.49 556.63 292.49 550.19 281.39 543.74 292.49 545.68 292.49 541.82 299.14 544.1 299.14 538.95 308.02 561.43 308.02"/><polygon class="cls-13" points="521.14 307.88 521.14 307.85 520.03 307.88 520.03 312.45 521.14 312.45 522.26 312.45 522.26 307.85 521.14 307.88"/><polygon class="cls-20" points="532.49 308.02 527.34 299.14 529.62 299.14 525.75 292.49 527.7 292.49 521.25 281.39 514.8 292.49 516.74 292.49 512.88 299.14 515.16 299.14 510.01 308.02 532.49 308.02"/><g id="Layer_2-2-2" data-name="Layer 2-2"><g id="Layer_1-2" data-name="Layer 1-2"><path class="cls-21" d="M474.31,355.57s-4.82-6.52-24.84-5c-16.54,1.22-15-29.93-47.4-1.92-2.14,1.74-4.68,6.26-5.4,9.58s-4.68,3-5.13,3.82,11.77,5.74,20.72-2.61,18.59,13.75,32.5,13.05c0,0,11.07,6.09,15.89,3.48s3-3.3,3-3.3-.28.17-2.14-.53-5.82-3.82-.43-4c0,0,2.84-.08,6.67-3.13,1-.8-.07-1.46-.81-3.44.87,0,3.81.6,4,.36s.45-.53.65-.82A13.13,13.13,0,0,0,474.31,355.57Z"/><path class="cls-22" d="M474.31,355.48a13.61,13.61,0,0,1-2.67,5.52q-.3.4-.65.82c-.19.22-3.12-.36-4-.36.73,2,1.83,2.66.81,3.44-3.85,3-6.7,3.13-6.7,3.13-5.4.17-1.42,3.3.43,4s2.14.53,2.14.53,1.83.7-3,3.3-15.89-3.48-15.89-3.48c-13.92.7-23.55-21.4-32.5-13.05s-21.16,3.47-20.73,2.61,4.4-.53,5.13-3.82,3.26-7.83,5.4-9.58c0,0-3.12,10.5,0,9.47s15.14-4.17,18.16-9.45,11.36,11.17,18.16,14.79,14,6.38,14.95,5.22-.8-9-.8-9,5.41,6.79,8.56,5.73-2.48-8.1-.65-9.43S474.31,355.48,474.31,355.48Z"/><path class="cls-23" d="M462,355.94a2.45,2.45,0,1,1,2.4,2.94,2.72,2.72,0,0,1-2.4-2.94"/><path class="cls-24" d="M465.34,355.18a.63.63,0,1,0-.62.75.7.7,0,0,0,.62-.75"/><path class="cls-25" d="M474.47,355.35h-3.9v2.23c0,1.15,1.6,2.09,2.56,2.09C474.36,357.34,474.5,356.4,474.47,355.35Z"/><path class="cls-22" d="M454.43,354.18l-1.23.46a1.35,1.35,0,0,0-.56,1.83l.09.15,1.7,2.44-3.58-3.33c-.45-.42-.23-1.3.33-1.33Z"/><path class="cls-26" d="M461.1,371.9s2.29-1,2.47-1.89a11.46,11.46,0,0,0,0,1.17l1.14-2a17.34,17.34,0,0,0,0,2.09s0,1.5.62.12a3.28,3.28,0,0,1-2.75,3.36Z"/><path class="cls-27" d="M395.6,363.77s-4.82,2.3-6.21-1.06c0,0,2.14.7,2.14,0,0,0-.84.23-1-1.86a3.63,3.63,0,0,0,2,0s-1.23-.35-.94-1.22a13.44,13.44,0,0,0,2.36,1.42l2.14,2.82Z"/><path class="cls-22" d="M412.26,341s-6.73-.45-3.78-7.65c0,0-7.49,1.06-7,5.32s6.76,5,6.76,5Z"/></g></g><polygon class="cls-28" points="659.12 320.22 659.99 319.6 657.82 317.89 652.72 320.21 655.02 315.52 653.24 313.31 651.69 315.32 650.34 322.54 659.12 320.22"/><path class="cls-29" d="M647.93,321.2a19.13,19.13,0,0,0,1.75-3.43c.15-.73.26-3.43.26-3.43l1.41,1.21,1.89-1.21a15.3,15.3,0,0,1-1.42,5.34c-1.16,2-2,3.43-2,3.43Z"/><path class="cls-30" d="M649.78,323.09s4.76-2.59,6.4-2.74,2.93-.14,2.93-.14l-1.74,1.46,1.34,1.46s-3.66.18-4.87,1-2.44,1.9-2.44,1.9Z"/><path class="cls-31" d="M652.72,320.21l3.53-7.23a4,4,0,0,0,3.92,3.84Z"/><path class="cls-32" d="M650.94,333.9h0a7.62,7.62,0,0,0-.5-10.81,7.73,7.73,0,0,0-10.35,0h0L628.87,345l22.07-11.11Z"/><polygon class="cls-33" points="650.94 333.9 647.26 330.23 649.35 334.71 650.94 333.9"/><polygon class="cls-33" points="637.3 328.52 639.93 331.14 636.76 329.6 637.3 328.52"/><polygon class="cls-33" points="638.54 340.14 635.92 338.85 637.66 340.59 638.54 340.14"/><polygon class="cls-33" points="635.8 331.47 640.17 334.63 635 333.41 635.8 331.47"/><ellipse class="cls-34" cx="824.63" cy="332.98" rx="5.57" ry="5.54"/><polygon class="cls-35" points="827.61 333.01 826.12 334.21 826.82 335.99 825.03 335.31 823.84 336.8 823.54 334.92 821.64 334.63 823.13 333.43 822.42 331.66 824.22 332.34 825.41 330.85 825.71 332.73 827.61 333.01"/><ellipse class="cls-34" cx="816.2" cy="339.53" rx="5.57" ry="5.54"/><polygon class="cls-35" points="819.18 339.57 817.69 340.77 818.4 342.54 816.61 341.86 815.41 343.35 815.11 341.47 813.21 341.19 814.7 339.99 814 338.21 815.79 338.9 816.98 337.4 817.29 339.29 819.18 339.57"/><ellipse class="cls-34" cx="827.56" cy="343.18" rx="5.57" ry="5.54"/><polygon class="cls-35" points="830.54 343.21 829.05 344.41 829.75 346.18 827.96 345.5 826.77 347 826.47 345.11 824.57 344.83 826.06 343.63 825.35 341.86 827.15 342.54 828.34 341.05 828.64 342.93 830.54 343.21"/><path class="cls-24" d="M489.06,120.19a5.15,5.15,0,0,1,0-.55c0-4.46,5.75-8.07,12.85-8.07a18.21,18.21,0,0,1,7.79,1.65,11.54,11.54,0,0,1-1.26-5.21,11.86,11.86,0,0,1,2.12-6.68c-5.54-1.06-7.76-4.16-7.76-7.82,0-4.53,4.37-8.21,12-8.21a22.14,22.14,0,0,1,4.85.52,27.42,27.42,0,0,1,31.5-15.35A9.55,9.55,0,1,1,569.78,74a8.88,8.88,0,0,1,12,6.92,7.94,7.94,0,0,1,.09,1.28,6.15,6.15,0,0,1,0,.8,20.14,20.14,0,0,1,6.4,21.57,11.63,11.63,0,0,1,14.17,8.29q.14.53.23,1.08a12.52,12.52,0,0,1,2.75-.3c4.56,0,8.25,2.36,8.25,5.27a3.5,3.5,0,0,1-.25,1.3Z"/><g class="cls-36"><line class="cls-37" x1="0.8" y1="398.73" x2="2.11" y2="396.97"/><line class="cls-38" x1="2.54" y1="396.38" x2="11.64" y2="384.04"/><line class="cls-39" x1="11.64" y1="384.04" x2="278.83" y2="21.93"/><line class="cls-37" x1="278.83" y1="21.93" x2="280.13" y2="20.17"/><line class="cls-37" x1="39.52" y1="397.95" x2="40.82" y2="396.18"/><line class="cls-38" x1="41.25" y1="395.6" x2="50.36" y2="383.25"/><line class="cls-39" x1="50.36" y1="383.25" x2="317.55" y2="21.15"/><line class="cls-37" x1="317.55" y1="21.15" x2="318.85" y2="19.39"/><line class="cls-37" x1="78.23" y1="397.16" x2="79.53" y2="395.4"/><line class="cls-38" x1="79.96" y1="394.81" x2="89.07" y2="382.47"/><line class="cls-39" x1="89.07" y1="382.47" x2="356.26" y2="20.36"/><line class="cls-37" x1="356.26" y1="20.36" x2="357.56" y2="18.6"/><line class="cls-37" x1="116.94" y1="396.38" x2="118.24" y2="394.62"/><line class="cls-38" x1="118.68" y1="394.03" x2="127.78" y2="381.69"/><line class="cls-39" x1="127.78" y1="381.69" x2="394.97" y2="19.58"/><line class="cls-37" x1="394.97" y1="19.58" x2="396.27" y2="17.82"/><line class="cls-37" x1="155.65" y1="395.6" x2="156.95" y2="393.83"/><line class="cls-38" x1="157.39" y1="393.25" x2="166.5" y2="380.9"/><line class="cls-39" x1="166.5" y1="380.9" x2="433.69" y2="18.8"/><line class="cls-37" x1="433.69" y1="18.8" x2="434.99" y2="17.04"/><line class="cls-37" x1="194.37" y1="394.81" x2="195.67" y2="393.05"/><line class="cls-38" x1="196.1" y1="392.46" x2="205.21" y2="380.12"/><line class="cls-39" x1="205.21" y1="380.12" x2="472.4" y2="18.01"/><line class="cls-37" x1="472.4" y1="18.01" x2="473.7" y2="16.26"/><line class="cls-37" x1="233.08" y1="394.03" x2="234.38" y2="392.27"/><line class="cls-38" x1="234.82" y1="391.68" x2="243.92" y2="379.34"/><line class="cls-39" x1="243.92" y1="379.34" x2="511.11" y2="17.24"/><line class="cls-37" x1="511.11" y1="17.24" x2="512.41" y2="15.47"/><line class="cls-37" x1="271.79" y1="393.25" x2="273.09" y2="391.48"/><line class="cls-38" x1="273.53" y1="390.9" x2="282.64" y2="378.55"/><line class="cls-39" x1="282.64" y1="378.55" x2="549.83" y2="16.45"/><line class="cls-37" x1="549.83" y1="16.45" x2="551.13" y2="14.69"/><line class="cls-37" x1="310.51" y1="392.46" x2="311.81" y2="390.7"/><line class="cls-38" x1="312.24" y1="390.11" x2="321.35" y2="377.77"/><line class="cls-39" x1="321.35" y1="377.77" x2="588.54" y2="15.67"/><line class="cls-37" x1="588.54" y1="15.67" x2="589.84" y2="13.91"/><line class="cls-37" x1="349.22" y1="391.68" x2="350.52" y2="389.92"/><line class="cls-38" x1="350.96" y1="389.33" x2="360.06" y2="376.99"/><line class="cls-39" x1="360.06" y1="376.99" x2="627.25" y2="14.89"/><line class="cls-37" x1="627.25" y1="14.89" x2="628.55" y2="13.12"/><line class="cls-37" x1="387.93" y1="390.9" x2="389.23" y2="389.13"/><line class="cls-38" x1="389.67" y1="388.55" x2="398.78" y2="376.2"/><line class="cls-39" x1="398.78" y1="376.2" x2="665.97" y2="14.1"/><line class="cls-37" x1="665.97" y1="14.1" x2="667.26" y2="12.34"/><line class="cls-37" x1="426.65" y1="390.11" x2="427.95" y2="388.35"/><line class="cls-38" x1="428.38" y1="387.76" x2="437.49" y2="375.42"/><line class="cls-39" x1="437.49" y1="375.42" x2="704.68" y2="13.32"/><line class="cls-37" x1="704.68" y1="13.32" x2="705.98" y2="11.56"/><line class="cls-37" x1="465.36" y1="389.33" x2="466.66" y2="387.57"/><line class="cls-38" x1="467.09" y1="386.98" x2="476.2" y2="374.64"/><line class="cls-39" x1="476.2" y1="374.64" x2="743.39" y2="12.54"/><line class="cls-37" x1="743.39" y1="12.54" x2="744.69" y2="10.77"/><line class="cls-37" x1="504.07" y1="388.55" x2="505.37" y2="386.79"/><line class="cls-38" x1="505.81" y1="386.2" x2="514.92" y2="373.85"/><line class="cls-39" x1="514.92" y1="373.85" x2="782.1" y2="11.75"/><line class="cls-37" x1="782.1" y1="11.75" x2="783.4" y2="9.99"/><line class="cls-37" x1="542.79" y1="387.76" x2="544.09" y2="386.01"/><line class="cls-38" x1="544.52" y1="385.42" x2="553.63" y2="373.07"/><line class="cls-39" x1="553.63" y1="373.07" x2="820.82" y2="10.97"/><line class="cls-37" x1="820.82" y1="10.97" x2="822.12" y2="9.21"/><line class="cls-37" x1="581.5" y1="386.98" x2="582.8" y2="385.22"/><line class="cls-38" x1="583.23" y1="384.63" x2="592.34" y2="372.29"/><line class="cls-39" x1="592.34" y1="372.29" x2="859.53" y2="10.19"/><line class="cls-37" x1="859.53" y1="10.19" x2="860.83" y2="8.42"/><line class="cls-37" x1="620.21" y1="386.2" x2="621.51" y2="384.44"/><line class="cls-38" x1="621.95" y1="383.85" x2="631.06" y2="371.51"/><line class="cls-39" x1="631.06" y1="371.51" x2="898.24" y2="9.4"/><line class="cls-37" x1="898.24" y1="9.4" x2="899.54" y2="7.64"/><line class="cls-37" x1="658.93" y1="385.42" x2="660.23" y2="383.66"/><line class="cls-38" x1="660.66" y1="383.07" x2="669.77" y2="370.72"/><line class="cls-39" x1="669.77" y1="370.72" x2="936.96" y2="8.62"/><line class="cls-37" x1="936.96" y1="8.62" x2="938.26" y2="6.86"/><line class="cls-37" x1="697.64" y1="384.63" x2="698.94" y2="382.87"/><line class="cls-38" x1="699.37" y1="382.28" x2="708.48" y2="369.94"/><line class="cls-39" x1="708.48" y1="369.94" x2="975.67" y2="7.84"/><line class="cls-37" x1="975.67" y1="7.84" x2="976.97" y2="6.08"/><line class="cls-37" x1="736.35" y1="383.85" x2="737.65" y2="382.09"/><line class="cls-38" x1="738.08" y1="381.5" x2="747.19" y2="369.16"/><line class="cls-39" x1="747.19" y1="369.16" x2="1014.38" y2="7.06"/><line class="cls-37" x1="1014.38" y1="7.06" x2="1015.68" y2="5.29"/><line class="cls-37" x1="775.07" y1="383.07" x2="776.37" y2="381.31"/><line class="cls-38" x1="776.8" y1="380.72" x2="785.9" y2="368.37"/><line class="cls-39" x1="785.9" y1="368.37" x2="1053.09" y2="6.27"/><line class="cls-37" x1="1053.09" y1="6.27" x2="1054.4" y2="4.51"/><line class="cls-37" x1="813.78" y1="382.28" x2="815.08" y2="380.52"/><line class="cls-38" x1="815.51" y1="379.93" x2="824.62" y2="367.59"/><line class="cls-39" x1="824.62" y1="367.59" x2="1091.81" y2="5.49"/><line class="cls-37" x1="1091.81" y1="5.49" x2="1093.11" y2="3.73"/><line class="cls-37" x1="852.49" y1="381.5" x2="853.79" y2="379.74"/><line class="cls-38" x1="854.22" y1="379.15" x2="863.33" y2="366.81"/><line class="cls-39" x1="863.33" y1="366.81" x2="1130.52" y2="4.71"/><line class="cls-37" x1="1130.52" y1="4.71" x2="1131.82" y2="2.94"/><line class="cls-37" x1="891.2" y1="380.72" x2="892.5" y2="378.96"/><line class="cls-38" x1="892.94" y1="378.37" x2="902.04" y2="366.02"/><line class="cls-39" x1="902.04" y1="366.02" x2="1169.23" y2="3.92"/><line class="cls-37" x1="1169.23" y1="3.92" x2="1170.53" y2="2.16"/><line class="cls-37" x1="929.91" y1="379.93" x2="931.21" y2="378.17"/><line class="cls-38" x1="931.65" y1="377.58" x2="940.76" y2="365.24"/><line class="cls-39" x1="940.76" y1="365.24" x2="1207.95" y2="3.14"/><line class="cls-37" x1="1207.95" y1="3.14" x2="1209.25" y2="1.38"/><line class="cls-37" x1="968.63" y1="379.15" x2="969.93" y2="377.39"/><line class="cls-38" x1="970.36" y1="376.8" x2="979.47" y2="364.46"/><line class="cls-39" x1="979.47" y1="364.46" x2="1246.66" y2="2.36"/><line class="cls-37" x1="1246.66" y1="2.36" x2="1247.96" y2="0.59"/></g><path class="cls-24" d="M423.22,95a7.25,7.25,0,0,0,0-.77c0-6.27-8.1-11.35-18.09-11.35a25.64,25.64,0,0,0-11,2.32A16.22,16.22,0,0,0,396,77.92a16.66,16.66,0,0,0-3-9.4c7.8-1.49,10.92-5.85,10.92-11,0-6.37-6.15-11.54-16.85-11.54a31.19,31.19,0,0,0-6.82.73,38.61,38.61,0,0,0-44.31-21.56,13.45,13.45,0,1,0-26.33,4.92,12.5,12.5,0,0,0-16.12,7.15,12.35,12.35,0,0,0-.83,4.44c0,.36,0,.73,0,1.07a28.31,28.31,0,0,0-9,30.33,16.37,16.37,0,0,0-19.94,11.68q-.19.74-.32,1.5a17.62,17.62,0,0,0-3.88-.43c-6.41,0-11.61,3.31-11.61,7.4a4.92,4.92,0,0,0,.37,1.82Z"/><path class="cls-24" d="M419.25,43.68a10.43,10.43,0,0,0,9.16-5.42,10.46,10.46,0,0,0,13.36,2.9A10.45,10.45,0,0,0,456.39,36a10.33,10.33,0,0,0-2.53-11.58A10.48,10.48,0,0,0,441.76,23a10.4,10.4,0,0,0-1.73-.73,10.42,10.42,0,0,0-20.79.72h0a10.36,10.36,0,1,0,0,20.72Z"/><path class="cls-24" d="M948.92,128.3a14.19,14.19,0,0,0-18.67-7.2l-.49.23q-.88-.19-1.86-.36c-1.49-4.95-8.43-8.8-17-9.38a12,12,0,0,0-1.71-6.19,6.54,6.54,0,0,0,1.69-4.21c0-5.44-7.95-9.9-18-10.3C892.73,74.93,876.55,62,856.6,62c-10.83,0-20.54,3.81-27.18,9.83a15.93,15.93,0,0,0-22.72-3A15.79,15.79,0,0,0,821,96.35a24.53,24.53,0,0,0,1.93,5.31c-6.41,2-11.66,5.3-15,9.34-5.2-4.95-13.3-8.12-22.41-8.12-15.7,0-28.43,9.47-28.43,21.13a16,16,0,0,0,.59,4.31Z"/></g></g></g><path class="cls-24" d="M873.68,69.14A14.19,14.19,0,0,0,855,61.93l-.49.23q-.88-.19-1.86-.36c-1.49-4.95-8.43-8.8-17-9.38a12,12,0,0,0-1.71-6.19A6.54,6.54,0,0,0,835.58,42c0-5.44-7.95-9.9-18-10.3-.05-15.95-16.24-28.87-36.19-28.87-10.83,0-20.54,3.81-27.18,9.83a15.93,15.93,0,0,0-22.72-3,15.79,15.79,0,0,0,14.34,27.46,24.53,24.53,0,0,0,1.93,5.31c-6.41,2-11.66,5.3-15,9.34-5.2-4.95-13.3-8.12-22.41-8.12-15.7,0-28.43,9.47-28.43,21.13a16,16,0,0,0,.59,4.31Z"/><path class="cls-24" d="M410.09,82.84a7.59,7.59,0,0,1,0-.77c0-6.27,7.73-11.35,17.27-11.35A23.54,23.54,0,0,1,437.79,73a16.85,16.85,0,0,1-1.69-7.32,17.21,17.21,0,0,1,2.86-9.4c-7.44-1.49-10.43-5.85-10.43-11,0-6.37,5.87-11.54,16.09-11.54a28.49,28.49,0,0,1,6.51.73C458.39,17.64,476.19,8.57,493.44,13a13,13,0,0,1,14-12A13.24,13.24,0,0,1,519,15.52a13.87,13.87,0,0,1-.42,2.35A11.78,11.78,0,0,1,534,25a12.86,12.86,0,0,1,.79,4.44c0,.36,0,.73,0,1.07a29.14,29.14,0,0,1,8.59,30.33c8.35-2.25,16.88,3,19,11.68q.18.74.3,1.5a16.09,16.09,0,0,1,3.7-.43c6.12,0,11.08,3.31,11.08,7.4a5.12,5.12,0,0,1-.35,1.82Z"/><rect class="cls-40" x="247.76" y="2.26" width="705.98" height="396.79"/><text class="cls-41" transform="translate(538.55 240.83) scale(1.03 1)"><tspan class="cls-42">L</tspan><tspan x="16.28" y="0">OCKED</tspan></text><text class="cls-43" transform="translate(401.49 191.06) scale(1.03 1)">LEVEL THREE</text></g></g></g></svg>