<svg xmlns="http://www.w3.org/2000/svg" xmlns:xlink="http://www.w3.org/1999/xlink" viewBox="0 0 709 396.5"><defs><style>.cls-1{fill:url(#linear-gradient);}.cls-2{fill:#ff0;}.cls-3{fill:#89807a;}.cls-4{fill:#b7a79a;}.cls-5{fill:#534741;}.cls-6{fill:#998675;}.cls-7{fill:#843523;}.cls-8{opacity:0.85;}.cls-9{fill:#42210b;}.cls-10{fill:#e4e7ea;}.cls-11{fill:#736357;}.cls-12{fill:#c7b299;}.cls-13{fill:#5b4832;}.cls-14{fill:url(#linear-gradient-2);}.cls-15{fill:url(#linear-gradient-3);}.cls-16{fill:url(#linear-gradient-4);}.cls-17{fill:url(#linear-gradient-5);}.cls-18{fill:url(#linear-gradient-6);}.cls-19{fill:#603813;}.cls-20{fill:#279acc;}.cls-21{fill:#aa7d55;}.cls-22{fill:#e4fc56;}.cls-23{fill:#b1b75a;}.cls-24,.cls-46,.cls-47{fill:#fff;}.cls-25{fill:#a67c52;}.cls-26{fill:#846042;}.cls-27{fill:#c1ce45;}.cls-28{fill:#919344;}.cls-29{fill:#d3e051;}.cls-30{fill:#846040;}.cls-31{fill:#009245;}.cls-32{fill:#39b54a;stroke:#39b54a;stroke-linecap:round;stroke-linejoin:round;}.cls-32,.cls-33,.cls-34{stroke-width:0.4px;}.cls-33{fill:#8cc63f;stroke:#8cc63f;}.cls-33,.cls-34{stroke-miterlimit:10;}.cls-34{fill:#f4f7dc;stroke:#f4f7dc;}.cls-35{fill:#f7931e;}.cls-36{fill:#fcee21;}.cls-37{fill:#c1272d;}.cls-38{fill:#fdd479;}.cls-39{fill:#d69b5f;}.cls-40{fill:#2b1a0a;}.cls-41{fill:#563a19;}.cls-42{fill:url(#linear-gradient-7);}.cls-43{fill:url(#linear-gradient-8);}.cls-44{fill:#fffac7;}.cls-45{opacity:0.47;}.cls-46{font-size:60.23px;}.cls-46,.cls-47{font-family:Roboto-Regular, Roboto;}.cls-47{font-size:31.65px;letter-spacing:-0.01em;}.cls-48{letter-spacing:0em;}</style><linearGradient id="linear-gradient" x1="352.77" y1="354.64" x2="352.77" y2="37.88" gradientUnits="userSpaceOnUse"><stop offset="0" stop-color="#b82d28"/><stop offset="1" stop-color="#fcee21"/></linearGradient><linearGradient id="linear-gradient-2" x1="505.74" y1="343.82" x2="547.24" y2="343.82" gradientUnits="userSpaceOnUse"><stop offset="0.5" stop-color="#009245"/><stop offset="0.5" stop-color="#006837"/></linearGradient><linearGradient id="linear-gradient-3" x1="52.2" y1="341.28" x2="93.7" y2="341.28" xlink:href="#linear-gradient-2"/><linearGradient id="linear-gradient-4" x1="228.33" y1="343.45" x2="269.83" y2="343.45" xlink:href="#linear-gradient-2"/><linearGradient id="linear-gradient-5" x1="73.12" y1="344.9" x2="114.62" y2="344.9" xlink:href="#linear-gradient-2"/><linearGradient id="linear-gradient-6" x1="441.16" y1="350.71" x2="475.32" y2="350.71" xlink:href="#linear-gradient-2"/><linearGradient id="linear-gradient-7" x1="-152.29" y1="756.55" x2="-147.87" y2="756.55" gradientTransform="matrix(1, 0, 0, -1, 355, 1129.5)" gradientUnits="userSpaceOnUse"><stop offset="0" stop-color="#d69b5f"/><stop offset="1" stop-color="#7d5330"/></linearGradient><linearGradient id="linear-gradient-8" x1="-226.81" y1="766.79" x2="-219.89" y2="766.79" xlink:href="#linear-gradient-7"/></defs><title>level3_1</title><g id="Layer_2" data-name="Layer 2"><g id="desktop"><g id="levels"><polyline class="cls-1" points="0.52 0 705.02 0 705.02 396.5 0.52 396.5"/><ellipse class="cls-2" cx="352.76" cy="237.25" rx="70.45" ry="69.65"/><g id="opacitylow"><polygon class="cls-3" points="436.37 214.76 479.39 285.74 485.08 276.22 548.07 381.63 440.11 381.63 425.09 375.46 441.05 363.43 450.78 325.84 427.04 303.65 433.31 298.48 420.42 288.99 438.71 228.46 436.37 214.76"/><polygon class="cls-4" points="440.11 381.63 319.06 381.63 399.85 246.45 408.6 261.11 436.37 214.76 438.71 228.46 420.42 288.99 433.31 298.48 427.04 303.65 450.78 325.84 441.05 363.43 425.09 375.46 440.11 381.63"/></g><polygon class="cls-5" points="58.72 226 97.1 290.82 102.18 282.12 158.38 378.36 62.05 378.36 48.65 372.74 62.89 361.75 71.57 327.42 50.39 307.17 55.98 302.44 44.48 293.78 60.8 238.51 58.72 226"/><polyline class="cls-6" points="0 302.18 27.59 254.94 35.4 268.32 60.18 226 62.27 238.51 45.95 293.78 57.45 302.44 51.85 307.17 73.03 327.42 64.35 361.75 50.12 372.74 63.52 378.36 2.33 375.82"/><path class="cls-7" d="M28.43,337.42a16.47,16.47,0,0,0-7.73,8.92c-2.93,7.79.08,16.09,6.73,18.54S41.84,363,44.78,355.2a16.23,16.23,0,0,0,0-11.75,10.31,10.31,0,0,0,6.07-4.78l.09,0c7.79,2.86,16.11-.14,18.58-6.72s-1.84-14.22-9.62-17.08-16.11.14-18.58,6.72c-.1.28-.19.56-.27.84-6-1.29-11.86,1.24-13.73,6.2A9.89,9.89,0,0,0,28.43,337.42Z"/><g class="cls-8"><path class="cls-9" d="M46.24,313l.09.15Z"/><path class="cls-9" d="M72.64,349.17c-.27-.12-.54-.12-.64-.31a.36.36,0,0,1,0-.22,14.28,14.28,0,0,0,3.52-.41c-.61-.06-1.27-.15-2-.28a.36.36,0,0,1,.1-.26c.18-.16.49,0,.71-.08s.25-.28.18-.87a.93.93,0,0,1-.36.61c-.32.22-.65,0-1,.26a.73.73,0,0,0-.22.24,22.06,22.06,0,0,1-2.39-.65c.07-.2.12-.38.16-.53a4.64,4.64,0,0,1,.32-1.26,1.77,1.77,0,0,1,.64-.63,1.45,1.45,0,0,0-1,.63c-.2.35-.08.66-.32,1.26a3.7,3.7,0,0,1-.19.41c-.36-.13-.72-.26-1.08-.41a21.53,21.53,0,0,1-2-1q1.05-1.93,1.93-3.79a4.54,4.54,0,0,0,1.67-.6A5.07,5.07,0,0,0,73,337.85a6.54,6.54,0,0,1-1.44,2,.59.59,0,0,1-.15-.44c0-.28.35-.41.32-.63s-.19-.26-.32-.31a1,1,0,0,1,0,.31c-.05.31-.25.44-.32.63a.81.81,0,0,0,.16.71,5.78,5.78,0,0,1-1.78,1,81.4,81.4,0,0,0,3.21-8,51.41,51.41,0,0,1-5,9.76,2.47,2.47,0,0,1-.07-.32,4.81,4.81,0,0,1,.32-1.89c.09-.36.21-.9.32-1.57a8.32,8.32,0,0,0-.64,1.57,9.1,9.1,0,0,0-.32,1.89c0,.35,0,.66,0,.92a49.13,49.13,0,0,1-6.35,7.57c-.55.54-1.11,1-1.66,1.54a9.77,9.77,0,0,1-.56-1.22A10,10,0,0,1,58,347.6a7,7,0,0,0-.32,4.09,6.68,6.68,0,0,0,.64,1.67c-1.28,1.09-2.55,2-3.77,2.89-.19-2.25-.43-4.3-.69-6.14-.34-2.36-.69-4.27-1.06-6.08A42.16,42.16,0,0,0,57,339.76a9.07,9.07,0,0,0,2.55-.34A9.82,9.82,0,0,0,65,335.33a9.74,9.74,0,0,1-4.58,2.92,1.52,1.52,0,0,1,.12-.72,1.74,1.74,0,0,1,1.27-.94,2.28,2.28,0,0,0-1.59.94,2,2,0,0,0-.3.84c-.21,0-.43.08-.65.11a8,8,0,0,1-1.22,0,41,41,0,0,0,5.28-8.69,11.63,11.63,0,0,0,3.57-1.42,11.46,11.46,0,0,0,1.67-1.23,5.55,5.55,0,0,0,.88,0,5.79,5.79,0,0,0,2.54-.94,6.06,6.06,0,0,1-2.23.63,5.82,5.82,0,0,1-.83,0,11.58,11.58,0,0,0,1.78-2.21,9.5,9.5,0,0,1-4.13,3.14,9.21,9.21,0,0,1-1.17.36,6.3,6.3,0,0,1,.53-1,6.51,6.51,0,0,1,1.91-1.89,10.4,10.4,0,0,0-2.23,1.89,10.19,10.19,0,0,0-.87,1.12c-.29,0-.56.08-.81.1a42,42,0,0,0,2.63-9.72c-.34,1-.78,2.19-1.32,3.44a1.54,1.54,0,0,1-.59-.3,2.45,2.45,0,0,1-.64-1.26A3.33,3.33,0,0,0,62.78,319a5.25,5.25,0,0,1,1,1.57,13.66,13.66,0,0,0,.64,1.89,4.82,4.82,0,0,0,.44.7,42,42,0,0,1-6.43,9.92c-.18-.24-.37-.5-.55-.79a4.19,4.19,0,0,0,.5-1.35,4.54,4.54,0,0,0-.64-3.14,3.75,3.75,0,0,1,0,2.83,3.25,3.25,0,0,1-.41.68,10.25,10.25,0,0,1-.54-1.31,10.73,10.73,0,0,1,0-6.6,13.15,13.15,0,0,0-.64,7.23c0,.17.07.33.11.5a.61.61,0,0,1-.43.13c-.28,0-.42-.34-.64-.63a3.06,3.06,0,0,0-1.27-.94,9.62,9.62,0,0,1,1,1.26,4.88,4.88,0,0,0,.64.94,2.24,2.24,0,0,0,1.15.56,13,13,0,0,0,.77,1.73,42.27,42.27,0,0,1-5.59,5c-.36-1.74-.73-3.66-1.1-6-.49-3.11-.85-6.07-1.12-8.88a13.4,13.4,0,0,0,3-3.7,13.62,13.62,0,0,0,1.59-7.86,10.52,10.52,0,0,1-2.54,6.92c-.2.23-.41.43-.61.62a2.29,2.29,0,0,1-.34-.62,3.11,3.11,0,0,1,1-3.14,3.26,3.26,0,0,0-1.59,3.14,2.52,2.52,0,0,0,.48,1.06,9.94,9.94,0,0,1-1.19.83c-.16-2.26-.26-4.4-.32-6.4a6.29,6.29,0,0,0,3.57-4.92,5.28,5.28,0,0,1-2.23,3.14,4.77,4.77,0,0,1-1.37.58c-.05-3.06,0-5.79.1-8.12-.48,4-.76,7.74-.89,11.27a5.27,5.27,0,0,1-1.53-.63,4.06,4.06,0,0,0,.19-1.21,4.15,4.15,0,0,0-.53-2,2.54,2.54,0,0,1,.21,2,2.28,2.28,0,0,1-.47.77l-.17-.14a5.5,5.5,0,0,1-1.59-4.4,7,7,0,0,0,1,5.35,6.83,6.83,0,0,0,2.87,2.38A128.45,128.45,0,0,0,48.79,335c.67,6.49,1.45,9.22,1.91,15.09,0,.18,0,.36,0,.55q-1.21-.53-2.49-1.17a17.61,17.61,0,0,0-.09-3.47A18.77,18.77,0,0,0,44,336.59,18.92,18.92,0,0,1,46.88,346c0,.17,0,.33,0,.49a3.13,3.13,0,0,1-1-.49,3.44,3.44,0,0,1-1.27-2.52,4.95,4.95,0,0,0,2.19,4c0,.41-.06.81-.11,1.19-1-.53-2-1.11-3-1.74-1.22-.75-2.37-1.53-3.47-2.32a10.18,10.18,0,0,0-.35-3.34,10.59,10.59,0,0,0-3.18-5,8.46,8.46,0,0,1,2.23,5,7.86,7.86,0,0,1-.17,2.24,58.67,58.67,0,0,1-9.69-9.47,55,55,0,0,0,4.5,6.66,5.85,5.85,0,0,1-1.32-.06,6.32,6.32,0,0,1-3.5-1.89A10,10,0,0,0,35,342.5,53.1,53.1,0,0,0,40.46,348a11.21,11.21,0,0,1-1.75.42,7.22,7.22,0,0,0-1.36-.81,7.29,7.29,0,0,0-2.54-.63,4.14,4.14,0,0,1,1.91.94,4,4,0,0,1,.57.62H37a11.47,11.47,0,0,1-6.68-2.2,13.55,13.55,0,0,0,7,3.46,13.38,13.38,0,0,0,5.12-.16l.61.48a53.19,53.19,0,0,0,7.88,5,94.75,94.75,0,0,1-2.47,23.63H54.2a117.68,117.68,0,0,0,.72-16.18,80.94,80.94,0,0,0,7.18-8.76,9.59,9.59,0,0,0,1.65.41,10.45,10.45,0,0,0,6-.94,10.94,10.94,0,0,1-5.73.31,10.2,10.2,0,0,1-1.49-.46c1.37-2,2.59-3.93,3.69-5.84a13.29,13.29,0,0,0,5.48,1.35.93.93,0,0,0,.28.54,2.73,2.73,0,0,0,.64.31c.27.12.49.24.64.31A1.4,1.4,0,0,0,72.64,349.17Z"/></g><polygon class="cls-5" points="244.11 103.86 317.09 228.82 326.8 212.19 434.31 396.28 250.05 396.28 224.41 385.52 251.65 364.5 268.25 298.84 227.74 260.1 238.44 251.06 216.44 234.49 247.66 128.78 244.11 103.86"/><polygon class="cls-6" points="250.05 396.28 43.45 396.28 181.32 160.2 196.27 185.79 243.67 104.85 247.66 128.78 216.44 234.49 238.44 251.06 227.74 260.1 268.25 298.84 251.65 364.5 224.41 385.52 250.05 396.28"/><polygon class="cls-10" points="317.09 228.82 282.13 219.96 259.37 243.46 265.94 261.96 236.1 232.46 238.44 251.06 216.44 234.49 226.81 199.4 209.8 177.45 200.69 194.45 190.57 198.45 179.45 215.96 171.25 177.45 181.32 160.2 196.27 185.79 244.11 103.86 326.8 212.19 317.09 228.82"/><polygon class="cls-11" points="599.9 162.88 653.22 254.19 660.32 242.04 709 325.4 706.12 376.19 604.24 376.55 585.5 368.69 605.4 353.33 617.53 305.35 587.93 277.05 595.75 270.44 579.68 258.33 602.49 181.09 599.9 162.88"/><polygon class="cls-12" points="604.24 376.55 453.27 376.55 554.01 204.05 564.93 222.75 599.57 163.6 602.49 181.09 579.68 258.33 595.75 270.44 587.93 277.05 617.53 305.35 605.4 353.33 585.5 368.69 604.24 376.55"/><polygon class="cls-10" points="653.22 254.19 627.67 247.71 611.04 264.88 615.85 278.4 594.04 256.85 595.75 270.44 579.68 258.33 587.25 232.69 574.82 216.65 568.17 229.08 560.78 232 552.64 244.79 546.65 216.65 554.01 204.05 564.93 222.75 599.9 162.88 660.32 242.04 653.22 254.19"/><polygon class="cls-13" points="526.49 368.39 526.49 368.33 524.33 368.39 524.33 376.68 526.49 376.68 528.65 376.68 528.65 368.33 526.49 368.39"/><polygon class="cls-14" points="547.24 368.39 537.73 352.1 542.06 352.1 534.87 339.79 538.49 339.79 526.49 319.24 514.49 339.79 518.11 339.79 510.91 352.1 515.25 352.1 505.74 368.39 547.24 368.39"/><polygon class="cls-13" points="72.95 365.85 72.95 365.79 70.79 365.85 70.79 374.14 72.95 374.14 75.11 374.14 75.11 365.79 72.95 365.85"/><polygon class="cls-15" points="93.7 365.85 84.19 349.56 88.53 349.56 81.33 337.25 84.95 337.25 72.95 316.7 60.95 337.25 64.57 337.25 57.38 349.56 61.72 349.56 52.2 365.85 93.7 365.85"/><polygon class="cls-13" points="249.08 368.03 249.08 367.97 246.92 368.03 246.92 376.32 249.08 376.32 251.24 376.32 251.24 367.97 249.08 368.03"/><polygon class="cls-16" points="269.83 368.03 260.32 351.74 264.66 351.74 257.47 339.42 261.08 339.42 249.08 318.88 237.08 339.42 240.7 339.42 233.51 351.74 237.85 351.74 228.33 368.03 269.83 368.03"/><polygon class="cls-13" points="93.87 369.48 93.87 369.42 91.7 369.48 91.7 377.77 93.87 377.77 96.03 377.77 96.03 369.42 93.87 369.48"/><polygon class="cls-17" points="114.61 369.48 105.1 353.19 109.44 353.19 102.25 340.88 105.86 340.88 93.87 320.33 81.87 340.88 85.48 340.88 78.29 353.19 82.63 353.19 73.12 369.48 114.61 369.48"/><polygon class="cls-13" points="458.24 370.94 458.24 370.89 456.46 370.94 456.46 377.77 458.24 377.77 460.02 377.77 460.02 370.89 458.24 370.94"/><polygon class="cls-18" points="475.32 370.94 467.49 357.53 471.06 357.53 465.14 347.39 468.12 347.39 458.24 330.48 448.36 347.39 451.34 347.39 445.42 357.53 448.99 357.53 441.16 370.94 475.32 370.94"/><path class="cls-7" d="M678.17,327.17a16.3,16.3,0,0,0,4.1-11c0-8.31-5.75-15.05-12.84-15.05s-12.84,6.74-12.84,15.05a16.3,16.3,0,0,0,4.1,11,10.19,10.19,0,0,0-4,6.57h-.09c-8.31,0-15,5.68-15,12.7s6.74,12.7,15,12.7,15-5.68,15-12.7c0-.3,0-.59,0-.88,6.06-.86,10.68-5.25,10.68-10.55A10,10,0,0,0,678.17,327.17Z"/><polyline class="cls-19" points="2.61 396.14 275.33 396.14 275.33 375.94 2.61 375.94"/><rect class="cls-19" x="346.16" y="376.3" width="359.96" height="20.2"/><polygon class="cls-20" points="459.54 376.28 461.01 378 460.27 379.09 461.92 381.81 458.8 378.73 460.27 378 458.8 376.19 459.54 376.28"/><path class="cls-5" d="M661.36,303.27l.1.17Z"/><path class="cls-5" d="M691.81,345c-.31-.14-.62-.14-.73-.36a.41.41,0,0,1,0-.26,16.48,16.48,0,0,0,4.06-.47c-.7-.07-1.47-.17-2.29-.32a.41.41,0,0,1,.11-.3c.21-.19.56.06.81-.1s.28-.32.21-1a1.07,1.07,0,0,1-.41.7c-.37.25-.75,0-1.12.3a.84.84,0,0,0-.25.28,25.45,25.45,0,0,1-2.75-.75c.08-.23.14-.44.18-.61a5.35,5.35,0,0,1,.37-1.45,2,2,0,0,1,.73-.73,1.68,1.68,0,0,0-1.1.73c-.23.4-.09.76-.37,1.45a4.27,4.27,0,0,1-.22.47c-.41-.15-.83-.3-1.25-.47a24.84,24.84,0,0,1-2.32-1.11q1.21-2.23,2.23-4.37a5.23,5.23,0,0,0,1.93-.69,5.85,5.85,0,0,0,2.57-4,7.55,7.55,0,0,1-1.66,2.32.68.68,0,0,1-.17-.51c0-.33.4-.47.37-.73s-.22-.29-.37-.36a1.1,1.1,0,0,1,0,.36c-.06.36-.28.51-.37.73a.93.93,0,0,0,.18.82,6.67,6.67,0,0,1-2,1.15,93.91,93.91,0,0,0,3.7-9.22A59.31,59.31,0,0,1,686,337.75a2.84,2.84,0,0,1-.08-.37,5.55,5.55,0,0,1,.37-2.18c.11-.42.25-1,.37-1.81a9.6,9.6,0,0,0-.73,1.81,10.5,10.5,0,0,0-.37,2.18c0,.4,0,.76,0,1.06a56.68,56.68,0,0,1-7.32,8.73c-.64.62-1.28,1.21-1.92,1.78a11.27,11.27,0,0,1-.65-1.41,11.55,11.55,0,0,1-.73-4.35,8,8,0,0,0-.37,4.72,7.71,7.71,0,0,0,.74,1.93c-1.48,1.25-2.94,2.36-4.34,3.33-.22-2.59-.49-5-.8-7.08-.39-2.73-.79-4.93-1.22-7a48.64,48.64,0,0,0,4.87-4.93,10.47,10.47,0,0,0,2.95-.39A11.32,11.32,0,0,0,683,329a11.24,11.24,0,0,1-5.28,3.37,1.75,1.75,0,0,1,.14-.83,2,2,0,0,1,1.47-1.09,2.64,2.64,0,0,0-1.83,1.09,2.28,2.28,0,0,0-.35,1c-.24,0-.49.09-.75.12a9.26,9.26,0,0,1-1.41.06,47.32,47.32,0,0,0,6.09-10,13.42,13.42,0,0,0,4.12-1.63,13.22,13.22,0,0,0,1.92-1.42,6.4,6.4,0,0,0,1,0,6.68,6.68,0,0,0,2.94-1.09,7,7,0,0,1-2.57.73,6.72,6.72,0,0,1-1,0,13.36,13.36,0,0,0,2.06-2.55,11,11,0,0,1-4.77,3.63,10.62,10.62,0,0,1-1.34.42,7.27,7.27,0,0,1,.61-1.14,7.51,7.51,0,0,1,2.2-2.18,12,12,0,0,0-2.57,2.18,11.76,11.76,0,0,0-1,1.3c-.33.06-.65.09-.94.12a48.51,48.51,0,0,0,3-11.21c-.39,1.18-.9,2.52-1.52,4a1.78,1.78,0,0,1-.68-.35,2.82,2.82,0,0,1-.73-1.45,3.84,3.84,0,0,0-1.47-1.81,6.06,6.06,0,0,1,1.1,1.81,15.75,15.75,0,0,0,.73,2.18,5.56,5.56,0,0,0,.51.81,48.42,48.42,0,0,1-7.42,11.45c-.21-.27-.43-.57-.64-.91a4.83,4.83,0,0,0,.58-1.55,5.24,5.24,0,0,0-.73-3.63,4.33,4.33,0,0,1,0,3.26,3.75,3.75,0,0,1-.48.79,11.82,11.82,0,0,1-.62-1.51,12.38,12.38,0,0,1,0-7.62,15.18,15.18,0,0,0-.73,8.34c0,.2.08.39.13.57a.7.7,0,0,1-.49.15c-.32,0-.48-.4-.73-.73a3.53,3.53,0,0,0-1.47-1.09,11.1,11.1,0,0,1,1.1,1.45A5.62,5.62,0,0,0,672,325a2.58,2.58,0,0,0,1.33.65,15,15,0,0,0,.89,2,48.76,48.76,0,0,1-6.45,5.76c-.41-2-.84-4.23-1.27-7-.57-3.59-1-7-1.29-10.25a15.46,15.46,0,0,0,3.49-4.26,15.71,15.71,0,0,0,1.83-9.07,12.14,12.14,0,0,1-2.94,8c-.23.26-.47.49-.71.72a2.64,2.64,0,0,1-.4-.72,3.59,3.59,0,0,1,1.1-3.63,3.76,3.76,0,0,0-1.83,3.63,2.9,2.9,0,0,0,.55,1.22,11.47,11.47,0,0,1-1.37,1c-.19-2.61-.3-5.07-.37-7.38a7.26,7.26,0,0,0,4.12-5.68,6.09,6.09,0,0,1-2.57,3.63,5.51,5.51,0,0,1-1.58.66c-.06-3.53,0-6.68.11-9.37-.55,4.59-.87,8.93-1,13a6.08,6.08,0,0,1-1.76-.72,4.68,4.68,0,0,0,.22-1.39,4.78,4.78,0,0,0-.61-2.32,2.93,2.93,0,0,1,.24,2.32,2.63,2.63,0,0,1-.54.89l-.2-.16a6.35,6.35,0,0,1-1.83-5.08,8.05,8.05,0,0,0,1.1,6.17,7.88,7.88,0,0,0,3.31,2.75,148.19,148.19,0,0,0,.73,18.29c.77,7.49,1.67,10.63,2.2,17.41,0,.21,0,.42,0,.63q-1.4-.62-2.87-1.35a20.31,20.31,0,0,0-.11-4,21.65,21.65,0,0,0-4.77-10.88,21.83,21.83,0,0,1,3.3,10.88c0,.19,0,.38,0,.57a3.62,3.62,0,0,1-1.1-.57,4,4,0,0,1-1.47-2.9,5.71,5.71,0,0,0,2.53,4.63c0,.47-.07.93-.13,1.37-1.15-.61-2.31-1.28-3.5-2-1.41-.87-2.74-1.76-4-2.67a11.74,11.74,0,0,0-.41-3.86,12.22,12.22,0,0,0-3.67-5.8,9.76,9.76,0,0,1,2.57,5.8,9.07,9.07,0,0,1-.19,2.59,67.68,67.68,0,0,1-11.18-10.93,63.48,63.48,0,0,0,5.19,7.69,6.75,6.75,0,0,1-1.52-.07,7.29,7.29,0,0,1-4-2.18,11.57,11.57,0,0,0,7.23,4.28,61.26,61.26,0,0,0,6.27,6.32,12.93,12.93,0,0,1-2,.49,8.33,8.33,0,0,0-1.57-.93,8.41,8.41,0,0,0-2.94-.73,4.77,4.77,0,0,1,2.2,1.09,4.59,4.59,0,0,1,.65.72h-.29a13.23,13.23,0,0,1-7.71-2.54,15.63,15.63,0,0,0,8.07,4,15.44,15.44,0,0,0,5.91-.19l.7.55a61.37,61.37,0,0,0,9.09,5.75,109.31,109.31,0,0,1-2.85,27.26h6.6a135.76,135.76,0,0,0,.83-18.67,93.38,93.38,0,0,0,8.28-10.1,11.06,11.06,0,0,0,1.9.47,12.06,12.06,0,0,0,7-1.09,12.62,12.62,0,0,1-6.6.36,11.77,11.77,0,0,1-1.72-.53c1.58-2.28,3-4.53,4.25-6.73a15.33,15.33,0,0,0,6.32,1.56,1.07,1.07,0,0,0,.33.62,3.15,3.15,0,0,0,.73.36c.31.14.57.27.73.36A1.62,1.62,0,0,0,691.81,345Z"/><ellipse class="cls-21" cx="591.6" cy="316.08" rx="11.78" ry="11.64"/><ellipse class="cls-22" cx="591.6" cy="316.08" rx="10.37" ry="10.25"/><ellipse class="cls-23" cx="591.6" cy="316.08" rx="9.58" ry="9.47"/><ellipse class="cls-24" cx="591.6" cy="316.08" rx="3.02" ry="2.98"/><path class="cls-22" d="M591.6,319.3a.2.2,0,0,0-.2.16l-.67,3.32a.88.88,0,0,0,.87,1"/><path class="cls-22" d="M591.6,323.83h0a.88.88,0,0,0,.87-1l-.67-3.32a.2.2,0,0,0-.2-.16"/><path class="cls-25" d="M591.6,319l-.34,2.24a.28.28,0,0,0,.28.32h.11a.28.28,0,0,0,.28-.32Z"/><path class="cls-22" d="M591.6,308.33a.88.88,0,0,0-.87,1l.67,3.32a.2.2,0,0,0,.2.16"/><path class="cls-25" d="M591.6,313.19l.34-2.24a.28.28,0,0,0-.28-.32h-.11a.28.28,0,0,0-.28.32Z"/><path class="cls-22" d="M590.75,312.95l-.44-3.66a.76.76,0,0,0-1-.63l-.3.1a.76.76,0,0,0-.43,1.09l1.82,3.21A.18.18,0,0,0,590.75,312.95Z"/><path class="cls-25" d="M590.7,313.33l-.38-2.23a.28.28,0,0,0-.37-.22l-.11,0a.28.28,0,0,0-.17.4Z"/><path class="cls-22" d="M589.81,313.36,588.25,310a.76.76,0,0,0-1.13-.29l-.25.18a.76.76,0,0,0-.07,1.17l2.73,2.49A.18.18,0,0,0,589.81,313.36Z"/><path class="cls-25" d="M589.88,313.74l-1.06-2a.28.28,0,0,0-.42-.1l-.09.06a.28.28,0,0,0,0,.43Z"/><path class="cls-22" d="M589,314l-2.53-2.71a.76.76,0,0,0-1.16.07l-.18.24a.76.76,0,0,0,.3,1.14l3.38,1.54A.18.18,0,0,0,589,314Z"/><path class="cls-25" d="M589.23,314.38l-1.64-1.59a.28.28,0,0,0-.42,0l-.06.09a.28.28,0,0,0,.1.42Z"/><path class="cls-22" d="M588.53,314.91l-3.25-1.8a.76.76,0,0,0-1.09.43l-.09.28a.76.76,0,0,0,.63,1l3.7.43A.18.18,0,0,0,588.53,314.91Z"/><path class="cls-25" d="M588.82,315.19l-2.05-1a.28.28,0,0,0-.39.17l0,.1a.28.28,0,0,0,.22.37Z"/><path class="cls-22" d="M588.32,315.91l-3.65-.72a.76.76,0,0,0-.9.74v.3a.76.76,0,0,0,.9.74l3.65-.72A.18.18,0,0,0,588.32,315.91Z"/><path class="cls-25" d="M588.68,316.08l-2.27-.33a.28.28,0,0,0-.32.28v.11a.28.28,0,0,0,.32.28Z"/><path class="cls-22" d="M588.43,316.92l-3.7.43a.76.76,0,0,0-.63,1l.09.28a.76.76,0,0,0,1.09.43l3.25-1.8A.18.18,0,0,0,588.43,316.92Z"/><path class="cls-25" d="M588.82,317l-2.26.38a.28.28,0,0,0-.22.37l0,.1a.28.28,0,0,0,.39.17Z"/><path class="cls-22" d="M588.85,317.85l-3.38,1.54a.76.76,0,0,0-.3,1.14l.18.24a.76.76,0,0,0,1.16.07l2.53-2.71A.18.18,0,0,0,588.85,317.85Z"/><path class="cls-25" d="M589.23,317.78l-2,1a.28.28,0,0,0-.1.42l.06.09a.28.28,0,0,0,.42,0Z"/><path class="cls-22" d="M589.54,318.6l-2.73,2.49a.76.76,0,0,0,.07,1.17l.25.18a.76.76,0,0,0,1.13-.29l1.56-3.35A.18.18,0,0,0,589.54,318.6Z"/><path class="cls-25" d="M589.88,318.42l-1.6,1.61a.28.28,0,0,0,0,.43l.09.06a.28.28,0,0,0,.42-.1Z"/><path class="cls-22" d="M590.43,319.1l-1.82,3.21a.76.76,0,0,0,.43,1.09l.3.1a.76.76,0,0,0,1-.63l.44-3.66A.18.18,0,0,0,590.43,319.1Z"/><path class="cls-25" d="M590.7,318.83l-1,2a.28.28,0,0,0,.17.4l.11,0a.28.28,0,0,0,.37-.22Z"/><path class="cls-26" d="M591.6,304.44a11.64,11.64,0,1,1,0,23.28"/><path class="cls-27" d="M591.6,305.82a10.26,10.26,0,1,1,0,20.51"/><path class="cls-28" d="M591.6,306.61a9.47,9.47,0,1,1,0,18.94"/><path class="cls-24" d="M591.6,313.1a3,3,0,1,1,0,6"/><path class="cls-29" d="M591.6,323.83a.88.88,0,0,0,.87-1l-.67-3.32a.2.2,0,0,0-.2-.16"/><line class="cls-22" x1="591.6" y1="323.83" x2="591.6" y2="323.83"/><path class="cls-30" d="M591.6,321.53h0a.33.33,0,0,0,.33-.38L591.6,319"/><path class="cls-29" d="M592.45,319.21l.44,3.66a.76.76,0,0,0,1,.63l.3-.1a.76.76,0,0,0,.43-1.09l-1.82-3.21A.18.18,0,0,0,592.45,319.21Z"/><path class="cls-30" d="M592.51,318.83l.38,2.23a.28.28,0,0,0,.37.22l.11,0a.28.28,0,0,0,.17-.4Z"/><path class="cls-29" d="M593.39,318.8l1.56,3.35a.76.76,0,0,0,1.13.29l.25-.18a.76.76,0,0,0,.07-1.17l-2.73-2.49A.18.18,0,0,0,593.39,318.8Z"/><path class="cls-30" d="M593.32,318.42l1.06,2a.28.28,0,0,0,.42.1l.09-.06a.28.28,0,0,0,0-.43Z"/><path class="cls-29" d="M594.16,318.13l2.53,2.71a.76.76,0,0,0,1.16-.07l.18-.24a.76.76,0,0,0-.3-1.14l-3.38-1.54A.18.18,0,0,0,594.16,318.13Z"/><path class="cls-30" d="M594,317.78l1.64,1.59a.28.28,0,0,0,.42,0l.06-.09a.28.28,0,0,0-.1-.42Z"/><path class="cls-29" d="M594.67,317.25l3.25,1.8a.76.76,0,0,0,1.09-.43l.09-.28a.76.76,0,0,0-.63-1l-3.7-.43A.18.18,0,0,0,594.67,317.25Z"/><path class="cls-30" d="M594.39,317l2.05,1a.28.28,0,0,0,.39-.17l0-.1a.28.28,0,0,0-.22-.37Z"/><path class="cls-29" d="M594.89,316.25l3.65.72a.76.76,0,0,0,.9-.74v-.3a.76.76,0,0,0-.9-.74l-3.65.72A.18.18,0,0,0,594.89,316.25Z"/><path class="cls-30" d="M594.53,316.08l2.27.33a.28.28,0,0,0,.32-.28V316a.28.28,0,0,0-.32-.28Z"/><path class="cls-29" d="M594.78,315.24l3.7-.43a.76.76,0,0,0,.63-1l-.09-.28a.76.76,0,0,0-1.09-.43l-3.25,1.8A.18.18,0,0,0,594.78,315.24Z"/><path class="cls-30" d="M594.39,315.19l2.26-.38a.28.28,0,0,0,.22-.37l0-.1a.28.28,0,0,0-.39-.17Z"/><path class="cls-29" d="M594.36,314.31l3.38-1.54a.76.76,0,0,0,.3-1.14l-.18-.24a.76.76,0,0,0-1.16-.07L594.16,314A.18.18,0,0,0,594.36,314.31Z"/><path class="cls-30" d="M594,314.38l2-1a.28.28,0,0,0,.1-.42l-.06-.09a.28.28,0,0,0-.42,0Z"/><path class="cls-29" d="M593.67,313.56l2.73-2.49a.76.76,0,0,0-.07-1.17l-.25-.18A.76.76,0,0,0,595,310l-1.56,3.35A.18.18,0,0,0,593.67,313.56Z"/><path class="cls-30" d="M593.32,313.74l1.6-1.61a.28.28,0,0,0,0-.43l-.09-.06a.28.28,0,0,0-.42.1Z"/><path class="cls-29" d="M592.78,313.05l1.82-3.21a.76.76,0,0,0-.43-1.09l-.3-.1a.76.76,0,0,0-1,.63l-.44,3.66A.18.18,0,0,0,592.78,313.05Z"/><path class="cls-30" d="M592.51,313.33l1-2a.28.28,0,0,0-.17-.4l-.11,0a.28.28,0,0,0-.37.22Z"/><line class="cls-22" x1="591.6" y1="308.33" x2="591.6" y2="308.33"/><path class="cls-29" d="M591.6,312.86s.16.05.2-.16l.67-3.32a.88.88,0,0,0-.87-1"/><path class="cls-22" d="M590.73,309.38"/><path class="cls-30" d="M591.6,313.19l.33-2.18a.33.33,0,0,0-.33-.38h0"/><ellipse class="cls-31" cx="321.3" cy="312.59" rx="11.15" ry="11.02" transform="translate(-0.85 0.88) rotate(-0.16)"/><path class="cls-32" d="M331.93,309.27c.08.39,2.39,7.11-2.25,11.33a12.44,12.44,0,0,1-14.84.95,4.3,4.3,0,0,1,.74-3.22c1.44-1.92,3.74-1.34,5.57-3.22s1-3.52,2.43-5C324.77,308.86,326.08,307.68,331.93,309.27Z"/><path class="cls-33" d="M325.52,320.85a2.12,2.12,0,0,1-1.61,2.31,11.35,11.35,0,0,1-6.72-.32,11,11,0,0,1,4.36-21.23,2.13,2.13,0,0,1,1.93,3,3.58,3.58,0,0,0-.34,1.3c-.14,2.16,1.92,3,1.74,5.21s-2.13,2.44-2,4.28c.13,1.52,1.5,1.82,2.27,4A6.82,6.82,0,0,1,325.52,320.85Z"/><path class="cls-34" d="M316.39,311.74a3.87,3.87,0,0,0,1.23,1.14,4.83,4.83,0,0,0,4.33-.07c-.18.06-2.48.84-4.05-.48a3.2,3.2,0,0,1-.78-1,27.64,27.64,0,0,1,5-1.76,29.47,29.47,0,0,0-6.86,1.47,3.2,3.2,0,0,1,.07-.72,4.45,4.45,0,0,1,2.75-2.87c-.34.1-2.73.84-3.4,2.93a3.62,3.62,0,0,0-.17,1c-.21.11-.42.22-.62.34a18.6,18.6,0,0,0-2.3,1.65,9,9,0,0,1,.25-1.12,9.66,9.66,0,0,1,2.8-4.37,10.42,10.42,0,0,0-3.35,4.3,9.84,9.84,0,0,0-.57,2l-.6.59a10.68,10.68,0,0,0,1.43,3.52,14.55,14.55,0,0,1,1.83-3.57,11,11,0,0,0,1.66.55,11.9,11.9,0,0,0,6.8-.41,9.13,9.13,0,0,1-6.74-.48,7.53,7.53,0,0,1-1-.62c.15-.18.31-.36.47-.54A8.41,8.41,0,0,1,316.39,311.74Z"/><path class="cls-35" d="M555.38,288.54s-1.08,3.48-4,4.15a4.28,4.28,0,0,0,.35-2.84s-2.08,4.2-6.33,4.37a3.42,3.42,0,0,0,1.64-2.58s-6.66,3.05-9,1.57c0,0,4.85-1.41,4.17-2.51l-.39-1.55a3.88,3.88,0,0,1,4.58-.8s0-1.65-1.29-2.09c0,0,3.54-.66,5.66.69,0,0-1.06-3-1.84-3s.59-.35.59-.35S552.53,283.13,555.38,288.54Z"/><path class="cls-36" d="M487.08,283.64s3.55.95,4.33,3.86a4.42,4.42,0,0,0-2.88-.25s4.32,1.92,4.63,6.1a3.47,3.47,0,0,0-2.66-1.53s3.31,6.47,1.9,8.86c0,0-1.59-4.75-2.68-4l-1.56.44a3.78,3.78,0,0,1-1-4.5s-1.67,0-2.07,1.34c0,0-.79-3.48.51-5.62,0,0-3,1.15-3,1.92s-.38-.57-.38-.57S481.7,286.64,487.08,283.64Z"/><path class="cls-36" d="M28,197.3s3.55.95,4.33,3.86a4.42,4.42,0,0,0-2.88-.25s4.32,1.92,4.63,6.1a3.47,3.47,0,0,0-2.66-1.53s3.31,6.47,1.9,8.86c0,0-1.59-4.75-2.68-4l-1.56.44a3.78,3.78,0,0,1-1-4.5s-1.67,0-2.07,1.34c0,0-.79-3.48.51-5.62,0,0-3,1.15-3,1.92s-.38-.57-.38-.57S22.66,200.3,28,197.3Z"/><path class="cls-36" d="M360.35,320.12s1.78,2,1.09,4a3.15,3.15,0,0,0-1.65-1.27s1.86,2.84.38,5.51a2.46,2.46,0,0,0-1-2s-.57,5.22-2.38,6.11c0,0,.93-3.5,0-3.49l-1.12-.34a2.74,2.74,0,0,1,1.2-3.11,1.64,1.64,0,0,0-1.79,0s.91-2.42,2.55-3.21c0,0-2.29-.48-2.56,0s0-.49,0-.49S355.89,319.85,360.35,320.12Z"/><path class="cls-35" d="M322.85,239.8s-1.85,1.9-4,1.37a3.13,3.13,0,0,0,1.16-1.72s-2.73,2-5.53.78a2.51,2.51,0,0,0,1.91-1.14s-5.31-.18-6.34-1.9c0,0,3.6.66,3.52-.27l.26-1.13a2.81,2.81,0,0,1,3.22,1,1.59,1.59,0,0,0-.14-1.77s2.5.72,3.43,2.27c0,0,.32-2.29-.2-2.53s.5,0,.5,0S322.8,235.39,322.85,239.8Z"/><path class="cls-35" d="M204.7,281.52s-1.85,1.9-4,1.37a3.13,3.13,0,0,0,1.16-1.72s-2.73,2-5.53.78a2.51,2.51,0,0,0,1.91-1.14s-5.31-.18-6.34-1.9c0,0,3.6.66,3.52-.27l.26-1.13a2.81,2.81,0,0,1,3.22,1,1.59,1.59,0,0,0-.14-1.77s2.5.72,3.43,2.27c0,0,.32-2.29-.2-2.53s.5,0,.5,0S204.65,277.1,204.7,281.52Z"/><path class="cls-35" d="M451.52,300.59s3.21,3.54,2,7.28a5.7,5.7,0,0,0-3-2.3s3.35,5.14.68,10c0,0,0-2.49-1.82-3.55,0,0-1,9.43-4.3,11,0,0,1.68-6.32,0-6.31l-2-.61a4.94,4.94,0,0,1,2.17-5.61s-1.85-1.15-3.24,0c0,0,1.64-4.36,4.6-5.8,0,0-4.14-.87-4.63,0s0-.89,0-.89S443.47,300.1,451.52,300.59Z"/><path class="cls-35" d="M29.54,283.9s3.21,3.54,2,7.28a5.7,5.7,0,0,0-3-2.3s3.35,5.14.68,10c0,0,0-2.49-1.82-3.55,0,0-1,9.43-4.3,11,0,0,1.68-6.32,0-6.31l-2-.61a4.94,4.94,0,0,1,2.17-5.61s-1.85-1.15-3.24,0c0,0,1.64-4.36,4.6-5.8,0,0-4.14-.87-4.63,0s0-.89,0-.89S21.49,283.41,29.54,283.9Z"/><path class="cls-37" d="M426.34,273.81s-3.21,3.54-7.11,2.73a5.65,5.65,0,0,0,2-3.18s-4.8,3.85-9.93,1.75c0,0,2.5-.28,3.37-2.17,0,0-9.59,0-11.57-3,0,0,6.54,1,6.34-.72l.4-2.06a5.08,5.08,0,0,1,5.88,1.53s1-1.94-.37-3.18c0,0,4.57,1.14,6.33,3.89,0,0,.42-4.16-.53-4.55s.89-.1.89-.1S426,265.84,426.34,273.81Z"/><path class="cls-37" d="M183.06,341.64s-3.21,3.54-7.11,2.73a5.65,5.65,0,0,0,2-3.18s-4.8,3.85-9.93,1.75c0,0,2.5-.28,3.37-2.17,0,0-9.59,0-11.57-3,0,0,6.54,1,6.34-.72l.4-2.06a5.08,5.08,0,0,1,5.88,1.53s1-1.94-.37-3.18c0,0,4.57,1.14,6.33,3.89,0,0,.42-4.16-.53-4.55s.89-.1.89-.1S182.68,333.68,183.06,341.64Z"/><path class="cls-35" d="M470.49,249.47s-4.62-1.3-5.59-5.12a5.78,5.78,0,0,0,3.76.37s-5.61-2.58-5.94-8.06c0,0,1.35,2.1,3.45,2,0,0-4.21-8.52-2.31-11.61,0,0,2,6.23,3.43,5.32l2-.55a4.94,4.94,0,0,1,1.18,5.89s2.18,0,2.73-1.72c0,0,1,4.56-.77,7.33,0,0,4-1.45,3.91-2.46s.48.75.48.75S477.56,245.65,470.49,249.47Z"/><g id="Layer_2-2" data-name="Layer 2"><g id="Layer_1-2" data-name="Layer 1-2"><path class="cls-38" d="M216.44,356s-5-6.74-25.81-5.21c-17.19,1.26-15.63-30.93-49.26-2-2.22,1.8-4.87,6.47-5.61,9.9s-4.87,3.06-5.31,4,12.24,5.93,21.54-2.7,19.32,14.2,33.78,13.49c0,0,11.5,6.3,16.52,3.6s3.1-3.41,3.1-3.41-.29.18-2.22-.55-6-4-.44-4.13c0,0,2.95-.09,6.93-3.24,1.05-.83-.08-1.51-.85-3.56.91,0,4,.62,4.15.39s.47-.55.68-.84A13.72,13.72,0,0,0,216.44,356Z"/><path class="cls-39" d="M216.44,355.89a14.08,14.08,0,0,1-2.78,5.7q-.32.41-.68.84c-.19.23-3.24-.37-4.15-.39.77,2.05,1.9,2.75.85,3.56-4,3.15-7,3.23-7,3.23-5.61.18-1.47,3.41.44,4.13s2.22.55,2.22.55,1.92.72-3.1,3.41-16.52-3.6-16.52-3.6c-14.46.72-24.47-22.12-33.78-13.49s-22,3.59-21.54,2.69,4.57-.55,5.31-4,3.39-8.09,5.61-9.9c0,0-3.24,10.85,0,9.77s15.74-4.31,18.87-9.77S172,360.24,179.12,364s14.55,6.6,15.53,5.39-.83-9.29-.83-9.29,5.63,7,8.9,5.92-2.58-8.37-.67-9.74S216.44,355.89,216.44,355.89Z"/><path class="cls-40" d="M203.67,356.37a2.54,2.54,0,1,1,2.49,3,2.82,2.82,0,0,1-2.49-3"/><path class="cls-24" d="M207.13,355.58a.66.66,0,0,0-.78-.5.65.65,0,0,0,.13,1.28.72.72,0,0,0,.65-.78"/><path class="cls-41" d="M216.27,355.87h-4v2.3c0,1.19,1.67,2.16,2.65,2.16C216.16,357.93,216.31,357,216.27,355.87Z"/><path class="cls-39" d="M195.79,354.54l-1.28.48a1.39,1.39,0,0,0-.58,1.89l.09.15,1.77,2.52-3.72-3.44c-.47-.43-.24-1.34.34-1.37Z"/><path class="cls-42" d="M202.72,372.87s2.37-1,2.57-2a11.78,11.78,0,0,0,0,1.2l1.18-2a17.82,17.82,0,0,0,0,2.16s0,1.56.65.12a3.41,3.41,0,0,1-2.86,3.48Z"/><path class="cls-43" d="M134.64,364.46s-5,2.38-6.45-1.1c0,0,2.22.72,2.22,0,0,0-.87.24-1.07-1.92a3.79,3.79,0,0,0,2,0s-1.28-.36-1-1.26a13.81,13.81,0,0,0,2.45,1.46l2.22,2.91Z"/><path class="cls-39" d="M152,340.9s-7-.47-3.93-7.89c0,0-7.79,1.1-7.23,5.5s7,5.15,7,5.15Z"/></g></g><path class="cls-44" d="M403.51,150.91H689.73a12.16,12.16,0,0,0,2.9-7.72c0-8.33-9.2-15.08-20.55-15.08a25.48,25.48,0,0,0-12.8,3.28,90.94,90.94,0,0,0-23.83-6.58,14.15,14.15,0,0,0,4.37-9.94c0-9.34-10.24-16.91-22.87-16.91a30.08,30.08,0,0,0-8,1.08,59.7,59.7,0,0,0-19.33-26.3c2.86-2.21,4.49-4.77,4.49-7.5,0-7.9-13.68-14.38-31.09-15-.58-10.18-9.53-18.44-21-19.73q0-.36,0-.73c0-7.82-8.62-14.16-19.25-14.16S503.5,21.94,503.5,29.76a10.61,10.61,0,0,0,.37,2.79c-10.09,3.94-17.11,12.65-17.11,22.77A22,22,0,0,0,489.54,66,31.72,31.72,0,0,0,477,63.4a31.12,31.12,0,0,0-8.93,61.05q.36,2.24.91,4.42a55.33,55.33,0,0,0-10.58,2.81,14.72,14.72,0,0,0-27.8,6.55,14.33,14.33,0,0,0,1,5.25,42.4,42.4,0,0,0-4.9-.28C417.4,143.19,409.07,146.19,403.51,150.91Z"/><path class="cls-44" d="M463.57,112.82H277.3a3.74,3.74,0,0,1-1.89-2.9c0-3.12,6-5.66,13.37-5.66a26.64,26.64,0,0,1,8.33,1.23A95,95,0,0,1,312.63,103c-1.79-1-2.84-2.34-2.84-3.73,0-3.51,6.66-6.35,14.89-6.35a33.24,33.24,0,0,1,5.23.4c2.37-3.81,6.76-7.2,12.58-9.87-1.86-.83-2.92-1.79-2.92-2.82,0-3,8.9-5.4,20.23-5.64.38-3.82,6.2-6.92,13.67-7.41a2.29,2.29,0,0,1,0-.27c0-2.93,5.61-5.31,12.53-5.31s12.53,2.38,12.53,5.31a2.44,2.44,0,0,1-.24,1c6.57,1.48,11.14,4.75,11.14,8.54a5.81,5.81,0,0,1-1.81,4,34.12,34.12,0,0,1,8.16-1c11.33,0,20.51,5.24,20.51,11.7,0,5.31-6.2,9.79-14.7,11.22a12.46,12.46,0,0,1-.59,1.66,58.26,58.26,0,0,1,6.88,1.05c1.58-1.78,4.8-3,8.53-3,5.28,0,9.56,2.44,9.56,5.45a3.48,3.48,0,0,1-.65,2c1-.07,2.1-.11,3.19-.11C454.54,109.93,460,111.05,463.57,112.82Z"/><rect class="cls-45" x="1.72" y="0.64" width="705.72" height="395.86"/><text class="cls-46" transform="translate(155.54 187.52) scale(1.01 1)">LEVEL THREE</text><text class="cls-47" transform="translate(286.55 227.31) scale(1.01 1)">L<tspan class="cls-48" x="16.71" y="0">OCKED</tspan></text></g></g></g></svg>