<svg xmlns="http://www.w3.org/2000/svg" xmlns:xlink="http://www.w3.org/1999/xlink" viewBox="0 0 709.37 399.13"><defs><style>.cls-1{fill:url(#linear-gradient);}.cls-2{opacity:0.62;}.cls-3{fill:#1080bf;}.cls-4{fill:#83d0f2;}.cls-5{fill:#5b4832;}.cls-6{fill:url(#linear-gradient-2);}.cls-7{opacity:0.85;}.cls-21,.cls-25,.cls-43,.cls-45,.cls-8{fill:#fff;}.cls-17,.cls-19,.cls-21,.cls-8{stroke:#fff;}.cls-13,.cls-14,.cls-15,.cls-17,.cls-19,.cls-21,.cls-33,.cls-8{stroke-linecap:round;stroke-linejoin:round;}.cls-8{stroke-width:0.13px;}.cls-9{fill:#279acc;}.cls-10{fill:#8ddffc;}.cls-11{fill:#e4e7ea;}.cls-12{fill:url(#linear-gradient-3);}.cls-13{fill:#8ec83d;stroke:#8ec83d;}.cls-13,.cls-14,.cls-16,.cls-17{stroke-width:0.34px;}.cls-14{fill:#02ab54;stroke:#02ab54;}.cls-15,.cls-17,.cls-19{fill:none;}.cls-15{stroke:#f7f9f8;stroke-width:0.68px;}.cls-16{fill:#ce9867;stroke:#ce9867;}.cls-16,.cls-34,.cls-35{stroke-miterlimit:10;}.cls-18{fill:#c9ecf4;}.cls-19{stroke-width:3px;}.cls-20{fill:url(#linear-gradient-4);}.cls-21{stroke-width:0.15px;}.cls-22{fill:#aa7d55;}.cls-23{fill:#e4fc56;}.cls-24{fill:#b1b75a;}.cls-26{fill:#a67c52;}.cls-27{fill:#846042;}.cls-28{fill:#c1ce45;}.cls-29{fill:#919344;}.cls-30{fill:#d3e051;}.cls-31{fill:#846040;}.cls-32{fill:#009245;}.cls-33{fill:#39b54a;stroke:#39b54a;}.cls-33,.cls-34,.cls-35{stroke-width:0.4px;}.cls-34{fill:#8cc63f;stroke:#8cc63f;}.cls-35{fill:#f4f7dc;stroke:#f4f7dc;}.cls-36{fill:#fdd479;}.cls-37{fill:#d69b5f;}.cls-38{fill:#2b1a0a;}.cls-39{fill:#563a19;}.cls-40{fill:url(#linear-gradient-5);}.cls-41{fill:url(#linear-gradient-6);}.cls-42{opacity:0.47;}.cls-43{font-size:31.53px;}.cls-43,.cls-45{font-family:Roboto-Regular, Roboto;}.cls-44{letter-spacing:-0.03em;}.cls-45{font-size:60px;}.cls-46{letter-spacing:-0.02em;}.cls-47{letter-spacing:0.01em;}</style><linearGradient id="linear-gradient" x1="354.91" y1="-65.9" x2="354.91" y2="333.23" gradientUnits="userSpaceOnUse"><stop offset="0.04" stop-color="#fff"/><stop offset="0.52" stop-color="#83d0f2"/><stop offset="0.94" stop-color="#1080bf"/></linearGradient><linearGradient id="linear-gradient-2" x1="400.42" y1="340.92" x2="446.08" y2="340.92" gradientUnits="userSpaceOnUse"><stop offset="0.5" stop-color="#fff"/><stop offset="0.5" stop-color="#def2fc"/></linearGradient><linearGradient id="linear-gradient-3" x1="507.37" y1="345.51" x2="549.13" y2="345.51" xlink:href="#linear-gradient-2"/><linearGradient id="linear-gradient-4" x1="63.56" y1="336.15" x2="119.3" y2="336.15" xlink:href="#linear-gradient-2"/><linearGradient id="linear-gradient-5" x1="-152.54" y1="1614.84" x2="-148.1" y2="1614.84" gradientTransform="matrix(1, 0, 0, -1, 355, 1990)" gradientUnits="userSpaceOnUse"><stop offset="0" stop-color="#d69b5f"/><stop offset="1" stop-color="#7d5330"/></linearGradient><linearGradient id="linear-gradient-6" x1="-227.53" y1="1625.25" x2="-220.57" y2="1625.25" xlink:href="#linear-gradient-5"/></defs><title>level2</title><g id="Layer_2" data-name="Layer 2"><g id="desktop"><g id="levels"><rect class="cls-1" x="0.46" width="708.91" height="399.13"/><g id="opacitylow" class="cls-2"><polygon class="cls-3" points="437.57 214.15 480.86 286.4 486.59 276.71 549.97 384 441.34 384 426.22 377.72 442.28 365.48 452.07 327.21 428.18 304.63 434.49 299.36 421.52 289.71 439.93 228.09 437.57 214.15"/><polygon class="cls-4" points="441.34 384 319.54 384 400.82 246.41 409.63 261.32 437.57 214.15 439.93 228.09 421.52 289.71 434.49 299.36 428.18 304.63 452.07 327.21 442.28 365.48 426.22 377.72 441.34 384"/></g><g id="opacitylow-2" data-name="opacitylow" class="cls-2"><polygon class="cls-3" points="108.15 228.92 146.77 294.89 151.88 286.04 208.44 384 111.5 384 98.02 378.27 112.34 367.09 121.08 332.15 99.77 311.53 105.39 306.72 93.83 297.9 110.25 241.65 108.15 228.92"/><polygon class="cls-4" points="111.5 384 2.82 384 75.35 258.37 83.21 271.99 108.15 228.92 110.25 241.65 93.83 297.9 105.39 306.72 99.77 311.53 121.08 332.15 112.34 367.09 98.02 378.27 111.5 384"/></g><polygon class="cls-5" points="423.25 368.28 423.25 368.21 420.87 368.28 420.87 377.5 423.25 377.5 425.63 377.5 425.63 368.21 423.25 368.28"/><polygon class="cls-6" points="446.08 368.28 435.62 350.14 440.39 350.14 432.48 336.44 436.45 336.44 423.25 313.57 410.05 336.44 414.02 336.44 406.11 350.14 410.88 350.14 400.42 368.28 446.08 368.28"/><g class="cls-7"><path class="cls-8" d="M55.72,314.08l.09.15Z"/><path class="cls-8" d="M82.29,350.88c-.27-.12-.54-.12-.64-.32a.37.37,0,0,1,0-.23,14.22,14.22,0,0,0,3.54-.41c-.61-.06-1.28-.15-2-.29a.37.37,0,0,1,.1-.27c.18-.16.49,0,.71-.08s.25-.29.18-.89a1,1,0,0,1-.36.62c-.32.22-.66,0-1,.26a.74.74,0,0,0-.22.24,22,22,0,0,1-2.4-.66c.07-.21.12-.39.16-.54a4.76,4.76,0,0,1,.32-1.28,1.79,1.79,0,0,1,.64-.64,1.46,1.46,0,0,0-1,.64c-.2.35-.08.67-.32,1.28a3.79,3.79,0,0,1-.19.42c-.36-.13-.72-.26-1.09-.42a21.56,21.56,0,0,1-2-1q1.06-2,1.94-3.86a4.53,4.53,0,0,0,1.68-.61,5.17,5.17,0,0,0,2.24-3.52,6.66,6.66,0,0,1-1.45,2A.61.61,0,0,1,81,341c0-.29.35-.41.32-.64s-.19-.26-.32-.32a1,1,0,0,1,0,.32c-.05.32-.25.45-.32.64a.83.83,0,0,0,.16.72,5.8,5.8,0,0,1-1.79,1,83.41,83.41,0,0,0,3.23-8.14,52.55,52.55,0,0,1-5.05,9.93,2.53,2.53,0,0,1-.07-.33,5,5,0,0,1,.32-1.92c.09-.37.22-.92.32-1.6a8.53,8.53,0,0,0-.64,1.6,9.36,9.36,0,0,0-.32,1.92c0,.35,0,.67,0,.94a49.87,49.87,0,0,1-6.39,7.7c-.56.55-1.12,1.07-1.67,1.57a10,10,0,0,1-.57-1.25,10.29,10.29,0,0,1-.64-3.84,7.17,7.17,0,0,0-.32,4.16,6.85,6.85,0,0,0,.64,1.7c-1.29,1.11-2.56,2.08-3.79,2.94-.19-2.29-.43-4.38-.69-6.24-.34-2.41-.69-4.35-1.06-6.18a42.68,42.68,0,0,0,4.25-4.35,9,9,0,0,0,2.57-.35,9.9,9.9,0,0,0,5.44-4.16,9.79,9.79,0,0,1-4.6,3,1.56,1.56,0,0,1,.12-.73,1.75,1.75,0,0,1,1.28-1,2.29,2.29,0,0,0-1.6,1,2,2,0,0,0-.31.85c-.21,0-.43.08-.65.11a8,8,0,0,1-1.23,0,41.84,41.84,0,0,0,5.32-8.85,11.56,11.56,0,0,0,5.27-2.69,5.52,5.52,0,0,0,.88,0,5.78,5.78,0,0,0,2.56-1,6,6,0,0,1-2.24.64,5.79,5.79,0,0,1-.84,0,11.77,11.77,0,0,0,1.8-2.25,9.57,9.57,0,0,1-4.16,3.2,9.19,9.19,0,0,1-1.17.37,6.44,6.44,0,0,1,.53-1,6.59,6.59,0,0,1,1.92-1.92,10.5,10.5,0,0,0-2.24,1.92,10.36,10.36,0,0,0-.87,1.14c-.29,0-.56.08-.82.1a43.19,43.19,0,0,0,2.65-9.89c-.34,1-.78,2.23-1.33,3.51a1.55,1.55,0,0,1-.59-.31,2.5,2.5,0,0,1-.64-1.28,3.38,3.38,0,0,0-1.28-1.6,5.36,5.36,0,0,1,1,1.6,14,14,0,0,0,.64,1.92,4.91,4.91,0,0,0,.45.71,42.78,42.78,0,0,1-6.47,10.1c-.18-.24-.37-.51-.56-.8a4.29,4.29,0,0,0,.5-1.37,4.67,4.67,0,0,0-.64-3.2,3.86,3.86,0,0,1,0,2.88,3.31,3.31,0,0,1-.42.69,10.5,10.5,0,0,1-.54-1.33,11,11,0,0,1,0-6.72,13.53,13.53,0,0,0-.64,7.36c0,.17.07.34.11.5a.61.61,0,0,1-.43.14c-.28,0-.42-.35-.64-.64a3.08,3.08,0,0,0-1.28-1,9.79,9.79,0,0,1,1,1.28,5,5,0,0,0,.64,1,2.24,2.24,0,0,0,1.16.57,13.33,13.33,0,0,0,.78,1.76,42.69,42.69,0,0,1-5.63,5.08c-.36-1.78-.73-3.73-1.11-6.14-.5-3.17-.86-6.18-1.12-9a13.6,13.6,0,0,0,3-3.76,14,14,0,0,0,1.6-8,10.79,10.79,0,0,1-2.56,7c-.2.23-.41.44-.62.63a2.34,2.34,0,0,1-.34-.63,3.19,3.19,0,0,1,1-3.2,3.33,3.33,0,0,0-1.6,3.2,2.58,2.58,0,0,0,.48,1.08,10,10,0,0,1-1.19.84c-.17-2.3-.27-4.47-.32-6.51a6.4,6.4,0,0,0,2-1.49,6.55,6.55,0,0,0,1.6-3.52,5.38,5.38,0,0,1-2.24,3.2,4.77,4.77,0,0,1-1.38.59c-.05-3.12,0-5.9.1-8.27-.48,4.05-.76,7.88-.89,11.47a5.27,5.27,0,0,1-1.54-.64,4.18,4.18,0,0,0,.19-1.23,4.26,4.26,0,0,0-.53-2,2.61,2.61,0,0,1,.21,2,2.33,2.33,0,0,1-.47.79L55.4,317a5.64,5.64,0,0,1-1.6-4.48,7.17,7.17,0,0,0,1,5.44,6.89,6.89,0,0,0,2.89,2.43,132.24,132.24,0,0,0,.63,16.14c.67,6.6,1.46,9.38,1.92,15.36,0,.19,0,.37,0,.56q-1.22-.54-2.51-1.19a18.13,18.13,0,0,0-.09-3.53,19.2,19.2,0,0,0-4.16-9.6,19.41,19.41,0,0,1,2.88,9.6c0,.17,0,.33,0,.5a3.14,3.14,0,0,1-1-.5,3.52,3.52,0,0,1-1.28-2.56,5.14,5.14,0,0,0,1,2.88,5,5,0,0,0,1.24,1.21c0,.42-.06.82-.11,1.21-1-.54-2-1.13-3.05-1.77-1.23-.77-2.39-1.56-3.49-2.36a10.48,10.48,0,0,0-.35-3.4,10.79,10.79,0,0,0-3.2-5.12,8.65,8.65,0,0,1,2.24,5.12,8.09,8.09,0,0,1-.17,2.28,59.36,59.36,0,0,1-9.75-9.64A56.05,56.05,0,0,0,43,342.3a5.82,5.82,0,0,1-1.32-.06,6.34,6.34,0,0,1-3.52-1.92,10.18,10.18,0,0,0,3.52,2.88,10.06,10.06,0,0,0,2.79.9,53.75,53.75,0,0,0,5.47,5.58,11.17,11.17,0,0,1-1.76.43,7.24,7.24,0,0,0-3.93-1.46,4.14,4.14,0,0,1,1.92,1,4,4,0,0,1,.57.63h-.25A11.46,11.46,0,0,1,39.72,348a13.58,13.58,0,0,0,7,3.52,13.31,13.31,0,0,0,5.15-.17l.61.49a53.44,53.44,0,0,0,7.93,5.07A97.5,97.5,0,0,1,58,381h5.76a121.15,121.15,0,0,0,.72-16.47,82.2,82.2,0,0,0,7.22-8.91,9.56,9.56,0,0,0,1.66.42,10.42,10.42,0,0,0,6.08-1,10.89,10.89,0,0,1-5.76.32,10.18,10.18,0,0,1-1.5-.46c1.38-2,2.61-4,3.71-5.94a13.25,13.25,0,0,0,5.51,1.37,1,1,0,0,0,.28.55,2.74,2.74,0,0,0,.64.32c.27.13.49.24.64.32A1.42,1.42,0,0,0,82.29,350.88Z"/></g><polygon class="cls-9" points="244.12 101.28 317.55 228.47 327.32 211.54 435.5 398.91 250.09 398.91 224.29 387.95 251.7 366.57 268.4 299.73 227.64 260.3 238.41 251.1 216.27 234.24 247.69 126.64 244.12 101.28"/><polygon class="cls-10" points="250.09 398.91 42.2 398.91 180.93 158.62 195.97 184.67 243.67 102.28 247.69 126.64 216.27 234.24 238.41 251.1 227.64 260.3 268.4 299.73 251.7 366.57 224.29 387.95 250.09 398.91"/><polygon class="cls-11" points="317.55 228.47 282.37 219.44 259.47 243.37 266.08 262.2 236.05 232.17 238.41 251.1 216.27 234.24 226.7 198.52 209.59 176.18 200.42 193.48 190.24 197.56 179.05 215.37 170.8 176.18 180.93 158.62 195.97 184.67 244.12 101.28 327.32 211.54 317.55 228.47"/><polygon class="cls-9" points="567.41 161.35 621.06 254.28 628.2 241.91 707.25 378.82 571.77 378.82 552.92 370.82 572.95 355.19 585.15 306.36 555.37 277.55 563.24 270.82 547.06 258.5 570.02 179.88 567.41 161.35"/><polygon class="cls-10" points="571.77 378.82 419.87 378.82 521.24 203.25 532.23 222.28 567.08 162.08 570.02 179.88 547.06 258.5 563.24 270.82 555.37 277.55 585.15 306.36 572.95 355.19 552.92 370.82 571.77 378.82"/><polygon class="cls-11" points="621.06 254.28 595.36 247.69 578.62 265.17 583.46 278.93 561.52 256.99 563.24 270.82 547.06 258.5 554.68 232.4 542.18 216.08 535.48 228.72 528.04 231.7 519.86 244.72 513.84 216.08 521.24 203.25 532.23 222.28 567.41 161.35 628.2 241.91 621.06 254.28"/><polygon class="cls-5" points="528.25 370.52 528.25 370.46 526.08 370.52 526.08 378.96 528.25 378.96 530.42 378.96 530.42 370.46 528.25 370.52"/><polygon class="cls-12" points="549.13 370.52 539.56 353.94 543.92 353.94 536.69 341.41 540.32 341.41 528.25 320.5 516.18 341.41 519.81 341.41 512.58 353.94 516.94 353.94 507.37 370.52 549.13 370.52"/><path class="cls-13" d="M161.21,284.28l1.25-3.28a2.17,2.17,0,0,0-2.61.88l-1.26,3.3Z"/><path class="cls-14" d="M157.45,282.84l2-5.23a2.84,2.84,0,0,1,1.25,2.07l-2.1,5.51Z"/><line class="cls-15" x1="151.24" y1="301.43" x2="150.48" y2="302.12"/><line class="cls-15" x1="151.91" y1="301.68" x2="151.58" y2="302.54"/><line class="cls-15" x1="152.69" y1="301.97" x2="152.4" y2="302.74"/><line class="cls-15" x1="153.3" y1="302.22" x2="153.38" y2="303.23"/><path class="cls-16" d="M161.59,288.58h0a5.64,5.64,0,0,1-.38-4.3c-.91-.5-2.62.9-2.62.9.39-1-1.15-2.34-1.15-2.34a11.11,11.11,0,0,1-2.62,2.81h0a8.36,8.36,0,1,0,6.76,2.93Z"/><circle class="cls-17" cx="155.37" cy="293.63" r="2.69" transform="translate(-174.38 333.95) rotate(-69.09)"/><circle class="cls-17" cx="155.37" cy="293.63" r="4.88" transform="translate(-174.38 333.95) rotate(-69.09)"/><circle class="cls-17" cx="155.37" cy="293.63" r="6.47" transform="translate(-174.38 333.95) rotate(-69.09)"/><g id="ground"><rect class="cls-18" y="378.2" width="274.42" height="20.56"/><rect class="cls-18" x="345.69" y="378.57" width="362.2" height="20.56"/></g><g id="snowflakes"><line class="cls-19" x1="441.51" y1="56.27" x2="441.51" y2="69.83"/><line class="cls-19" x1="435.64" y1="59.66" x2="447.38" y2="66.44"/><line class="cls-19" x1="447.38" y1="59.66" x2="435.64" y2="66.44"/><line class="cls-19" x1="101.39" y1="116.43" x2="101.39" y2="129.98"/><line class="cls-19" x1="95.52" y1="119.81" x2="107.26" y2="126.59"/><line class="cls-19" x1="107.26" y1="119.81" x2="95.52" y2="126.59"/><line class="cls-19" x1="353.37" y1="102.87" x2="353.37" y2="116.43"/><line class="cls-19" x1="347.5" y1="106.26" x2="359.24" y2="113.04"/><line class="cls-19" x1="359.24" y1="106.26" x2="347.5" y2="113.04"/><line class="cls-19" x1="479.05" y1="210.23" x2="479.05" y2="223.79"/><line class="cls-19" x1="473.18" y1="213.62" x2="484.92" y2="220.4"/><line class="cls-19" x1="484.92" y1="213.62" x2="473.18" y2="220.4"/><line class="cls-19" x1="309.22" y1="192.56" x2="309.22" y2="206.12"/><line class="cls-19" x1="303.35" y1="195.95" x2="315.09" y2="202.73"/><line class="cls-19" x1="315.09" y1="195.95" x2="303.35" y2="202.73"/><line class="cls-19" x1="44.78" y1="210.23" x2="44.78" y2="223.79"/><line class="cls-19" x1="38.9" y1="213.62" x2="50.65" y2="220.4"/><line class="cls-19" x1="50.65" y1="213.62" x2="38.9" y2="220.4"/><line class="cls-19" x1="654.19" y1="73.63" x2="654.19" y2="87.18"/><line class="cls-19" x1="648.31" y1="77.02" x2="660.06" y2="83.79"/><line class="cls-19" x1="660.06" y1="77.02" x2="648.31" y2="83.79"/><line class="cls-19" x1="549.06" y1="112.84" x2="549.06" y2="126.39"/><line class="cls-19" x1="543.19" y1="116.23" x2="554.93" y2="123.01"/><line class="cls-19" x1="554.93" y1="116.23" x2="543.19" y2="123.01"/><line class="cls-19" x1="663.3" y1="244.94" x2="663.3" y2="258.5"/><line class="cls-19" x1="657.43" y1="248.33" x2="669.17" y2="255.11"/><line class="cls-19" x1="669.17" y1="248.33" x2="657.43" y2="255.11"/></g><polygon class="cls-5" points="91.43 369.54 91.43 369.46 88.53 369.54 88.53 380.81 91.43 380.81 94.34 380.81 94.34 369.46 91.43 369.54"/><polygon class="cls-20" points="119.3 369.54 106.53 347.41 112.35 347.41 102.69 330.68 107.55 330.68 91.43 302.76 75.32 330.68 80.17 330.68 70.51 347.41 76.34 347.41 63.56 369.54 119.3 369.54"/><polygon class="cls-9" points="460.88 378.55 462.36 380.3 461.62 381.41 463.28 384.18 460.14 381.04 461.62 380.3 460.14 378.46 460.88 378.55"/><polygon class="cls-9" points="648.2 378.46 648.82 380.55 647.71 382.02 649.56 384.61 645.13 387.56 648.08 384.61 646.6 381.66 648.08 380.55 646.36 378.46 648.2 378.46"/><polygon class="cls-9" points="345.93 390.27 349.01 389.9 353.81 388.06 354.55 389.53 357.87 388.8 360.82 392.12 357.87 389.53 353.81 390.64 353.44 388.8 349.38 390.27 345.93 391.13 345.93 390.27"/><path class="cls-21" d="M664,304.24l.1.17Z"/><path class="cls-21" d="M694.6,346.7c-.31-.14-.63-.14-.74-.37a.42.42,0,0,1,0-.26,16.4,16.4,0,0,0,4.09-.48c-.7-.07-1.48-.17-2.3-.33a.42.42,0,0,1,.11-.31c.21-.19.57.06.82-.1s.29-.33.21-1a1.09,1.09,0,0,1-.41.71c-.37.25-.76,0-1.13.3a.86.86,0,0,0-.25.28,25.38,25.38,0,0,1-2.77-.76c.08-.24.14-.45.18-.62a5.5,5.5,0,0,1,.37-1.48,2.06,2.06,0,0,1,.74-.74,1.69,1.69,0,0,0-1.11.74c-.23.41-.1.77-.37,1.48a4.37,4.37,0,0,1-.22.48c-.41-.15-.83-.3-1.25-.48a24.87,24.87,0,0,1-2.34-1.13q1.22-2.27,2.24-4.45a5.23,5.23,0,0,0,1.94-.7,6,6,0,0,0,2.58-4.06,7.68,7.68,0,0,1-1.67,2.36.7.7,0,0,1-.17-.52c0-.33.41-.48.37-.74s-.22-.3-.37-.37a1.13,1.13,0,0,1,0,.37c-.06.37-.29.51-.37.74a1,1,0,0,0,.18.83,6.69,6.69,0,0,1-2.06,1.17,96.23,96.23,0,0,0,3.72-9.39,60.63,60.63,0,0,1-5.83,11.46,2.92,2.92,0,0,1-.08-.38,5.71,5.71,0,0,1,.37-2.22c.11-.43.25-1.06.37-1.85a9.84,9.84,0,0,0-.74,1.85,10.79,10.79,0,0,0-.37,2.22c0,.41,0,.77,0,1.08a57.54,57.54,0,0,1-7.37,8.89c-.64.63-1.29,1.23-1.93,1.81a11.53,11.53,0,0,1-.66-1.44,11.88,11.88,0,0,1-.74-4.43,8.27,8.27,0,0,0-.37,4.8,7.9,7.9,0,0,0,.74,2c-1.49,1.28-3,2.4-4.37,3.39-.22-2.64-.5-5-.8-7.2-.39-2.78-.8-5-1.22-7.13a49.24,49.24,0,0,0,4.91-5,10.42,10.42,0,0,0,3-.4,11.42,11.42,0,0,0,6.28-4.8,11.3,11.3,0,0,1-5.31,3.43,1.8,1.8,0,0,1,.14-.84,2,2,0,0,1,1.48-1.11A2.64,2.64,0,0,0,680.2,333a2.34,2.34,0,0,0-.35,1c-.25.05-.5.09-.75.13a9.21,9.21,0,0,1-1.42.06A48.27,48.27,0,0,0,683.81,324a13.33,13.33,0,0,0,6.08-3.11,6.37,6.37,0,0,0,1,0,6.67,6.67,0,0,0,3-1.11,7,7,0,0,1-2.58.74,6.68,6.68,0,0,1-1,0,13.57,13.57,0,0,0,2.07-2.59,11,11,0,0,1-4.8,3.69,10.6,10.6,0,0,1-1.35.42,7.43,7.43,0,0,1,.61-1.16,7.6,7.6,0,0,1,2.22-2.22,12.11,12.11,0,0,0-2.58,2.22,12,12,0,0,0-1,1.32c-.34.06-.65.1-.95.12a49.83,49.83,0,0,0,3.06-11.41c-.4,1.2-.9,2.57-1.53,4a1.78,1.78,0,0,1-.68-.35,2.89,2.89,0,0,1-.74-1.48,3.9,3.9,0,0,0-1.48-1.85,6.18,6.18,0,0,1,1.11,1.85,16.16,16.16,0,0,0,.74,2.22,5.67,5.67,0,0,0,.51.82,49.35,49.35,0,0,1-7.47,11.65c-.21-.28-.43-.58-.64-.93a5,5,0,0,0,.58-1.58,5.39,5.39,0,0,0-.74-3.69,4.45,4.45,0,0,1,0,3.32,3.82,3.82,0,0,1-.48.8,12.11,12.11,0,0,1-.63-1.54,12.73,12.73,0,0,1,0-7.75,15.61,15.61,0,0,0-.74,8.49c0,.2.08.39.13.58a.7.7,0,0,1-.5.16c-.33,0-.48-.4-.74-.74a3.56,3.56,0,0,0-1.48-1.11,11.29,11.29,0,0,1,1.11,1.48,5.73,5.73,0,0,0,.74,1.11,2.59,2.59,0,0,0,1.33.66,15.38,15.38,0,0,0,.9,2,49.25,49.25,0,0,1-6.49,5.87c-.42-2-.84-4.3-1.28-7.08-.57-3.65-1-7.13-1.29-10.43a15.69,15.69,0,0,0,3.51-4.34,16.15,16.15,0,0,0,1.85-9.23,12.44,12.44,0,0,1-3,8.12c-.23.26-.47.5-.71.73a2.69,2.69,0,0,1-.4-.73,3.68,3.68,0,0,1,1.11-3.69,3.84,3.84,0,0,0-1.85,3.69,3,3,0,0,0,.55,1.25,11.54,11.54,0,0,1-1.38,1c-.19-2.65-.31-5.16-.37-7.52a7.38,7.38,0,0,0,2.3-1.72,7.56,7.56,0,0,0,1.85-4.06,6.2,6.2,0,0,1-2.58,3.69,5.5,5.5,0,0,1-1.59.68c-.06-3.6,0-6.8.12-9.54-.56,4.68-.88,9.09-1,13.23a6.08,6.08,0,0,1-1.77-.73,4.82,4.82,0,0,0,.22-1.42,4.91,4.91,0,0,0-.61-2.36,3,3,0,0,1,.24,2.36,2.69,2.69,0,0,1-.54.91l-.2-.17a6.51,6.51,0,0,1-1.85-5.17,8.28,8.28,0,0,0,1.11,6.28,8,8,0,0,0,3.33,2.8,152.56,152.56,0,0,0,.73,18.62c.77,7.62,1.68,10.82,2.22,17.72,0,.22,0,.43,0,.64q-1.41-.63-2.89-1.37a20.91,20.91,0,0,0-.11-4.07,22.15,22.15,0,0,0-4.8-11.08A22.39,22.39,0,0,1,664.7,343c0,.2,0,.38,0,.58a3.62,3.62,0,0,1-1.1-.58,4.06,4.06,0,0,1-1.48-3,5.94,5.94,0,0,0,1.11,3.32,5.8,5.8,0,0,0,1.43,1.39c0,.48-.07.95-.13,1.39-1.15-.62-2.33-1.3-3.52-2-1.42-.88-2.76-1.8-4-2.72a12.09,12.09,0,0,0-.41-3.93,12.44,12.44,0,0,0-3.69-5.91,10,10,0,0,1,2.58,5.91,9.34,9.34,0,0,1-.19,2.63A68.48,68.48,0,0,1,644,329a64.67,64.67,0,0,0,5.22,7.83,6.71,6.71,0,0,1-1.53-.07,7.31,7.31,0,0,1-4.06-2.22,11.75,11.75,0,0,0,4.06,3.32,11.6,11.6,0,0,0,3.21,1,62,62,0,0,0,6.31,6.43,12.89,12.89,0,0,1-2,.49,8.35,8.35,0,0,0-4.54-1.69,4.78,4.78,0,0,1,2.22,1.11,4.65,4.65,0,0,1,.66.73h-.29a13.22,13.22,0,0,1-7.75-2.58,15.67,15.67,0,0,0,8.12,4.06,15.36,15.36,0,0,0,5.94-.19l.7.56a61.65,61.65,0,0,0,9.15,5.85,112.48,112.48,0,0,1-2.87,27.75h6.65a139.77,139.77,0,0,0,.83-19,94.83,94.83,0,0,0,8.33-10.28,11,11,0,0,0,1.91.48,12,12,0,0,0,7-1.11,12.56,12.56,0,0,1-6.65.37,11.75,11.75,0,0,1-1.73-.54c1.59-2.32,3-4.61,4.28-6.85a15.29,15.29,0,0,0,6.36,1.58,1.09,1.09,0,0,0,.33.64,3.16,3.16,0,0,0,.74.37c.32.15.57.28.74.37A1.64,1.64,0,0,0,694.6,346.7Z"/><circle class="cls-22" cx="337.9" cy="330.94" r="11.85"/><circle class="cls-23" cx="337.9" cy="330.94" r="10.44"/><circle class="cls-24" cx="337.9" cy="330.94" r="9.64"/><circle class="cls-25" cx="337.9" cy="330.94" r="3.03"/><path class="cls-23" d="M337.9,334.22a.2.2,0,0,0-.2.17l-.67,3.38a.89.89,0,0,0,.88,1.07"/><path class="cls-23" d="M337.9,338.83h0a.89.89,0,0,0,.88-1.07l-.67-3.38a.2.2,0,0,0-.2-.17"/><path class="cls-26" d="M337.9,333.89l-.33,2.25a.31.31,0,0,0,.31.36h.05a.31.31,0,0,0,.31-.36Z"/><path class="cls-23" d="M337.9,323a.89.89,0,0,0-.88,1.07l.67,3.38a.2.2,0,0,0,.2.17"/><path class="cls-26" d="M337.9,328l.33-2.25a.31.31,0,0,0-.31-.36h-.05a.31.31,0,0,0-.31.36Z"/><path class="cls-23" d="M337,327.67l-.42-3.57a.83.83,0,0,0-1.08-.69l-.15,0a.83.83,0,0,0-.47,1.19l1.76,3.14A.19.19,0,0,0,337,327.67Z"/><path class="cls-26" d="M337,328.14l-.38-2.24a.31.31,0,0,0-.4-.24l-.05,0a.31.31,0,0,0-.18.43Z"/><path class="cls-23" d="M336.07,328.1l-1.5-3.26a.83.83,0,0,0-1.24-.32l-.12.09a.83.83,0,0,0-.08,1.28l2.64,2.44A.19.19,0,0,0,336.07,328.1Z"/><path class="cls-26" d="M336.16,328.56l-1.05-2a.31.31,0,0,0-.46-.11l0,0a.31.31,0,0,0,0,.47Z"/><path class="cls-23" d="M335.28,328.8l-2.44-2.64a.83.83,0,0,0-1.28.08l-.09.12a.83.83,0,0,0,.32,1.24l3.26,1.5A.19.19,0,0,0,335.28,328.8Z"/><path class="cls-26" d="M335.51,329.21l-1.62-1.59a.31.31,0,0,0-.47,0l0,0a.31.31,0,0,0,.11.46Z"/><path class="cls-23" d="M334.75,329.72,331.61,328a.83.83,0,0,0-1.19.47l0,.15a.83.83,0,0,0,.69,1.08l3.57.42A.19.19,0,0,0,334.75,329.72Z"/><path class="cls-26" d="M335.09,330l-2-1a.31.31,0,0,0-.43.18l0,.05a.31.31,0,0,0,.24.4Z"/><path class="cls-23" d="M334.52,330.75,331,330a.83.83,0,0,0-1,.81V331a.83.83,0,0,0,1,.81l3.52-.7A.19.19,0,0,0,334.52,330.75Z"/><path class="cls-26" d="M335,330.94l-2.25-.33a.31.31,0,0,0-.36.31V331a.31.31,0,0,0,.36.31Z"/><path class="cls-23" d="M334.63,331.8l-3.57.42a.83.83,0,0,0-.69,1.08l0,.15a.83.83,0,0,0,1.19.47l3.14-1.76A.19.19,0,0,0,334.63,331.8Z"/><path class="cls-26" d="M335.09,331.85l-2.24.38a.31.31,0,0,0-.24.4l0,.05a.31.31,0,0,0,.43.18Z"/><path class="cls-23" d="M335.06,332.77l-3.26,1.5a.83.83,0,0,0-.32,1.24l.09.12a.83.83,0,0,0,1.28.08l2.44-2.64A.19.19,0,0,0,335.06,332.77Z"/><path class="cls-26" d="M335.51,332.67l-2,1.05a.31.31,0,0,0-.11.46l0,0a.31.31,0,0,0,.47,0Z"/><path class="cls-23" d="M335.76,333.56,333.12,336a.83.83,0,0,0,.08,1.28l.12.09a.83.83,0,0,0,1.24-.32l1.5-3.26A.19.19,0,0,0,335.76,333.56Z"/><path class="cls-26" d="M336.16,333.32l-1.59,1.62a.31.31,0,0,0,0,.47l0,0a.31.31,0,0,0,.46-.11Z"/><path class="cls-23" d="M336.67,334.09l-1.76,3.14a.83.83,0,0,0,.47,1.19l.15,0a.83.83,0,0,0,1.08-.69l.42-3.57A.19.19,0,0,0,336.67,334.09Z"/><path class="cls-26" d="M337,333.74l-1,2a.31.31,0,0,0,.18.43l.05,0a.31.31,0,0,0,.4-.24Z"/><path class="cls-27" d="M337.9,319.09a11.85,11.85,0,0,1,0,23.7"/><path class="cls-28" d="M337.9,320.5a10.44,10.44,0,0,1,0,20.88"/><path class="cls-29" d="M337.9,321.3a9.64,9.64,0,1,1,0,19.27"/><path class="cls-25" d="M337.9,327.91a3,3,0,0,1,0,6.07"/><path class="cls-30" d="M337.9,338.83a.89.89,0,0,0,.88-1.07l-.67-3.38a.2.2,0,0,0-.2-.17"/><line class="cls-23" x1="337.9" y1="338.83" x2="337.9" y2="338.83"/><path class="cls-31" d="M337.9,336.49h0a.33.33,0,0,0,.33-.38l-.33-2.22"/><path class="cls-30" d="M338.76,334.21l.42,3.57a.83.83,0,0,0,1.08.69l.15,0a.83.83,0,0,0,.47-1.19l-1.76-3.14A.19.19,0,0,0,338.76,334.21Z"/><path class="cls-31" d="M338.81,333.74l.38,2.24a.31.31,0,0,0,.4.24l.05,0a.31.31,0,0,0,.18-.43Z"/><path class="cls-30" d="M339.73,333.78l1.5,3.26a.83.83,0,0,0,1.24.32l.12-.09a.83.83,0,0,0,.08-1.28L340,333.56A.19.19,0,0,0,339.73,333.78Z"/><path class="cls-31" d="M339.63,333.32l1.05,2a.31.31,0,0,0,.46.11l0,0a.31.31,0,0,0,0-.47Z"/><path class="cls-30" d="M340.51,333.08l2.44,2.64a.83.83,0,0,0,1.28-.08l.09-.12a.83.83,0,0,0-.32-1.24l-3.26-1.5A.19.19,0,0,0,340.51,333.08Z"/><path class="cls-31" d="M340.28,332.67l1.62,1.59a.31.31,0,0,0,.47,0l0,0a.31.31,0,0,0-.11-.46Z"/><path class="cls-30" d="M341,332.16l3.14,1.76a.83.83,0,0,0,1.19-.47l0-.15a.83.83,0,0,0-.69-1.08l-3.57-.42A.19.19,0,0,0,341,332.16Z"/><path class="cls-31" d="M340.7,331.85l2,1a.31.31,0,0,0,.43-.18l0-.05a.31.31,0,0,0-.24-.4Z"/><path class="cls-30" d="M341.27,331.13l3.52.7a.83.83,0,0,0,1-.81v-.15a.83.83,0,0,0-1-.81l-3.52.7A.19.19,0,0,0,341.27,331.13Z"/><path class="cls-31" d="M340.84,330.94l2.25.33a.31.31,0,0,0,.36-.31v-.05a.31.31,0,0,0-.36-.31Z"/><path class="cls-30" d="M341.16,330.08l3.57-.42a.83.83,0,0,0,.69-1.08l0-.15a.83.83,0,0,0-1.19-.47L341,329.72A.19.19,0,0,0,341.16,330.08Z"/><path class="cls-31" d="M340.7,330l2.24-.38a.31.31,0,0,0,.24-.4l0-.05a.31.31,0,0,0-.43-.18Z"/><path class="cls-30" d="M340.74,329.11l3.26-1.5a.83.83,0,0,0,.32-1.24l-.09-.12a.83.83,0,0,0-1.28-.08l-2.44,2.64A.19.19,0,0,0,340.74,329.11Z"/><path class="cls-31" d="M340.28,329.21l2-1.05a.31.31,0,0,0,.11-.46l0,0a.31.31,0,0,0-.47,0Z"/><path class="cls-30" d="M340,328.32l2.64-2.44a.83.83,0,0,0-.08-1.28l-.12-.09a.83.83,0,0,0-1.24.32l-1.5,3.26A.19.19,0,0,0,340,328.32Z"/><path class="cls-31" d="M339.63,328.56l1.59-1.62a.31.31,0,0,0,0-.47l0,0a.31.31,0,0,0-.46.11Z"/><path class="cls-30" d="M339.12,327.79l1.76-3.14a.83.83,0,0,0-.47-1.19l-.15,0a.83.83,0,0,0-1.08.69l-.42,3.57A.19.19,0,0,0,339.12,327.79Z"/><path class="cls-31" d="M338.81,328.14l1-2a.31.31,0,0,0-.18-.43l-.05,0a.31.31,0,0,0-.4.24Z"/><line class="cls-23" x1="337.9" y1="323.05" x2="337.9" y2="323.05"/><path class="cls-30" d="M337.9,327.66s.16.06.2-.17l.67-3.38a.89.89,0,0,0-.88-1.07"/><path class="cls-23" d="M337,324.12"/><path class="cls-31" d="M337.9,328l.33-2.22a.33.33,0,0,0-.33-.38h0"/><circle class="cls-32" cx="609.41" cy="360.99" r="11.22" transform="translate(-0.97 1.65) rotate(-0.15)"/><path class="cls-33" d="M620.11,357.61c.08.4,2.4,7.23-2.27,11.53a12.4,12.4,0,0,1-14.93,1,4.42,4.42,0,0,1,.75-3.28c1.45-1.95,3.77-1.36,5.61-3.27s1-3.58,2.45-5.11C612.9,357.19,614.22,356,620.11,357.61Z"/><path class="cls-34" d="M613.66,369.4a2.16,2.16,0,0,1-1.63,2.35,11.13,11.13,0,0,1-7.15-21,11.06,11.06,0,0,1,4.78-.9,2.17,2.17,0,0,1,1.94,3,3.67,3.67,0,0,0-.34,1.32c-.14,2.2,1.93,3.05,1.75,5.31s-2.15,2.48-2,4.36c.13,1.55,1.51,1.85,2.29,4.06A7,7,0,0,1,613.66,369.4Z"/><path class="cls-35" d="M604.47,360.12a3.92,3.92,0,0,0,1.24,1.16,4.81,4.81,0,0,0,4.36-.07c-.18.06-2.49.86-4.08-.49a3.25,3.25,0,0,1-.79-1,27.59,27.59,0,0,1,5.05-1.79,29.36,29.36,0,0,0-6.91,1.49,3.29,3.29,0,0,1,.07-.74,4.5,4.5,0,0,1,2.76-2.92c-.34.1-2.75.85-3.42,3a3.72,3.72,0,0,0-.17,1c-.21.11-.42.22-.62.35a18.72,18.72,0,0,0-2.31,1.68,9.26,9.26,0,0,1,.26-1.14,9.84,9.84,0,0,1,2.82-4.45,10.58,10.58,0,0,0-3.37,4.38,10.11,10.11,0,0,0-.58,2l-.6.6a10.94,10.94,0,0,0,1.44,3.58,14.87,14.87,0,0,1,1.84-3.63,10.93,10.93,0,0,0,1.67.56,11.84,11.84,0,0,0,6.84-.41,9.09,9.09,0,0,1-6.78-.49,7.57,7.57,0,0,1-1-.63c.15-.18.31-.37.48-.55A8.48,8.48,0,0,1,604.47,360.12Z"/><g id="Layer_2-2" data-name="Layer 2"><g id="Layer_1-2" data-name="Layer 1-2"><path class="cls-36" d="M216.27,357.89s-5-6.86-26-5.31c-17.29,1.28-15.73-31.48-49.57-2-2.24,1.83-4.9,6.59-5.64,10.07s-4.9,3.11-5.34,4,12.31,6,21.67-2.75,19.44,14.46,34,13.73c0,0,11.57,6.41,16.62,3.66s3.12-3.48,3.12-3.48-.3.18-2.24-.56-6.08-4-.45-4.21c0,0,3-.09,7-3.3,1.06-.85-.08-1.53-.85-3.62.91,0,4,.63,4.18.4s.47-.56.68-.86A14,14,0,0,0,216.27,357.89Z"/><path class="cls-37" d="M216.27,357.79a14.41,14.41,0,0,1-2.8,5.8q-.32.42-.68.86c-.2.23-3.26-.38-4.18-.4.77,2.09,1.91,2.8.85,3.62-4,3.21-7,3.29-7,3.29-5.64.18-1.48,3.48.45,4.21s2.24.56,2.24.56,1.93.73-3.12,3.48-16.62-3.66-16.62-3.66c-14.55.73-24.63-22.51-34-13.73s-22.12,3.65-21.68,2.74,4.6-.56,5.34-4,3.41-8.24,5.64-10.07c0,0-3.26,11,0,9.95s15.84-4.39,19-9.94,11.87,11.75,19,15.56,14.64,6.72,15.63,5.49-.84-9.46-.84-9.46,5.66,7.14,9,6-2.6-8.52-.68-9.92S216.27,357.79,216.27,357.79Z"/><path class="cls-38" d="M203.42,358.29a2.56,2.56,0,1,1,2.51,3.09,2.86,2.86,0,0,1-2.51-3.09"/><path class="cls-25" d="M206.9,357.49a.66.66,0,1,0-.65.79.73.73,0,0,0,.65-.79"/><path class="cls-39" d="M216.1,357.78H212v2.34c0,1.21,1.68,2.19,2.67,2.19C216,359.88,216.14,358.89,216.1,357.78Z"/><path class="cls-37" d="M195.49,356.43l-1.29.49a1.42,1.42,0,0,0-.59,1.92l.09.15,1.78,2.56-3.74-3.5c-.47-.44-.24-1.37.35-1.4Z"/><path class="cls-40" d="M202.47,375.08s2.39-1,2.59-2a12.13,12.13,0,0,0,0,1.23l1.19-2.08a18.35,18.35,0,0,0,0,2.19s0,1.58.65.12a3.46,3.46,0,0,1-2.88,3.54Z"/><path class="cls-41" d="M134,366.52s-5,2.42-6.49-1.12c0,0,2.24.73,2.24,0,0,0-.88.25-1.07-2a3.77,3.77,0,0,0,2.06,0s-1.29-.36-1-1.28a13.86,13.86,0,0,0,2.47,1.49l2.24,3Z"/><path class="cls-37" d="M151.39,342.54s-7-.48-4-8c0,0-7.84,1.12-7.28,5.6s7.07,5.24,7.07,5.24Z"/></g></g><rect class="cls-42" x="1.37" y="1" width="708" height="398"/><text class="cls-43" transform="translate(295.56 264.45)"><tspan class="cls-44">L</tspan><tspan x="15.97" y="0">OCKED</tspan></text><text class="cls-45" transform="translate(195.12 220.81)">LEVEL<tspan class="cls-46" x="170.95" y="0"> </tspan><tspan class="cls-47" x="184.63" y="0">T</tspan><tspan x="220.87" y="0">WO</tspan></text></g></g></g></svg>