<svg xmlns="http://www.w3.org/2000/svg" xmlns:xlink="http://www.w3.org/1999/xlink" viewBox="0 0 465.32 169.06"><defs><style>.cls-1{fill:none;}.cls-2{clip-path:url(#clip-path);}.cls-3{fill:url(#linear-gradient);}</style><clipPath id="clip-path"><path class="cls-1" d="M140.66,136.78q-1.23-1.26-1.23-4.32a29.48,29.48,0,0,1,2.07-10.83,26.64,26.64,0,0,1,5.58-8.93,14.61,14.61,0,0,1,7.65-4.46L151.08,127a20,20,0,0,1-2.86,7.31q-2,2.91-4.15,3.3a5.64,5.64,0,0,1-1,.09,3.27,3.27,0,0,1-2.45-1M441.29,30.53a99.25,99.25,0,0,1,4.2-14.46q2.17-5.46,3.95-5.78,1.28-.23,2,1.33a12.19,12.19,0,0,1,.69,4.71q0,6.91-4,16.1A89.19,89.19,0,0,1,438,49.91q1.28-10.39,3.3-19.39M451.5.15Q443,1.65,436.94,13.92t-9.18,29.3a179.87,179.87,0,0,0-3.11,32.23c0,1.29,0,2.49,0,3.64a42.81,42.81,0,0,1-7.38,7.38,21,21,0,0,1-8.73,4.25q-10,1.76-10-9.69a25.25,25.25,0,0,1,1.18-7.81,18,18,0,0,1,3.16-6,7.27,7.27,0,0,1,4.24-2.77,2.07,2.07,0,0,1,1.83.37,2.4,2.4,0,0,1,.64,1.86,9.5,9.5,0,0,1-.49,2.85c-.07.27-.17.72-.3,1.34a7.92,7.92,0,0,0-.2,1.61,2.44,2.44,0,0,0,1.14,2.27,4.27,4.27,0,0,0,3,.36,6.87,6.87,0,0,0,4.79-3.7A14.49,14.49,0,0,0,419.43,64q0-5-3-7.71T408,54.61a22.82,22.82,0,0,0-10.56,5.12,31.06,31.06,0,0,0-8.19,10.72A33.22,33.22,0,0,0,386.07,85a25.54,25.54,0,0,0,.22,3.28c-1.28,1.61-2.39,2.93-3.33,3.93q-2.72,2.9-4.69,3.25-2.86.5-2.86-3.44,0-2.76,1.88-11.68,2.17-10.45,2.17-14.3,0-6.42-6.42-5.28a17.26,17.26,0,0,0-7.16,3.53,37.21,37.21,0,0,0-7.95,9,69.51,69.51,0,0,0-7.3,15.11,75.22,75.22,0,0,1,1-7.48q.59-3.07,1.58-7.19a41.62,41.62,0,0,0,1.48-7.37q0-1.38-.79-1.74a5.28,5.28,0,0,0-2.76,0A12,12,0,0,0,345.45,67a9.41,9.41,0,0,0-2.91,4.71,86.62,86.62,0,0,0-3.62,23.21q-2.94,3.87-4.92,6-2.71,2.9-4.69,3.24a2.09,2.09,0,0,1-2.07-.67,4.1,4.1,0,0,1-.79-2.77q0-3,2.76-16.08,2.47-11.49,2.47-14,0-1.48-.89-1.87a6.21,6.21,0,0,0-3.16,0,9.2,9.2,0,0,0-4.89,2.14,9.66,9.66,0,0,0-2.42,4.67,140.3,140.3,0,0,1-4.89,15.67,54,54,0,0,1-4.74,9.82q-2.22,3.35-3.7,3.61a1.42,1.42,0,0,1-1.58-.56,5.58,5.58,0,0,1-.49-2.83q0-3.45,2-14.16.59-3.07,1.58-6.89a45.22,45.22,0,0,0,1.08-5.52,2.12,2.12,0,0,0-.84-1.93,4.52,4.52,0,0,0-3-.16,11.37,11.37,0,0,0-5.63,2.28,10.44,10.44,0,0,0-2.76,4.73,96.11,96.11,0,0,0-3.26,13.65,84.61,84.61,0,0,0-.91,9.83c-1.89,2.48-3.48,4.41-4.76,5.78q-2.71,2.9-4.69,3.24-2.86.5-2.86-3.44,0-2.76,1.87-11.68,2.17-10.45,2.17-14.3,0-6.42-6.41-5.28-5.23.92-11.25,7.51t-11,19.6q.3-1.83,1.09-5.52,1.87-8.62,1.88-11.78t-1.43-4.59q-1.43-1.33-4.89-.72a16.11,16.11,0,0,0-7.35,3.91,38.88,38.88,0,0,0-7.6,9.29,65.48,65.48,0,0,0-6.36,14.15,72.23,72.23,0,0,1,1-7.43q.59-3,1.58-7.14a41.44,41.44,0,0,0,1.48-7.37q0-1.38-.79-1.74a5.26,5.26,0,0,0-2.76,0A12,12,0,0,0,226.43,88a9.39,9.39,0,0,0-2.91,4.71,86.23,86.23,0,0,0-3,14.2,9.32,9.32,0,0,1-4.23,2.57q-2.47.44-2.47-3a39.4,39.4,0,0,1,.79-5.08,53.31,53.31,0,0,0,.89-6.37q0-6.41-6.42-5.28A17.22,17.22,0,0,0,202,93.21a37.13,37.13,0,0,0-7.94,9,69.43,69.43,0,0,0-7.3,15.11q.39-4.41,1-7.48t1.58-7.19a41.5,41.5,0,0,0,1.48-7.37c0-.92-.26-1.5-.79-1.74a5.24,5.24,0,0,0-2.76,0,12,12,0,0,0-5.67,2.33,9.38,9.38,0,0,0-2.91,4.71A86.49,86.49,0,0,0,175,123.79c-2,2.57-3.58,4.57-4.87,6q-2.66,2.89-4.54,3.22a2,2,0,0,1-1.93-.55,3.08,3.08,0,0,1-.74-2.24q0-4.44,2.27-16.19a79.66,79.66,0,0,0,1.48-10.13q0-3.45-4.84-2.6a25.57,25.57,0,0,0-4.34,1.16,5.9,5.9,0,0,0-1.23-2.79q-.74-.71-2.91-.32a26.27,26.27,0,0,0-12.88,6.56,40.18,40.18,0,0,0-9.72,13.06,36.26,36.26,0,0,0-3.63,14.74,35.94,35.94,0,0,1-3.53,3.65,13.19,13.19,0,0,1-6.36,3.29q-3.46.61-5.38-1.13t-1.93-5.88a46.85,46.85,0,0,1,1-8.66l6-29.29a57.1,57.1,0,0,0,1.28-10.79q0-8-3.7-11.78T103.9,70.52a26.88,26.88,0,0,0-15.2,8.6q-6.61,7.09-11.55,21.58A48.85,48.85,0,0,0,78,92.45q0-8.29-3.7-12.18T64.22,77.52Q55.83,79,48.83,86.6T36.19,111.28q.2-.92.59-3.26t.89-6a49.42,49.42,0,0,0,.49-6.35q0-6.61-2.91-9.56t-8.34-2a26.18,26.18,0,0,0-11.65,5.66c-3.88,3.09-7.4,8.48-10.56,13.45a31,31,0,0,0-2.12,4.07C1.31,110.1,0,117.84,2.48,118.2s4.46-4.21,6-7.66a53.25,53.25,0,0,1,7.95-9.74q3.6-3.25,6.17-3.7,3.26-.58,3.26,3.87a102.41,102.41,0,0,1-.89,12q-1.48,11.61-4,27.56-1.48,8.65-2.12,13.55a64,64,0,0,0-.64,8q0,4.54,1.58,5.89t5.23.71q3.85-.68,5.18-2.89t2-7.37Q35.4,134,40.29,119.2T50.31,98q5.13-6.38,10-7.24,2.86-.5,4.29,1T66,97q0,6.91-4.54,31.59-1.68,9.18-2.76,15.93a71.51,71.51,0,0,0-1.09,10.8q0,4.34,1.53,5.65t4.89.72a8.41,8.41,0,0,0,5.58-3q1.73-2.33,2.42-8.37,2.86-22.61,7.45-37.24t9.67-21.49q5.08-6.87,9.72-7.68a3.86,3.86,0,0,1,3.8,1.06Q104,86.5,104,89.95a28.65,28.65,0,0,1-.3,4.05q-.3,2.08-.79,4.43l-.69,3.28-3.95,18.76q-2.37,11.47-2.37,17.3,0,8.39,4.74,12.54T113.77,153a24.76,24.76,0,0,0,10.56-4.72,38.36,38.36,0,0,0,5-4.54,11.37,11.37,0,0,0,1.41,1.83q3.65,3.8,9.77,2.72,7.8-1.37,12.93-10.57a10.58,10.58,0,0,0,4.1,5.35,8.09,8.09,0,0,0,6,1.17q4.24-.75,8.78-5c1.19-1.12,2.34-2.33,3.48-3.59a14.28,14.28,0,0,0,.71,2.36q1.53,3.68,5.28,3a6.88,6.88,0,0,0,4.49-2.42q1.43-1.88,2.52-6.71a82.79,82.79,0,0,1,3.85-12.13,57.8,57.8,0,0,1,4.79-9.58q2.42-3.73,3.9-4,1.08-.19,1.09,1.39,0,.69-.2,2.7a15.87,15.87,0,0,0-.3,3q0,4.54,2.71,6.72t7.95,1.26a18.73,18.73,0,0,0,7.31-3.06c0,5.52.53,9.48,1.52,11.86s2.78,3.46,5.28,3a6.87,6.87,0,0,0,4.49-2.42q1.43-1.88,2.52-6.71a100.86,100.86,0,0,1,3.41-11.46,62.47,62.47,0,0,1,4.39-9.86q2.27-4,3.75-4.21c.72-.13,1.09.34,1.09,1.39q0,2-.79,8.43a89.55,89.55,0,0,0-1,11,14.39,14.39,0,0,0,1.63,7.26,4.31,4.31,0,0,0,4.89,2.25,7.13,7.13,0,0,0,4.59-2.39q1.43-1.83,2.52-6.76A82.8,82.8,0,0,1,262,107.49a60.09,60.09,0,0,1,4.74-9.57q2.37-3.73,3.65-4c.72-.13,1.09.34,1.09,1.39a55,55,0,0,1-1.28,8.81,65.8,65.8,0,0,0-1.38,10.11q0,5.53,2.57,8t7.6,1.57a22.76,22.76,0,0,0,11.1-5.31,51.53,51.53,0,0,0,4.37-4.29,11.68,11.68,0,0,0,1.45,2.52,7.06,7.06,0,0,0,7.25,2.82q3.85-.68,7.2-4.87a28.26,28.26,0,0,0,5-11.2q0,6.61,2.22,9.87t7,2.42a22.75,22.75,0,0,0,11.1-5.31,51.61,51.61,0,0,0,4-3.9,14.69,14.69,0,0,0,.73,2.47q1.53,3.68,5.28,3a6.89,6.89,0,0,0,4.49-2.42q1.43-1.88,2.52-6.71a79.35,79.35,0,0,1,3.9-12.14,65.79,65.79,0,0,1,4.74-9.57q2.32-3.72,3.6-3.94,1.09-.19,1.09,1.39a55.06,55.06,0,0,1-1.28,8.81,65.71,65.71,0,0,0-1.38,10.11q0,5.53,2.56,8t7.6,1.57a22.76,22.76,0,0,0,11.1-5.31,51.93,51.93,0,0,0,5.09-5.09,13.8,13.8,0,0,0,1.72,1.77q5.38,4.53,15.05,2.82A33.61,33.61,0,0,0,419,96a40.81,40.81,0,0,0,6.43-5.27,11.53,11.53,0,0,0,1.67,4.73q1.43,2,4.49,1.43a6.87,6.87,0,0,0,4.49-2.42q1.43-1.88,2.52-6.71a82.94,82.94,0,0,1,3.85-12.13,60.15,60.15,0,0,1,4.74-9.57q2.37-3.72,3.65-3.95,1.08-.19,1.09,1.39a98.6,98.6,0,0,1-1.18,10.28,104.1,104.1,0,0,0-1.38,13.27q0,3.35,1.48,4.77t4.74.84a7.89,7.89,0,0,0,5-2.51,8.86,8.86,0,0,0,1.53-5.65,113.32,113.32,0,0,1,.59-12.1q.59-5.48,1.58-11.68a82.82,82.82,0,0,0,1.09-9.86q0-3.16-1.63-4.5t-4.78-.79a17.26,17.26,0,0,0-7.16,3.53,36.84,36.84,0,0,0-7.9,8.94,70.27,70.27,0,0,0-7.25,14.95q0-5.43.3-10.61,13.13-16.62,19-28.36t5.82-21.7q0-6.22-2.81-9.62A7.09,7.09,0,0,0,453.17,0a9.51,9.51,0,0,0-1.66.15"/></clipPath><linearGradient id="linear-gradient" x1="3110.23" y1="689.25" x2="3111.99" y2="689.25" gradientTransform="matrix(263.53, 0, 0, -263.53, -819624.1, 181720.28)" gradientUnits="userSpaceOnUse"><stop offset="0" stop-color="#f46ca4"/><stop offset="0.94" stop-color="#6790f4"/><stop offset="1" stop-color="#6790f4"/></linearGradient></defs><title>name</title><g id="Layer_2" data-name="Layer 2"><g id="desktop"><g id="front_page" data-name="front page"><g class="cls-2"><rect class="cls-3" width="465.32" height="169.06"/></g></g></g></g></svg>